<?xml version="1.0" encoding="utf-8"?>
<!-- Generator: Adobe Illustrator 16.0.0, SVG Export Plug-In . SVG Version: 6.00 Build 0)  -->
<!DOCTYPE svg PUBLIC "-//W3C//DTD SVG 1.1//EN" "http://www.w3.org/Graphics/SVG/1.1/DTD/svg11.dtd">
<svg version="1.1" id="Layer_1" xmlns="http://www.w3.org/2000/svg" xmlns:xlink="http://www.w3.org/1999/xlink" x="0px" y="0px"
	 width="1000px" height="1000px" viewBox="0 0 1000 1000" enable-background="new 0 0 1000 1000" xml:space="preserve">
<circle fill="#FFFFFF" cx="500.08" cy="499.999" r="474.441"/>
<g>
	<g>
		<path fill="#3D3D65" d="M486.756,604.019h-202.52l-38.438,90.646H175.23l177.277-401.595h69.418l175.554,401.595h-72.285
			L486.756,604.019z M460.938,543.778l-75.729-178.423l-75.73,178.423H460.938z"/>
	</g>
	<g>
		<g>
			<path fill="#3D3D65" d="M854.572,517.451H753.599v100.4H710.57v-100.4H609.023v-45.322H710.57V371.73h43.028v100.399h100.974
				V517.451z"/>
		</g>
	</g>
	<g>
		<path fill="#45A2D9" d="M514.633,604.019H312.111l-38.437,90.646h-70.566l177.276-401.595h69.419l175.556,401.595h-72.291
			L514.633,604.019z M488.817,543.778l-75.73-178.423l-75.729,178.423H488.817z"/>
	</g>
	<g>
		<path fill="#45A2D9" d="M878.811,517.451H777.837v100.4h-43.025v-100.4H633.264v-45.322h101.548V371.73h43.025v100.399h100.974
			V517.451z"/>
	</g>
</g>
</svg>
