<?xml version="1.0" encoding="utf-8"?>
<!-- Generator: Adobe Illustrator 16.0.0, SVG Export Plug-In . SVG Version: 6.00 Build 0)  -->
<!DOCTYPE svg PUBLIC "-//W3C//DTD SVG 1.1//EN" "http://www.w3.org/Graphics/SVG/1.1/DTD/svg11.dtd">
<svg version="1.1" id="Layer_1" xmlns="http://www.w3.org/2000/svg" xmlns:xlink="http://www.w3.org/1999/xlink" x="0px" y="0px"
	 width="300px" height="300px" viewBox="0 0 300 300" enable-background="new 0 0 300 300" xml:space="preserve">
<g id="XMLID_1_">
	<g>
		<path fill="#FFFFFF" d="M149.99,0c82.83,0,149.99,67.15,149.99,149.99c0,82.83-67.16,149.99-149.99,149.99
			C67.15,299.98,0,232.82,0,149.99C0,67.15,67.15,0,149.99,0z"/>
	</g>
	<g>
	</g>
</g>
<path fill="#45A2D9" d="M129.045,96.383c-9.471-0.355-14.023-7.214-13.662-20.568c0.198-7.284,1.244-12.898,3.153-16.847
	c1.902-3.947,5.591-7.366,11.064-10.255s12.208-4.225,20.213-4.008c8,0.217,14.711,1.336,20.135,3.355
	c5.416,2.021,9.566,4.386,12.432,7.095c2.869,2.711,5.061,6.212,6.582,10.505c2.443,6.243,3.531,14.397,3.258,24.463
	c-0.271,10.067-1.857,20.375-5.41,30.909c-3.225,10.541-30.893,28.699-35.029,36.583c-10.703,20.971-4.587,34.934-5.545,64.369
	c-0.27,10.014-9.562,4.408-12.959,7.311c-4.724,4.033-9.71-42.455-3.171-72.268c6.58-30.003,35.014-33.387,38.018-52.072
	c3.199-19.923,7.357-48.943-17.006-45.027c-7.491,1.204-12.968,18.527-10.941,28.199c-0.025,0.91,1.881,4.433-2.243,5.991
	C133.802,95.677,130.839,96.434,129.045,96.383z M155.011,258.217c-0.242,8.99-5.215,13.354-14.914,13.09
	c-3.389-0.09-6.303-1.527-8.741-4.303c-2.441-2.775-3.612-5.832-3.524-9.178c0.091-3.34,1.635-6.443,4.639-9.303
	c3-2.861,6.167-4.244,9.498-4.154c3.33,0.09,6.355,1.699,9.079,4.83C153.769,252.332,155.091,255.338,155.011,258.217z"/>
</svg>
