<?xml version="1.0" encoding="utf-8"?>
<!-- Generator: Adobe Illustrator 16.0.0, SVG Export Plug-In . SVG Version: 6.00 Build 0)  -->
<!DOCTYPE svg PUBLIC "-//W3C//DTD SVG 1.1//EN" "http://www.w3.org/Graphics/SVG/1.1/DTD/svg11.dtd">
<svg version="1.1" id="Layer_1" xmlns="http://www.w3.org/2000/svg" xmlns:xlink="http://www.w3.org/1999/xlink" x="0px" y="0px"
	 width="1000px" height="1000px" viewBox="0 0 1000 1000" enable-background="new 0 0 1000 1000" xml:space="preserve">
<g id="Layer_1_1_">
	<circle fill="#FFFFFF" cx="500.08" cy="499.999" r="474.441"/>
</g>
<rect x="741.76" y="446.878" fill="#FDD137" width="10.047" height="129.618"/>
<path fill="#212944" stroke="#FFFFFF" stroke-width="3" stroke-miterlimit="10" d="M484.753,537.076v113.268
	c0,0,53.01-69.77,219.417-67.628V469.637"/>
<path fill="#212944" stroke="#FFFFFF" stroke-width="3" stroke-miterlimit="10" d="M484.751,537.076v113.268
	c0,0-68.859-80.478-213.224-61.231v-118.23"/>
<polygon fill="#3D3D65" stroke="#FFFFFF" stroke-width="3" stroke-miterlimit="10" points="497.72,306.937 114.031,421.179 
	487.366,537.076 871.052,422.832 "/>
<path fill="#FDD137" d="M765.949,585.957c0,10.102-8.191,18.292-18.293,18.292c-10.101,0-18.291-8.19-18.291-18.292
	c0-10.104,8.19-18.289,18.291-18.289C757.758,567.668,765.949,575.854,765.949,585.957z"/>
<path fill="#FDD137" d="M765.949,727.868h-36.584c0,0-12.991-105.526,9.254-127.77c2.086-2.086,9.214,1.941,9.214,1.941
	s7.723-2.612,9.811-0.526C779.886,623.756,765.949,727.868,765.949,727.868z"/>
</svg>
