<?xml version="1.0" encoding="utf-8"?>
<!-- Generator: Adobe Illustrator 16.0.0, SVG Export Plug-In . SVG Version: 6.00 Build 0)  -->
<!DOCTYPE svg PUBLIC "-//W3C//DTD SVG 1.1//EN" "http://www.w3.org/Graphics/SVG/1.1/DTD/svg11.dtd">
<svg version="1.1" xmlns="http://www.w3.org/2000/svg" xmlns:xlink="http://www.w3.org/1999/xlink" x="0px" y="0px" width="1000px"
	 height="655.932px" viewBox="0 0 1000 655.932" enable-background="new 0 0 1000 655.932" xml:space="preserve">
<g id="blueLine" display="none">
	<g display="inline">
		<polygon fill="#3D3D65" points="60.84,583.128 49.223,576.064 147.967,413.703 303.764,512.399 434.47,462.103 523.682,404.541 
			664.353,81.417 830.874,243.271 910.973,89.988 923.025,96.285 834.478,265.734 668.974,104.868 534.509,413.738 440.662,474.288 
			302.265,527.546 152.389,432.598 		"/>
	</g>
</g>
<g id="Layer_3">
	<polyline fill="none" stroke="#3D3D65" stroke-width="13" stroke-miterlimit="10" points="55.521,578.721 150.667,422.276 
		303.505,519.099 438.056,467.321 529.584,408.265 667.153,92.268 833.166,253.628 917.489,92.263 	"/>
</g>
<g id="Layer_1">
	<g>
		<circle fill="#3D3D65" cx="151.667" cy="420.278" r="14.979"/>
	</g>
	<g>
		<circle fill="#3D3D65" cx="430.588" cy="470.152" r="14.978"/>
	</g>
	<g>
		<circle fill="#3D3D65" cx="528.095" cy="409.139" r="14.979"/>
	</g>
	<g>
		<ellipse fill="#3D3D65" cx="666.74" cy="92.884" rx="13.223" ry="14.976"/>
	</g>
	<g>
		<circle fill="#3D3D65" cx="832.676" cy="254.503" r="14.979"/>
	</g>
	<g>
		<circle fill="#3D3D65" cx="918" cy="93.138" r="14.978"/>
	</g>
	<polyline fill="none" stroke="#FED138" stroke-width="9" stroke-miterlimit="10" points="52.521,562.721 147.667,406.276 
		300.505,503.099 435.056,451.321 526.584,392.265 664.153,76.268 830.166,237.628 914.489,76.263 	"/>
	<circle fill="#FED138" cx="150.714" cy="403.965" r="14.979"/>
	<circle fill="#FED138" cx="428.078" cy="453.278" r="14.978"/>
	<circle fill="#FED138" cx="526.585" cy="392.265" r="14.979"/>
	<circle fill="#FED138" cx="664.985" cy="77.009" r="14.978"/>
	<circle fill="#FED138" cx="830.166" cy="237.629" r="14.979"/>
	<circle fill="#FED138" cx="914.49" cy="76.264" r="14.978"/>
	<g>
		<polygon fill="#3D3D65" points="976.712,591.943 25.468,591.943 25.468,62.257 52.521,62.257 52.521,562.305 976.712,562.305 		
			"/>
	</g>
</g>
</svg>
