<?xml version="1.0" encoding="utf-8"?>
<!-- Generator: Adobe Illustrator 16.0.0, SVG Export Plug-In . SVG Version: 6.00 Build 0)  -->
<!DOCTYPE svg PUBLIC "-//W3C//DTD SVG 1.1//EN" "http://www.w3.org/Graphics/SVG/1.1/DTD/svg11.dtd">
<svg version="1.1" xmlns="http://www.w3.org/2000/svg" xmlns:xlink="http://www.w3.org/1999/xlink" x="0px" y="0px" width="1000px"
	 height="1000px" viewBox="0 0 1000 655.932" enable-background="new 0 0 1000 655.932" xml:space="preserve">
<g id="Layer_3">
</g>
<g id="Layer_1">
	<path fill="#3D3D65" d="M730.266,375.377c0-68.303-27.822-130.139-72.801-174.899c-44.982-44.761-107.122-72.445-175.758-72.445
		c-68.637,0-130.776,27.684-175.756,72.445c-44.98,44.76-72.801,106.596-72.801,174.899c0,30.813,5.663,60.309,16.01,87.515
		c10.348,27.205,25.379,52.122,44.112,73.777c0,0.003,0,0.008,0,0.012c0,0.005,0,0.009,0,0.016l-0.001-0.012l-0.001-0.012
		l-10.602,10.549l-10.602,10.55c-21.25-24.306-38.308-52.334-50.053-82.975c-11.747-30.639-18.181-63.889-18.181-98.635
		c0-76.445,31.137-145.653,81.481-195.75c50.342-50.097,119.891-81.083,196.712-81.083c76.821,0,146.37,30.985,196.711,81.083
		c50.344,50.097,81.481,119.305,81.481,195.75"/>
	<path fill="#EE2F27" d="M236.314,192.91l-26.963-24.887C168.32,224.259,135.62,294.206,135.62,382.93
		c0,87.088,32.094,166.677,85.093,227.598l26.443-26.442l0.004,0.028c0-0.012,0-0.023,0-0.035
		c-46.725-54.273-74.979-124.9-74.979-202.134C172.182,306.419,195.071,249.852,236.314,192.91z"/>
	<path fill="#3C9244" d="M727.816,192.91c39.7,52.099,64.318,118.477,64.318,189.035c0,76.802-27.947,147.069-74.207,201.22
		c0,0.01,0,0.019,0.001,0.028l0.002-0.013l26.88,26.881c52.754-60.86,84.679-140.268,84.679-227.131
		c0-84.062-23.603-147.382-74.571-214.907L727.816,192.91z"/>
	<path fill="#FED139" d="M236.314,192.91c56.861-67.385,150.771-120.943,245.844-120.943c100.031,0,188.98,47.396,245.658,120.943
		l27.102-24.887C691.276,91.942,589.502,35.995,482.555,35.995c-102.29,0-201.555,44.259-273.204,132.028L236.314,192.91z"/>
	<circle fill="#3D3D65" cx="489.961" cy="392.33" r="34.576"/>
</g>
<g id="Layer_2">
</g>
<g id="Layer_4">
	<g>
		
			<rect x="256.333" y="158.254" transform="matrix(-0.9995 0.0306 -0.0306 -0.9995 992.4571 769.2974)" fill="none" width="468" height="468"/>
		<path fill="none" stroke="#3D3D65" stroke-width="13" stroke-miterlimit="10" d="M489.96,392.33L715,152.254L489.96,392.33z"/>
	</g>
</g>
</svg>
