<?xml version="1.0" encoding="utf-8"?>
<!-- Generator: Adobe Illustrator 16.0.0, SVG Export Plug-In . SVG Version: 6.00 Build 0)  -->
<!DOCTYPE svg PUBLIC "-//W3C//DTD SVG 1.1//EN" "http://www.w3.org/Graphics/SVG/1.1/DTD/svg11.dtd">
<svg version="1.1" xmlns="http://www.w3.org/2000/svg" xmlns:xlink="http://www.w3.org/1999/xlink" x="0px" y="0px" width="1000px"
	 height="655.932px" viewBox="0 0 1000 655.932" enable-background="new 0 0 1000 655.932" xml:space="preserve">
<g id="blueLine" display="none">
	<g display="inline">
		<polygon fill="#3D3D65" points="60.84,583.128 49.223,576.064 147.967,413.703 303.764,512.399 434.47,462.103 523.682,404.541 
			664.353,81.417 830.874,243.271 910.973,89.988 923.025,96.285 834.478,265.734 668.974,104.868 534.509,413.738 440.662,474.288 
			302.265,527.546 152.389,432.598 		"/>
	</g>
</g>
<g id="PurpleDots">
	<g>
		<circle class='linepdots' fill="#3D3D65" cx="156" cy="448.256" r="14.979"/>
	</g>
	<g>
		<circle class='linepdots' fill="#3D3D65" cx="302.334" cy="521.281" r="14.979"/>
	</g>
	<g>
		<circle class='linepdots' fill="#3D3D65" cx="426.587" cy="415.985" r="14.978"/>
	</g>
	<g>
		<circle class='linepdots' fill="#3D3D65" cx="528.095" cy="409.139" r="14.979"/>
	</g>
	<g>
		<circle class='linepdots' fill="#3D3D65" cx="664.74" cy="123.551" r="14.976"/>
	</g>
	<g>
		<circle class='linepdots' fill="#3D3D65" cx="832.676" cy="254.503" r="14.979"/>
	</g>
	<g>
		<circle class='linepdots' fill="#3D3D65" cx="955.5" cy="78.255" r="14.978"/>
	</g>
</g>
<g id="PurpleLine">
	<path fill="none" class='pline' stroke="#3D3D65" stroke-width="13" stroke-miterlimit="10" d="M55.521,578.721 156,448.254 
		303.505,519.099 426.587,415.983 529.584,408.265 665.004,121.589 833.166,253.628 955.5,78.254 	z"/>
</g>
<g id="YellowDots">
	<circle class='lineydots' fill="#FED138" cx="150.714" cy="403.965" r="14.979"/>
	<circle class='lineydots' fill="#FED138" cx="301.38" cy="503.299" r="14.979"/>
	<circle class='lineydots' fill="#FED138" cx="428.078" cy="453.278" r="14.978"/>
	<circle class='lineydots' fill="#FED138" cx="526.585" cy="392.265" r="14.979"/>
	<circle class='lineydots' fill="#FED138" cx="664.985" cy="77.009" r="14.978"/>
	<circle class='lineydots' fill="#FED138" cx="874.167" cy="257.629" r="14.979"/>
	<circle class='lineydots' fill="#FED138" cx="951.823" cy="41.597" r="14.978"/>
</g>
<g id="YellowLine">
	<polyline fill="none" class='yline' stroke="#FED138" stroke-width="9" stroke-miterlimit="10" points="52.521,562.721 147.667,406.276 
		300.505,503.099 435.056,451.321 526.584,392.265 664.153,76.268 873.67,258.921 951.822,41.596 	"/>
</g>
<g id="background">
	<g>
		<polygon fill="#3D3D65" points="976.712,591.943 25.468,591.943 25.468,62.257 52.521,62.257 52.521,562.305 976.712,562.305 		
			"/>
	</g>
</g>
</svg>
