<?xml version="1.0" encoding="utf-8"?>
<!-- Generator: Adobe Illustrator 16.0.0, SVG Export Plug-In . SVG Version: 6.00 Build 0)  -->
<!DOCTYPE svg PUBLIC "-//W3C//DTD SVG 1.1//EN" "http://www.w3.org/Graphics/SVG/1.1/DTD/svg11.dtd">
<svg version="1.1" id="Layer_1" xmlns="http://www.w3.org/2000/svg" xmlns:xlink="http://www.w3.org/1999/xlink" x="0px" y="0px"
	 width="314.929px" height="314.25px" viewBox="0 0 314.929 314.25" enable-background="new 0 0 314.929 314.25"
	 xml:space="preserve">
<g>
	<circle fill="#FFFFFF" cx="157.65" cy="157.278" r="157.278"/>
	<rect x="79.557" y="56.51" fill="none" width="104.853" height="106.351"/>
	
		<text transform="matrix(1 0 0 1 79.5557 99.0522)" fill="#3D3D65" font-family="'Montserrat-Regular'" font-size="59.9185" letter-spacing="-1">X</text>
	<rect x="85.284" y="55.511" fill="none" width="104.854" height="106.35"/>
	
		<text transform="matrix(1 0 0 1 85.2842 98.0532)" fill="#FDD139" font-family="'Montserrat-Regular'" font-size="59.9185" letter-spacing="-1">X</text>
	<g>
		<path fill-rule="evenodd" clip-rule="evenodd" fill="#3D3D65" d="M184.06,85.314l-7.227,5.346c0,0,0.09,0.117,0.246,0.322
			c0.129,0.221,0.339,0.52,0.561,0.898c0.444,0.757,0.916,1.838,1.245,3.016c0.341,1.171,0.521,2.446,0.57,3.443
			c0.035,0.495,0.059,0.911,0.046,1.214c-0.001,0.298-0.001,0.469-0.001,0.469l8.985,0.106c0,0,0.002-0.236,0.002-0.652
			c0.014-0.414-0.014-1.013-0.064-1.732c-0.076-1.436-0.337-3.377-0.886-5.281c-0.529-1.905-1.34-3.754-2.102-5.054
			c-0.377-0.651-0.732-1.169-0.966-1.541C184.209,85.516,184.06,85.314,184.06,85.314z"/>
		<path fill-rule="evenodd" clip-rule="evenodd" fill="#3D3D65" d="M160.445,73.6l-1.277,8.896c0,0,3.109,0.413,5.984,1.221
			c1.441,0.396,2.812,0.882,3.803,1.28c0.985,0.408,1.6,0.719,1.6,0.719l3.94-8.078c0,0-0.847-0.428-2.144-0.963
			c-1.298-0.524-3.047-1.14-4.813-1.623C164.006,74.066,160.445,73.6,160.445,73.6z"/>
		<path fill-rule="evenodd" clip-rule="evenodd" fill="#3D3D65" d="M135.229,73.563l1.011,8.931c0,0,3.237-0.377,6.487-0.545
			c3.248-0.193,6.471-0.158,6.471-0.158l0.076-8.988c0,0-3.534-0.037-7.043,0.172C138.72,73.157,135.229,73.563,135.229,73.563z"/>
		<polygon fill-rule="evenodd" clip-rule="evenodd" fill="#3D3D65" points="163.137,155.76 155.573,150.908 148.177,162.476 
			155.777,167.275 		"/>
		<path fill-rule="evenodd" clip-rule="evenodd" fill="#3D3D65" d="M176.098,134.714l-7.813-4.443c0,0-1.654,2.896-3.386,5.777
			c-1.769,2.874-3.536,5.748-3.536,5.748l7.62,4.766c0,0,1.807-2.938,3.613-5.875C174.377,137.726,176.098,134.714,176.098,134.714z
			"/>
		<path fill-rule="evenodd" clip-rule="evenodd" fill="#3D3D65" d="M186.553,111.845l-8.618-2.552c0,0-0.232,0.736-0.58,1.841
			c-0.387,1.104-0.913,2.577-1.521,4.045c-0.61,1.471-1.263,2.957-1.789,4.059c-0.509,1.106-0.874,1.84-0.874,1.84l8.079,3.938
			c0,0,0.391-0.783,0.942-1.981c0.567-1.188,1.275-2.8,1.954-4.44c0.683-1.643,1.287-3.328,1.729-4.6
			C186.281,112.705,186.553,111.845,186.553,111.845z"/>
		<path fill-rule="evenodd" clip-rule="evenodd" fill="#3D3D65" d="M134.565,219.695l-9.116,2.119c0,0,0.022,0.238,0.062,0.65
			c0.024,0.418,0.123,1.006,0.246,1.709c0.113,0.707,0.246,1.529,0.482,2.395c0.108,0.432,0.22,0.881,0.333,1.338
			c0.145,0.443,0.292,0.898,0.439,1.352c0.273,0.914,0.647,1.791,1.003,2.613c0.322,0.834,0.738,1.561,1.066,2.195
			c0.321,0.641,0.614,1.158,0.85,1.504c0.223,0.354,0.349,0.557,0.349,0.557l8.237-4.49c0,0-0.107-0.166-0.297-0.459
			c-0.201-0.285-0.447-0.715-0.715-1.25c-0.273-0.527-0.629-1.129-0.893-1.828c-0.296-0.684-0.611-1.416-0.83-2.18
			c-0.121-0.379-0.241-0.76-0.36-1.131c-0.089-0.381-0.177-0.756-0.262-1.117c-0.191-0.723-0.29-1.41-0.374-2.002
			c-0.092-0.59-0.168-1.08-0.18-1.43C134.581,219.894,134.565,219.695,134.565,219.695z"/>
		<path fill-rule="evenodd" clip-rule="evenodd" fill="#3D3D65" d="M139.114,197.552l-8.693-2.5c0,0-1.457,3.578-2.572,7.256
			c-0.574,1.836-1.029,3.701-1.348,5.102c-0.285,1.406-0.475,2.344-0.475,2.344l9.252-0.094c0,0,0.176-0.775,0.439-1.938
			c0.289-1.158,0.697-2.693,1.197-4.203C137.886,200.49,139.114,197.552,139.114,197.552z"/>
		<path fill-rule="evenodd" clip-rule="evenodd" fill="#3D3D65" d="M150.026,176.601l-7.715-4.609c0,0-1.788,2.99-3.515,6.045
			c-0.854,1.535-1.708,3.07-2.324,4.246c-0.629,1.164-1.028,1.957-1.028,1.957l7.983,4.127c0,0,1.544-2.98,3.2-5.92
			C148.288,179.509,150.026,176.601,150.026,176.601z"/>
		<path fill-rule="evenodd" clip-rule="evenodd" fill="#3D3D65" d="M189.361,253.587l-1.253,8.898c0,0,0.867,0.135,2.17,0.291
			c1.301,0.162,3.036,0.379,4.772,0.596c1.735,0.18,3.471,0.361,4.772,0.496c1.301,0.141,2.168,0.203,2.168,0.203l0.812-8.949
			c0,0-0.846-0.061-2.107-0.199c-1.262-0.133-2.946-0.307-4.63-0.482c-1.677-0.209-3.354-0.418-4.611-0.574
			C190.194,253.718,189.361,253.587,189.361,253.587z"/>
		<path fill-rule="evenodd" clip-rule="evenodd" fill="#3D3D65" d="M165.949,248.728l-2.948,8.494c0,0,0.229,0.072,0.632,0.199
			c0.396,0.109,0.96,0.266,1.638,0.453c1.355,0.373,3.191,0.889,4.891,1.268c1.729,0.422,3.462,0.816,4.763,1.064
			c1.301,0.268,2.167,0.445,2.167,0.445l1.725-8.822c0,0-0.823-0.168-2.057-0.422c-1.239-0.234-2.871-0.609-4.497-1.004
			c-1.655-0.369-3.197-0.812-4.371-1.129c-0.587-0.16-1.075-0.293-1.418-0.385C166.141,248.787,165.949,248.728,165.949,248.728z"/>
		<path fill-rule="evenodd" clip-rule="evenodd" fill="#3D3D65" d="M145.503,239.072l-7.011,6.127c0,0,0.184,0.15,0.505,0.418
			c0.336,0.248,0.816,0.602,1.393,1.027c1.131,0.879,2.759,1.887,4.387,2.895c1.664,0.945,3.342,1.875,4.654,2.475
			c0.648,0.314,1.188,0.576,1.566,0.758c0.379,0.182,0.605,0.268,0.605,0.268l4.918-7.68c0,0-0.188-0.068-0.503-0.213
			c-0.315-0.146-0.766-0.357-1.307-0.609c-1.095-0.477-2.499-1.223-3.897-1.977c-1.368-0.809-2.744-1.611-3.701-2.324
			c-0.488-0.342-0.896-0.627-1.181-0.824C145.659,239.195,145.503,239.072,145.503,239.072z"/>
	</g>
	<g>
		<g>
			<path fill-rule="evenodd" clip-rule="evenodd" fill="#FDD139" d="M190.052,85.314l-7.227,5.346c0,0,0.09,0.117,0.246,0.322
				c0.128,0.221,0.339,0.52,0.561,0.898c0.443,0.757,0.916,1.838,1.245,3.016c0.341,1.171,0.521,2.446,0.569,3.443
				c0.035,0.495,0.059,0.911,0.046,1.214c-0.001,0.298-0.001,0.469-0.001,0.469l8.986,0.106c0,0,0.002-0.236,0.002-0.652
				c0.014-0.414-0.014-1.013-0.064-1.732c-0.076-1.436-0.338-3.377-0.886-5.281c-0.529-1.905-1.34-3.754-2.102-5.054
				c-0.378-0.651-0.732-1.169-0.967-1.541C190.201,85.516,190.052,85.314,190.052,85.314z"/>
			<path fill-rule="evenodd" clip-rule="evenodd" fill="#FDD139" d="M166.438,73.6l-1.277,8.896c0,0,3.108,0.413,5.983,1.221
				c1.441,0.396,2.812,0.882,3.804,1.28c0.985,0.408,1.6,0.719,1.6,0.719l3.939-8.078c0,0-0.847-0.428-2.144-0.963
				c-1.297-0.524-3.047-1.14-4.812-1.623C169.998,74.066,166.438,73.6,166.438,73.6z"/>
			<path fill-rule="evenodd" clip-rule="evenodd" fill="#FDD139" d="M141.222,73.563l1.01,8.931c0,0,3.238-0.377,6.487-0.545
				c3.249-0.193,6.472-0.158,6.472-0.158l0.076-8.988c0,0-3.535-0.037-7.044,0.172C144.712,73.157,141.222,73.563,141.222,73.563z"
				/>
			<polygon fill-rule="evenodd" clip-rule="evenodd" fill="#FDD139" points="169.129,155.76 161.565,150.908 154.169,162.476 
				161.77,167.275 			"/>
			<path fill-rule="evenodd" clip-rule="evenodd" fill="#FDD139" d="M182.09,134.714l-7.813-4.443c0,0-1.654,2.896-3.386,5.777
				c-1.769,2.874-3.537,5.748-3.537,5.748l7.621,4.766c0,0,1.806-2.938,3.613-5.875C180.368,137.726,182.09,134.714,182.09,134.714z
				"/>
			<path fill-rule="evenodd" clip-rule="evenodd" fill="#FDD139" d="M192.544,111.845l-8.618-2.552c0,0-0.231,0.736-0.58,1.841
				c-0.386,1.104-0.913,2.577-1.521,4.045c-0.61,1.471-1.262,2.957-1.788,4.059c-0.509,1.106-0.874,1.84-0.874,1.84l8.079,3.938
				c0,0,0.39-0.783,0.941-1.981c0.568-1.188,1.276-2.8,1.955-4.44c0.683-1.643,1.287-3.328,1.729-4.6
				C192.273,112.705,192.544,111.845,192.544,111.845z"/>
			<path fill-rule="evenodd" clip-rule="evenodd" fill="#FDD139" d="M140.558,219.695l-9.117,2.119c0,0,0.023,0.238,0.062,0.65
				c0.024,0.418,0.123,1.006,0.245,1.709c0.114,0.707,0.247,1.529,0.483,2.395c0.107,0.432,0.219,0.881,0.332,1.338
				c0.145,0.443,0.293,0.898,0.44,1.352c0.272,0.914,0.647,1.791,1.003,2.613c0.322,0.834,0.738,1.561,1.065,2.195
				c0.321,0.641,0.614,1.158,0.851,1.504c0.222,0.354,0.349,0.557,0.349,0.557l8.237-4.49c0,0-0.108-0.166-0.297-0.459
				c-0.201-0.285-0.447-0.715-0.716-1.25c-0.273-0.527-0.628-1.129-0.892-1.828c-0.296-0.684-0.611-1.416-0.83-2.18
				c-0.121-0.379-0.242-0.76-0.361-1.131c-0.089-0.381-0.176-0.756-0.262-1.117c-0.191-0.723-0.289-1.41-0.373-2.002
				c-0.092-0.59-0.168-1.08-0.18-1.43C140.573,219.894,140.558,219.695,140.558,219.695z"/>
			<path fill-rule="evenodd" clip-rule="evenodd" fill="#FDD139" d="M145.105,197.552l-8.692-2.5c0,0-1.457,3.578-2.573,7.256
				c-0.573,1.836-1.028,3.701-1.347,5.102c-0.285,1.406-0.476,2.344-0.476,2.344l9.253-0.094c0,0,0.176-0.775,0.439-1.938
				c0.289-1.158,0.697-2.693,1.197-4.203C143.878,200.49,145.105,197.552,145.105,197.552z"/>
			<path fill-rule="evenodd" clip-rule="evenodd" fill="#FDD139" d="M156.019,176.601l-7.716-4.609c0,0-1.788,2.99-3.515,6.045
				c-0.854,1.535-1.707,3.07-2.324,4.246c-0.629,1.164-1.028,1.957-1.028,1.957l7.983,4.127c0,0,1.545-2.98,3.201-5.92
				C154.28,179.509,156.019,176.601,156.019,176.601z"/>
			<path fill-rule="evenodd" clip-rule="evenodd" fill="#FDD139" d="M195.353,253.587l-1.253,8.898c0,0,0.868,0.135,2.17,0.291
				c1.301,0.162,3.037,0.379,4.773,0.596c1.735,0.18,3.471,0.361,4.772,0.496c1.301,0.141,2.168,0.203,2.168,0.203l0.812-8.949
				c0,0-0.846-0.061-2.107-0.199c-1.263-0.133-2.946-0.307-4.631-0.482c-1.677-0.209-3.354-0.418-4.61-0.574
				C196.186,253.718,195.353,253.587,195.353,253.587z"/>
			<path fill-rule="evenodd" clip-rule="evenodd" fill="#FDD139" d="M171.941,248.728l-2.949,8.494c0,0,0.23,0.072,0.632,0.199
				c0.396,0.109,0.961,0.266,1.639,0.453c1.355,0.373,3.191,0.889,4.89,1.268c1.73,0.422,3.462,0.816,4.764,1.064
				c1.301,0.268,2.167,0.445,2.167,0.445l1.724-8.822c0,0-0.823-0.168-2.056-0.422c-1.239-0.234-2.871-0.609-4.498-1.004
				c-1.654-0.369-3.196-0.812-4.371-1.129c-0.587-0.16-1.074-0.293-1.418-0.385C172.133,248.787,171.941,248.728,171.941,248.728z"
				/>
			<path fill-rule="evenodd" clip-rule="evenodd" fill="#FDD139" d="M151.495,239.072l-7.011,6.127c0,0,0.183,0.15,0.505,0.418
				c0.336,0.248,0.816,0.602,1.393,1.027c1.131,0.879,2.759,1.887,4.386,2.895c1.665,0.945,3.343,1.875,4.654,2.475
				c0.648,0.314,1.188,0.576,1.567,0.758s0.604,0.268,0.604,0.268l4.918-7.68c0,0-0.188-0.068-0.502-0.213
				c-0.316-0.146-0.767-0.357-1.307-0.609c-1.095-0.477-2.499-1.223-3.898-1.977c-1.368-0.809-2.743-1.611-3.7-2.324
				c-0.489-0.342-0.896-0.627-1.182-0.824C151.651,239.195,151.495,239.072,151.495,239.072z"/>
		</g>
	</g>
	<path fill="#3D3D65" d="M222.976,138.756c0,0-4.6-7.985,2.826-13.429c7.427-5.443,3.482-13.801,3.616-21.326
		c0.07-3.994,5.477-17.572,21.918,2.475C267.776,126.523,233.061,144.333,222.976,138.756z"/>
	<path fill="#3D3D65" d="M77.979,158.283c0,0,26.076,3.184,12.755,24.58s30.905,61.982-10.175,58.266
		C39.479,237.414,56.486,173.939,77.979,158.283z"/>
</g>
</svg>
