<?xml version="1.0" encoding="utf-8"?>
<!-- Generator: Adobe Illustrator 16.0.0, SVG Export Plug-In . SVG Version: 6.00 Build 0)  -->
<!DOCTYPE svg PUBLIC "-//W3C//DTD SVG 1.1//EN" "http://www.w3.org/Graphics/SVG/1.1/DTD/svg11.dtd">
<svg version="1.1" id="Layer_1" xmlns="http://www.w3.org/2000/svg" xmlns:xlink="http://www.w3.org/1999/xlink" x="0px" y="0px"
	 width="314.754px" height="314.984px" viewBox="0 0 314.754 314.984" enable-background="new 0 0 314.754 314.984"
	 xml:space="preserve">
<g>
	<circle fill="#FFFFFF" cx="157.492" cy="157.492" r="157.492"/>
	<g>
		<g>
			<path fill="#3D3D65" d="M160.127,115.505c2.537,3.201,3.357,7.003,2.451,11.4l-22.759,110.399
				c-1.237,6.001-4.788,10.604-10.646,13.801c-6.26,3.196-11.659,3.196-16.199,0c-4.544-3.197-6.192-7.8-4.955-13.801
				l22.759-110.399c0.494-2.401,1.549-4.599,3.161-6.601c3.719-6.398,8.978-9.6,15.779-9.6
				C154.518,110.704,157.983,112.307,160.127,115.505z"/>
			<path fill="#3D3D65" d="M171.649,56.704c2.857,3.6,3.792,7.8,2.803,12.6l-0.495,2.4c-1.236,6-4.787,10.603-10.646,13.801
				c-6.261,3.201-11.661,3.201-16.199,0c-4.544-3.198-6.192-7.801-4.956-13.801l0.495-2.4c0.412-1.997,1.182-3.797,2.313-5.4
				c3.316-6.399,8.46-9.999,15.427-10.8C164.952,52.307,168.709,53.508,171.649,56.704z"/>
			<path fill="#3D3D65" d="M149.718,110.704c-10.767-1.712-33.482,17.904-40.77,25.372c-1.842,1.888-5.952,5.879-6.25,8.5
				c-0.113,0.996,0.421,3.841,1.42,3.75c7.333-0.667,23.461-17.533,33.083-14.083"/>
			<path fill="#3D3D65" d="M129.451,137.826c0-1.717-6.926-2.468-10.217,0.224c-3.76,3.076,11.55-10.558,11.55-10.558"/>
			<g>
				<path fill="#3D3D65" d="M118.641,253.396c10.768,1.712,33.482-17.904,40.77-25.372c1.842-1.887,5.953-5.879,6.25-8.5
					c0.113-0.996-0.42-3.84-1.42-3.75c-7.332,0.667-23.461,17.533-33.082,14.084"/>
				<path fill="#3D3D65" d="M138.908,226.274c0,1.717,6.926,2.469,10.217-0.224c3.76-3.075-11.551,10.558-11.551,10.558"/>
			</g>
		</g>
		<g>
			<path fill="#FDD139" d="M170.127,115.505c2.537,3.201,3.357,7.003,2.451,11.4l-22.759,110.399
				c-1.237,6.001-4.788,10.604-10.646,13.801c-6.26,3.196-11.659,3.196-16.199,0c-4.544-3.197-6.192-7.8-4.955-13.801
				l22.759-110.399c0.494-2.401,1.549-4.599,3.161-6.601c3.719-6.398,8.978-9.6,15.779-9.6
				C164.518,110.704,167.983,112.307,170.127,115.505z"/>
			<path fill="#FDD139" d="M181.649,56.704c2.857,3.6,3.792,7.8,2.803,12.6l-0.495,2.4c-1.236,6-4.787,10.603-10.646,13.801
				c-6.261,3.201-11.661,3.201-16.199,0c-4.544-3.198-6.192-7.801-4.956-13.801l0.495-2.4c0.412-1.997,1.182-3.797,2.313-5.4
				c3.316-6.399,8.46-9.999,15.427-10.8C174.952,52.307,178.709,53.508,181.649,56.704z"/>
			<path fill="#FDD139" d="M159.718,110.704c-10.767-1.712-33.482,17.904-40.77,25.372c-1.842,1.888-5.952,5.879-6.25,8.5
				c-0.113,0.996,0.421,3.841,1.42,3.75c7.333-0.667,23.461-17.533,33.083-14.083"/>
			<path fill="#FDD139" d="M139.451,137.826c0-1.717-6.926-2.468-10.217,0.224c-3.76,3.076,11.55-10.558,11.55-10.558"/>
			<g>
				<path fill="#FDD139" d="M128.641,253.396c10.768,1.712,33.482-17.904,40.77-25.372c1.842-1.887,5.953-5.879,6.25-8.5
					c0.113-0.996-0.42-3.84-1.42-3.75c-7.332,0.667-23.461,17.533-33.082,14.084"/>
				<path fill="#FDD139" d="M148.908,226.274c0,1.717,6.926,2.469,10.217-0.224c3.76-3.075-11.551,10.558-11.551,10.558"/>
			</g>
		</g>
	</g>
</g>
</svg>
