<?xml version="1.0" encoding="utf-8"?>
<!-- Generator: Adobe Illustrator 16.0.0, SVG Export Plug-In . SVG Version: 6.00 Build 0)  -->
<!DOCTYPE svg PUBLIC "-//W3C//DTD SVG 1.1//EN" "http://www.w3.org/Graphics/SVG/1.1/DTD/svg11.dtd">
<svg version="1.1" id="Layer_1" xmlns="http://www.w3.org/2000/svg" xmlns:xlink="http://www.w3.org/1999/xlink" x="0px" y="0px"
	 width="687.469px" height="64.496px" viewBox="782.586 218.091 687.469 64.496"
	 enable-background="new 782.586 218.091 687.469 64.496" xml:space="preserve">
<g>
	<g>
		<rect x="803.877" y="242.636" fill="#FFFFFF" width="674" height="16.333"/>
		<g>
			<g>
				<g>
					<g opacity="0.8">
						<g>
							<path fill="#FFFFFF" d="M1468.276,252.216l-0.001-0.01l-0.002-0.005l-0.001-0.002l-0.21-0.004l-1.873-0.019
								c-1.246-0.013-2.489-0.024-3.729-0.036c-2.478-0.021-4.94-0.043-7.393-0.065c-4.902-0.035-9.751-0.07-14.559-0.104
								c-9.612-0.037-19.056-0.074-28.403-0.111c-18.696-0.029-37.018,0.024-55.575,0.152c-57.615,0.195-109.585-1.38-170.224-1.864
								c-30.045-0.316-57.818-0.416-87.093-0.5c-58.937-0.958-123.73-1.631-190.632-1.647c-7.195-0.13-28.364-0.513-26.357,0.837
								c-24.64-0.337-48.989-0.671-73.148-1.002l-0.043,0.913l-0.021,0.475l-0.01,0.566l-0.01,1.021l-0.021,1.58l-0.019,0.502
								l-0.037,1.037l2.849,0.051l4.177,0.045c4.018,0.024,8.03,0.051,12.042,0.076c8.021,0.024,16.026,0.051,24.023,0.075
								c15.992,0.015,31.943-0.05,47.88-0.221c26.372-0.142,53.855,0.983,80.247,0.843c42.911-0.462,85.105,0.934,127.099,0.766
								c5.832-0.203,18.443-0.908,23.335-0.818c57.831,1.37,111.293-0.771,165.899-1.643c21.455-0.234,38.046-0.556,58.569-0.49
								c1.859-0.59,6.783-0.5,12.612-0.705c15.604-0.025,102.282,1.457,110.227,2.224c1.978,0.192-40.694,0.367-83.481,0.579
								c-21.396,0.128-42.817,0.257-58.703,0.352c-15.887,0.133-26.234,0.278-25.479,0.447c3.972,0.385,113.558-0.082,123.36,0.098
								c-409.725,6.828-213.398,4.832-88.594,2.363c19.47,0.119,47.149-0.9,84.905-0.975c-22.438,0.525-68.063,2.652-78.818,2.768
								c-49.676,0.963-42.013,1.805-98.701,1.703c-46.505-0.083-126.359,1.693-166.071,2.107
								c20.652-1.045,68.889-3.338,99.271-3.094c-66.11-1.209-74.982,2.813-143.872,2.49c-6.412,0.01-13.851,0.146-21.888,0.35
								c-7.664-0.141-14.908-0.271-23.992-0.438c-56.689-0.102-106.394,0.859-162.147,0.466c4.794-0.039,7.834,0.639,12.715,0.729
								c48.069,1.189,88.931-0.246,139.787,0.061c9.749,0.18,23.315-0.82,33.639-0.816c20.97-0.057,39.58,0.598,59.156,0.955
								c-38.938,0.847-84.903,0.632-126.917,0.798c-8.718,0.094-19.236,0.768-26.021,1.129c19.396,0.028,38.863,0.058,58.439,0.086
								c68.354-0.308,157.642-3.3,206.922-1.517c1.468-0.051,2.915-0.102,5.864-0.203c0.738,0.07,1.751,0.115,2.886,0.144
								c9.568-0.032,21.021,0.058,31.386,0.481l-26.434-0.125c-68.87,2.125-147.74,1.005-222.504,1.81
								c-16.564,0.32-44.052-0.805-60.639-0.485c-19.354,0.265-39.04,0.377-58.805,0.358c-9.882-0.04-19.783-0.08-29.672-0.12
								c-12.348-0.099-24.681-0.197-36.958-0.296c0.078-10.319,0.156-20.596,0.234-30.826c4.159,0.039,8.311,0.078,12.454,0.117
								c2.975,0.042,5.943,0.083,8.908,0.125c176.826,2.63,352.772,5.54,525.321,9.516c4.021-0.016,8.047-0.033,12.02-0.049
								c-1.754-0.138-3.459-0.271-5.158-0.404c3.763,0.13,7.534,0.261,11.274,0.391c22.178-0.024,43.975,0.173,65.562,0.93
								c8.841,0.474-15.636,0.026-22.419,0.525c4.903,0.091,9.804,0.181,9.804,0.181s-0.931,0.294-1.858,0.588
								c3.769-0.133,5.985,0.227,8.64,0.444c-48.124,0.002-96.534,0.005-145.203,0.007c5.567,0.803,19.988,0.663,26.823,0.787
								c16.12-0.174,32.211-0.348,46.915-0.078c20.466-0.08,41.292,0.239,61.938,0.63c19.474,0.358,38.776,0.712,57.396,1.054
								c0.338,0.059,0.642,0.119,0.896,0.181c-0.096,0.614-0.196,1.144-0.305,1.58c-0.054-0.298-0.107,1.706-0.166,2.92
								c-0.06,1.347-0.119,2.687-0.178,4.019c-0.194,3.643-0.464,2.655-0.694-0.789c-0.047-0.863-0.103-1.877-0.164-3.013
								c-0.022-0.567-0.048-1.164-0.072-1.787c-0.012-0.312-0.022-0.63-0.033-0.954c-0.003-0.056-0.006-0.218-0.009-0.188
								l-0.009-0.004l-0.016-0.008c-0.082-0.035-0.14,0.002-0.159,0.028C1468.243,252.273,1468.274,252.264,1468.276,252.216z
								 M865.725,239.685c13.438,0.393,26.485,0.916,40.08,1.428c4.799,0.064,9.557,0.127,14.356,0.191
								c5.936,0.107,12.31,0.085,18.912-0.02c25.606,0.514,51.086,1.024,76.675,1.538c-25.589-1.182-52.229-2.223-84.493-2.563
								c83.361,0.258,154.808,3.175,231.695,5.066c23.261,0.288,46.831,0.515,70.917,0.652c16.977,0.052,33.584-0.044,49.99-0.169
								c-80.181-1.31-159.789-2.97-239.548-4.572c-39.879-0.768-79.795-1.536-119.836-2.307c-20.021-0.34-40.075-0.682-60.17-1.024
								c-10.049-0.154-20.106-0.308-30.178-0.462c-5.035-0.072-10.074-0.145-15.115-0.217c-6.913-0.068-13.83-0.137-20.751-0.207
								c-0.07,9.216-0.141,18.493-0.211,27.777c22.519,0.222,45.117,0.444,67.803,0.667c20.734,0.145,41.549,0.287,62.442,0.432
								c-20.967-0.418-41.709-0.832-62.391-1.244c-10.343-0.191-20.667-0.383-30.998-0.572c-5.166-0.094-10.333-0.188-15.503-0.283
								c-6.684-0.096-13.37-0.189-20.065-0.286c0.104-8.323,0.205-16.664,0.31-25.103c6.502,0.1,13.021,0.199,19.562,0.299
								c5.125,0.104,10.264,0.207,15.418,0.311C844.933,239.237,855.299,239.46,865.725,239.685z M840.83,240.507
								c-13.234-0.052-26.399-0.104-39.236-0.154c-0.01,7.157-0.019,14.064-0.027,20.928c10.201-0.002,20.125-0.004,30.005-0.006
								c72.558,0.3,151.809,0.519,198.724-1.426c-63.936,0.689-130.215,1.332-198.724,1.426c26.896,0.109,34.667,0.113,28.366,0.07
								c-6.543-0.025-27.696-0.105-58.216-0.222c0.015-6.522,0.028-13.4,0.043-20.601c8.638,0.017,17.813,0.035,27.439,0.053
								C831.213,240.503,835.523,240.501,840.83,240.507z"/>
							<path fill="#FFFFFF" d="M1241.271,242.185c30.102,0.949,60.656,1.913,90.734,2.861c-11.451-0.906-21.532-1.746-34.999-2.464
								c-36.369-1.6-77.423-1.728-115.646-2.738c-109.823-2.943-224.342-4.412-341.666-4.999c-2.89-0.053-7.529-0.111-12.647-0.126
								c-2.56,0.004-5.239,0.009-7.879,0.014c-3.187,0.039-6.326,0.077-9.228,0.112c37.528,0.464,74.515,0.922,111.14,1.376
								c36.102,0.52,71.848,1.035,107.42,1.547C1099.645,238.901,1170.086,240.284,1241.271,242.185z"/>
							<path fill="#FFFFFF" d="M968.888,268.549c21.484-0.23,42.942-0.463,63.477-0.398c-18.656-0.653-44.104-0.807-64.61-0.869
								c-28.839,0.06-57.702,0.119-86.191,0.179C910.051,268.014,938.914,268.455,968.888,268.549z"/>
							<path fill="#FFFFFF" d="M809.942,234.844c-4.65-0.031-9.302-0.062-13.921-0.062l-0.154,18.623
								c-0.024,4.496-0.049,9-0.073,13.646c15.347,0.102,30.888,0.204,46.571,0.309c12.962,0.033,26.041,0.065,39.195,0.1
								c-12.984-0.268-25.903-0.534-38.828-0.801c-6.461-0.137-12.925-0.273-19.397-0.41c-3.236-0.066-6.476-0.134-9.718-0.2
								c-5.535-0.063-11.076-0.129-16.625-0.194c0.076-7.164,0.154-14.429,0.231-21.708c-0.354-0.067-0.614-3.281-0.805-8.966
								C799.723,235.024,804.491,234.917,809.942,234.844z"/>
						</g>
					</g>
				</g>
			</g>
		</g>
	</g>
</g>
</svg>
