<?xml version="1.0" encoding="utf-8"?>
<!-- Generator: Adobe Illustrator 16.0.0, SVG Export Plug-In . SVG Version: 6.00 Build 0)  -->
<!DOCTYPE svg PUBLIC "-//W3C//DTD SVG 1.1//EN" "http://www.w3.org/Graphics/SVG/1.1/DTD/svg11.dtd">
<svg version="1.1" id="Layer_1" xmlns="http://www.w3.org/2000/svg" xmlns:xlink="http://www.w3.org/1999/xlink" x="0px" y="0px"
	 width="707px" height="50px" viewBox="34.5 219.5 707 50" enable-background="new 34.5 219.5 707 50" xml:space="preserve">
<g>
	<g>
		<rect x="54.999" y="238.506" fill="#FFFFFF" width="674" height="16.333"/>
		<g>
			<g>
				<g>
					<g opacity="0.8">
						<g>
							<path fill="#FFFFFF" d="M61.272,228.926c10.599,0.084,20.937,0.166,31.093,0.246c9.613,0.037,19.056,0.074,28.404,0.11
								c18.696,0.03,37.016-0.024,55.575-0.153c57.615-0.195,109.585,1.38,170.224,1.865c30.044,0.316,57.818,0.416,87.092,0.5
								c58.937,0.958,123.73,1.631,190.632,1.647c7.196,0.13,28.364,0.513,26.359-0.837c13.194,0.178,26.312,0.355,39.365,0.531
								c6.527,0.083,13.038,0.166,19.534,0.249c3.248,0.039,6.493,0.077,9.734,0.115c4.977,0.036,9.947,0.072,14.914,0.107
								c-0.053,8.875-0.106,17.731-0.159,26.574c-9.736-0.058-19.451-0.113-29.148-0.172c-8.021-0.025-16.027-0.051-24.023-0.076
								c-15.993-0.015-31.944,0.051-47.88,0.221c-26.372,0.142-53.856-0.983-80.247-0.842c-42.911,0.461-85.105-0.934-127.098-0.767
								c-5.832,0.204-18.444,0.909-23.335,0.819c-57.831-1.37-111.293,0.771-165.9,1.643c-21.456,0.234-38.046,0.555-58.569,0.49
								c-1.86,0.59-6.783,0.5-12.612,0.705c-15.604,0.025-102.283-1.457-110.227-2.225c-1.976-0.191,40.695-0.367,83.483-0.578
								c21.394-0.129,42.816-0.258,58.703-0.353c15.886-0.132,26.234-0.278,25.479-0.446c-3.972-0.386-113.557,0.082-123.361-0.099
								c409.725-6.827,213.399-4.832,88.594-2.362c-19.47-0.119-47.15,0.899-84.906,0.975c22.438-0.525,68.064-2.652,78.819-2.769
								c49.674-0.963,42.011-1.805,98.701-1.702c46.505,0.082,126.359-1.693,166.071-2.107c-20.652,1.045-68.889,3.338-99.271,3.094
								c66.11,1.209,74.982-2.814,143.872-2.49c6.413-0.01,13.85-0.146,21.887-0.35c7.664,0.14,14.908,0.271,23.993,0.438
								c56.689,0.103,106.394-0.858,162.147-0.465c-4.794,0.039-7.834-0.639-12.715-0.729c-48.069-1.189-88.929,0.246-139.787-0.061
								c-9.749-0.181-23.314,0.819-33.639,0.815c-20.968,0.057-39.58-0.597-59.156-0.955c38.938-0.847,84.902-0.631,126.917-0.797
								c8.717-0.095,19.237-0.769,26.02-1.129c-19.395-0.028-38.863-0.058-58.439-0.087c-68.354,0.308-157.641,3.3-206.922,1.517
								c-1.467,0.052-2.915,0.103-5.864,0.204c-0.738-0.071-1.751-0.115-2.886-0.145c-9.568,0.033-21.02-0.057-31.385-0.481
								l26.433,0.125c68.87-2.125,147.74-1.004,222.503-1.81c16.564-0.319,44.052,0.806,60.639,0.486
								c19.354-0.265,39.04-0.377,58.804-0.359c9.882,0.041,19.782,0.08,29.672,0.121c4.943,0.041,9.885,0.084,14.819,0.127
								l3.698,0.039l1.557,0.02l0.415,0.021l1.743,0.088l0.055,0.408l0.027,0.18l0.008,0.041l0.007-0.428l0.015-1.021l0.016-1.021
								l0.004-0.255l0.001-0.127c0.001-0.033,0.001-0.004,0.002-0.009l0.007,0.037l0.03,0.138c0.021,0.085,0.042,0.158,0.062,0.218
								l-1.808-0.117l-0.479-0.03l-0.121-0.008l-0.262-0.008l-0.888-0.016l-3.548-0.064c-176.827-2.63-352.773-5.54-525.322-9.516
								c-4.021,0.016-8.047,0.033-12.019,0.049c1.754,0.138,3.459,0.271,5.159,0.404c-3.762-0.13-7.535-0.261-11.274-0.391
								c-22.177,0.024-43.975-0.173-65.562-0.93c-8.84-0.474,15.636-0.026,22.419-0.525c-4.904-0.091-9.804-0.181-9.804-0.181
								s0.931-0.294,1.86-0.588c-3.769,0.133-5.987-0.227-8.64-0.444c48.124-0.002,96.534-0.005,145.203-0.007
								c-5.568-0.803-19.989-0.663-26.823-0.787c-16.12,0.174-32.21,0.348-46.915,0.078c-20.465,0.08-41.292-0.239-61.938-0.63
								c-10.323-0.201-20.602-0.4-30.766-0.598c-5.083-0.088-10.137-0.175-15.155-0.261c-2.509-0.036-5.008-0.072-7.498-0.108
								c-3.647-0.029-7.279-0.059-10.895-0.087c-3.25-0.061-6.494-0.122-9.612-0.181c-0.103,5.028-0.204,10.004-0.305,14.928
								c-0.054,3.02-0.109,3.725-0.167,5.204c-0.06,1.347-0.119,2.687-0.178,4.019c-0.195,3.643-0.464,2.655-0.694-0.789
								c-0.047-0.863-0.102-1.877-0.164-3.013c-0.023-0.567-0.047-1.164-0.073-1.787c-0.011-0.312-0.022-0.63-0.034-0.954
								c-0.01-0.582-0.021-1.176-0.032-1.777c-0.082-5.327-0.14-11.414-0.16-17.634C50.661,228.868,56.099,228.878,61.272,228.926z
								 M667.151,241.457c-13.438-0.393-26.485-0.916-40.08-1.428c-4.797-0.064-9.557-0.127-14.356-0.191
								c-5.936-0.107-12.309-0.085-18.912,0.021c-25.607-0.514-51.087-1.024-76.675-1.538c25.588,1.182,52.228,2.223,84.493,2.563
								c-83.361-0.258-154.807-3.175-231.695-5.066c-23.261-0.288-46.831-0.515-70.917-0.652
								c-16.977-0.052-33.583,0.044-49.99,0.169c80.18,1.31,159.79,2.97,239.547,4.572c39.879,0.768,79.795,1.536,119.836,2.307
								c38.179,0.634,76.477,1.271,114.979,1.91l-0.054,0.694l-0.027,0.323l-0.006,0.078l-0.007,0.418l-0.013,1.021l-0.014,1.021
								l-0.006,0.442l-0.007,0.074l-0.026,0.287l-0.051,0.528l-3.056-0.096l-0.771-0.023l-1.931-0.021l-3.865-0.045
								c-5.155-0.059-10.313-0.116-15.479-0.174c-10.329-0.102-20.678-0.204-31.045-0.307c-20.735-0.145-41.55-0.287-62.443-0.433
								c40.405,0.804,79.944,1.592,119.879,2.388c0.103-0.623,0.205-6.466,0.31-7.563c-1.416-0.049-2.833-0.099-4.253-0.148
								l-1.104-0.037l-1.904-0.038l-3.841-0.076c-5.125-0.104-10.264-0.207-15.418-0.311
								C687.943,241.905,677.577,241.682,667.151,241.457z M692.046,240.635c11.693,0.052,23.326,0.104,34.669,0.154
								c-0.01,4.015-0.019,7.89-0.027,11.738c-8.631,0.002-17.024,0.003-25.383,0.005c-72.558-0.299-151.809-0.518-198.724,1.426
								c63.934-0.689,130.215-1.332,198.724-1.426c-26.896-0.109-34.667-0.113-28.367-0.069c6.059,0.025,25.646,0.105,53.905,0.222
								c0.015-3.82,0.028-7.849,0.043-12.065c-7.307-0.017-15.069-0.035-23.215-0.053
								C701.663,240.638,697.354,240.64,692.046,240.635z"/>
							<path fill="#FFFFFF" d="M291.604,238.957c-30.1-0.949-60.656-1.913-90.734-2.861c11.451,0.906,21.533,1.746,34.999,2.464
								c36.369,1.6,77.423,1.728,115.646,2.738c109.824,2.943,224.341,4.412,341.667,4.999c2.89,0.053,7.529,0.111,12.647,0.126
								c2.559-0.004,5.238-0.009,7.878-0.014c1.319-0.014,2.629-0.027,3.91-0.042c0.607-0.01,1.208-0.021,1.8-0.031
								c0.118-0.013,0.233-0.026,0.347-0.039c-36.458-0.464-72.388-0.922-107.968-1.376c-36.102-0.52-71.848-1.035-107.42-1.547
								C433.232,242.24,362.79,240.857,291.604,238.957z"/>
							<path fill="#FFFFFF" d="M563.988,245.259c-21.484,0.231-42.943,0.463-63.477,0.398c18.657,0.654,44.104,0.806,64.611,0.87
								c28.838-0.06,57.702-0.12,86.192-0.179C622.825,245.795,593.961,245.352,563.988,245.259z"/>
							<path fill="#FFFFFF" d="M719.763,246.297c0.45,0.031,0.9,0.063,1.382,0.063l-0.077-0.829l-0.02-0.226l-0.005-0.057
								l-0.001-0.012l-0.001,0.079l-0.002,0.159l-0.01,0.633l-0.021,1.267l-0.01,0.635c-0.001,0.161-0.003,0.062-0.005,0.061
								l-0.005-0.061c-0.024-0.412-0.048-0.826-0.073-1.254l-1.512-0.1c-3.172-0.028-6.354-0.057-9.544-0.084
								c-6.417-0.041-12.868-0.083-19.35-0.124c-12.962-0.033-26.042-0.066-39.195-0.1c12.983,0.268,25.902,0.535,38.826,0.8
								c6.462,0.138,12.926,0.273,19.398,0.41c3.237,0.066,6.476,0.135,9.718,0.201l2.855,0.193c0.04,0.087,0.079,0.138,0.118,0.152
								l0.007,0.002c0.003-0.014,0.005,0.06,0.007-0.125l0.015-0.768l0.029-1.534l0.007-0.384c0.001-0.092,0.002-0.059,0.004-0.065
								l0.003-0.001l0.015-0.006c0.01-0.005,0.019-0.013,0.027-0.022c-0.354,0.124-0.614,0.274-0.805,0.758
								C720.95,246.117,720.346,246.224,719.763,246.297z"/>
						</g>
					</g>
				</g>
			</g>
		</g>
	</g>
</g>
</svg>
