<?xml version="1.0" encoding="utf-8"?>
<!-- Generator: Adobe Illustrator 16.0.0, SVG Export Plug-In . SVG Version: 6.00 Build 0)  -->
<!DOCTYPE svg PUBLIC "-//W3C//DTD SVG 1.1//EN" "http://www.w3.org/Graphics/SVG/1.1/DTD/svg11.dtd">
<svg version="1.1" xmlns="http://www.w3.org/2000/svg" xmlns:xlink="http://www.w3.org/1999/xlink" x="0px" y="0px" width="1000px"
	 height="1000px" viewBox="0 0 1000 1000" enable-background="new 0 0 1000 1000" xml:space="preserve">
<g id="Single">
	<line fill="none" stroke="#3D3D65" stroke-width="3" stroke-miterlimit="10" x1="310.943" y1="713.483" x2="227" y2="723.5"/>
</g>
<g id="Right">
	<polyline fill="none" stroke="#3D3D65" stroke-width="3" stroke-miterlimit="10" points="462.112,538.791 534.358,656.992 
		536.67,661.334 514.461,859.811 519.919,869.255 601.75,834.75 605,833.25 658.504,929.251 659.584,925.663 691,811.663 
		682.998,714.999 605.666,830.997 605,833.25 658.503,929.001 657,929.663 845.863,802.143 896.268,759.608 945.362,586.961 
		911,377 912,379.5 945.036,584.556 945.362,586.961 861.572,515.09 856.979,509.503 839.765,479.735 829.946,472.868 
		909.948,369.795 912.941,371.33 898.948,241.605 894.674,245.241 840.02,178.55 807.487,157.673 676.224,179.909 666.54,187.723 
		626.025,112.484 	"/>
</g>
<g id="Below_center">
	<polyline fill="none" stroke="#3D3D65" stroke-width="3" stroke-miterlimit="10" points="541.014,668.241 603.776,728.815 
		615.253,731.255 676.939,716.442 683,712.997 693,809.663 775.488,769.056 835.948,771.028 859.131,739.396 722.847,560.431 
		727.15,551.105 853.752,519.545 860.826,523.131 788,685 747,734 697.024,808.255 697.024,816.504 793.858,876.457 
		797.804,872.453 767.778,775.977 762.526,766.562 688.417,718.594 681.961,706.041 637.13,551.105 640,550 541.356,659.572 
		529.896,663.61 460.498,684.164 369.582,659.956 363.88,576.84 358.553,562.164 254.188,442.348 230,438 244.812,628.987 
		265.216,637.141 356.401,571.46 369.582,563.929 413.964,529.768 	"/>
</g>
<g id="Top_Mid">
	<polyline fill="none" stroke="#3D3D65" stroke-width="3" stroke-miterlimit="10" points="252.1,134.97 268.444,133.016 
		389.755,94.014 444.818,86.662 604.136,80.564 636.031,86.662 807.487,141.893 804.618,199.536 752.973,304 769.83,395.813 
		812.867,439.604 797.804,472.205 640.358,439.604 627.807,446.381 550.877,543.229 555.181,548.796 714.669,553.236 
		716.971,546.445 637.13,446.381 637.13,433.112 670.844,388.64 662.953,318.346 642.005,291.599 630.011,277.184 580.106,201.786 
		577.609,187.787 592.301,127.906 563.968,110.69 461.036,194.831 447.673,199.128 387.873,249.486 385.99,247.065 409.929,114.457 
		413.964,113.515 272.845,279.253 269.486,280.297 261.632,142.96 256.07,142.96 152.128,274.678 	"/>
</g>
<g id="Left">
	<polyline fill="none" stroke="#3D3D65" stroke-width="3" stroke-miterlimit="10" points="120.919,108.772 59.88,349.987 
		65.63,356.004 160.85,409.263 163.679,413.505 130.852,487.375 127.765,495.606 107.108,579.585 116.108,644.082 132.334,755.332 
		133.333,756.333 178.95,869.62 176.72,881.838 156.931,944.003 164.347,952.802 255.802,952.802 258.223,947.769 186.135,877.295 
		186.135,872.722 255.802,845.823 316.592,810.317 396.749,709.448 363.88,704.607 325.468,709.448 313.902,704.607 
		265.216,642.203 253,627 282,553 284.584,549.379 384.667,425.333 377.113,420.636 313.275,356.645 302.502,341.869 
		377.113,257.299 	"/>
	<polyline fill="none" stroke="#3D3D65" stroke-width="3" stroke-miterlimit="10" points="408.245,884.848 417.801,738.113 
		426.252,710.22 482.435,843.288 506.09,867.572 408.924,881.254 399.17,881.838 316.592,848.244 298.301,865.041 269.251,947.769 
		269.666,945.666 312.333,826.332 283.776,797.406 133.333,756.333 133.667,756 191,725 213.134,683.823 245.641,638.436 168,413 
		164.5,412.25 130.773,487.5 128.398,489.125 61.326,358.963 60.5,352.75 157.993,335.561 172.291,299.068 269.475,286.947 
		272.845,293.587 302.502,350.798 287.673,363.671 250.822,402.807 222.717,400.624 178.004,322.193 147.359,293.926 
		123.172,110.045 263.999,139 377.113,249.486 387.873,262.136 440.056,312.429 432.345,363.671 389.755,420.636 376.037,425.387 
		249.603,432.594 250.167,432.667 376.25,425.438 387.873,429.598 440.056,519.545 462.112,502.32 485.285,451.371 491.162,439.604 
		568.092,287.738 563.968,279.253 461.036,201.786 454.824,204.837 457.93,309.739 503.037,322.797 572.082,201.786 
		582.911,194.833 691.812,199.536 800.334,163 775.567,179.909 643.586,279.253 626.025,283.582 570.998,282.505 527.58,367.711 
		627.192,436.376 	"/>
</g>
<g id="Layer_11">
	<circle fill="#3D3D65" cx="604.136" cy="80.564" r="61.328"/>
	<circle fill="#3D3D65" cx="420.151" cy="73.033" r="50.569"/>
	<circle fill="#3D3D65" cx="807.488" cy="164.052" r="40.785"/>
	<circle fill="#3D3D65" cx="720.236" cy="356.644" r="73.063"/>
	<circle fill="#3D3D65" cx="202.624" cy="722.889" r="38.915"/>
	<circle fill="#3D3D65" cx="115.042" cy="608.518" r="59.721"/>
	<circle fill="#3D3D65" cx="772.278" cy="709.021" r="43.448"/>
	<path fill="#3D3D65" d="M576.657,509.327c0,48.477-39.298,87.769-87.771,87.769c-48.476,0-87.771-39.292-87.771-87.769
		c0-48.475,39.296-87.771,87.771-87.771C537.359,421.556,576.657,460.853,576.657,509.327z"/>
	<circle fill="#3D3D65" cx="409.391" cy="690.324" r="60.715"/>
	<circle fill="#3D3D65" cx="453.525" cy="327.571" r="59.833"/>
	<circle fill="#3D3D65" cx="302.501" cy="350.799" r="25.403"/>
	<circle fill="#3D3D65" cx="229.758" cy="425.388" r="43.086"/>
	<circle fill="#3D3D65" cx="830.473" cy="465.218" r="39.831"/>
</g>
<g id="Blue_Balls">
	<path fill="#3D3D65" d="M487.572,436.376c-5.528,0-10.006,4.479-10.006,10.005c0,5.527,4.478,10.006,10.006,10.006
		c5.526,0,10.005-4.479,10.005-10.006C497.577,440.854,493.099,436.376,487.572,436.376z M487.44,451.817
		c-3.005,0-5.437-2.433-5.437-5.435c0-3.004,2.432-5.438,5.437-5.438c3.001,0,5.433,2.434,5.433,5.438
		C492.873,449.384,490.441,451.817,487.44,451.817z"/>
	<g id="XMLID_5_">
		<g>
			<path fill="#FFFFFF" d="M571.95,277.07c3,0,5.43,2.43,5.43,5.44c0,3-2.43,5.43-5.43,5.43s-5.431-2.43-5.431-5.43
				C566.52,279.5,568.95,277.07,571.95,277.07z"/>
			<path fill="#3D3D65" d="M572.08,272.5c5.53,0,10.01,4.48,10.01,10.01c0,5.52-4.479,10-10.01,10c-5.521,0-10-4.48-10-10
				C562.08,276.98,566.56,272.5,572.08,272.5z M577.38,282.51c0-3.01-2.43-5.44-5.43-5.44s-5.431,2.43-5.431,5.44
				c0,3,2.431,5.43,5.431,5.43S577.38,285.51,577.38,282.51z"/>
		</g>
		<g>
		</g>
	</g>
	<g id="XMLID_38_">
		<g>
			<path fill="#3D3D65" d="M527.219,358.656c5.53,0,10.01,4.48,10.01,10.01c0,5.52-4.479,10-10.01,10c-5.521,0-10-4.48-10-10
				C517.219,363.136,521.698,358.656,527.219,358.656z M532.519,368.666c0-3.01-2.43-5.44-5.43-5.44s-5.431,2.43-5.431,5.44
				c0,3,2.431,5.43,5.431,5.43S532.519,371.666,532.519,368.666z"/>
			<path fill="#FFFFFF" d="M527.089,363.226c3,0,5.43,2.43,5.43,5.44c0,3-2.43,5.43-5.43,5.43s-5.431-2.43-5.431-5.43
				C521.658,365.656,524.089,363.226,527.089,363.226z"/>
		</g>
		<g>
		</g>
	</g>
	<g id="XMLID_6_">
		<g>
			<path fill="#FFFFFF" d="M635.9,278.15c3,0,5.43,2.43,5.43,5.43s-2.43,5.44-5.43,5.44c-3.011,0-5.44-2.44-5.44-5.44
				S632.89,278.15,635.9,278.15z"/>
			<path fill="#3D3D65" d="M636.03,273.58c5.529,0,10.01,4.47,10.01,10c0,5.53-4.48,10.01-10.01,10.01c-5.53,0-10-4.48-10-10.01
				C626.03,278.05,630.5,273.58,636.03,273.58z M641.33,283.58c0-3-2.43-5.43-5.43-5.43c-3.011,0-5.44,2.43-5.44,5.43
				s2.43,5.44,5.44,5.44C638.9,289.02,641.33,286.58,641.33,283.58z"/>
		</g>
		<g>
		</g>
	</g>
	<g id="XMLID_4_">
		<g>
			<path fill="#FFFFFF" d="M577.48,189.4c3,0,5.43,2.43,5.43,5.43s-2.43,5.44-5.43,5.44c-3.011,0-5.44-2.44-5.44-5.44
				S574.47,189.4,577.48,189.4z"/>
			<path fill="#3D3D65" d="M577.61,184.83c5.529,0,10.01,4.47,10.01,10c0,5.53-4.48,10.01-10.01,10.01
				c-5.53,0-10.011-4.48-10.011-10.01C567.6,189.3,572.08,184.83,577.61,184.83z M582.91,194.83c0-3-2.43-5.43-5.43-5.43
				c-3.011,0-5.44,2.43-5.44,5.43s2.43,5.44,5.44,5.44C580.48,200.27,582.91,197.83,582.91,194.83z"/>
		</g>
		<g>
		</g>
	</g>
	<g id="XMLID_3_">
		<g>
			<path fill="#FFFFFF" d="M454.69,192.36c3,0,5.44,2.43,5.44,5.43c0,3.01-2.44,5.44-5.44,5.44s-5.43-2.43-5.43-5.44
				C449.26,194.79,451.69,192.36,454.69,192.36z"/>
			<path fill="#3D3D65" d="M454.82,187.79c5.53,0,10.01,4.48,10.01,10c0,5.53-4.48,10.01-10.01,10.01c-5.52,0-10-4.48-10-10.01
				C444.82,192.27,449.3,187.79,454.82,187.79z M460.13,197.79c0-3-2.44-5.43-5.44-5.43s-5.43,2.43-5.43,5.43
				c0,3.01,2.43,5.44,5.43,5.44S460.13,200.8,460.13,197.79z"/>
		</g>
		<g>
		</g>
	</g>
	<g id="XMLID_8_">
		<g>
			<path fill="#3D3D65" d="M269.62,275.73c5.52,0,10,4.48,10,10c0,5.53-4.48,10.01-10,10.01c-5.53,0-10.01-4.48-10.01-10.01
				C259.61,280.21,264.09,275.73,269.62,275.73z M274.92,285.73c0-3-2.43-5.43-5.43-5.43c-3.01,0-5.44,2.43-5.44,5.43
				c0,3.01,2.43,5.44,5.44,5.44C272.49,291.17,274.92,288.74,274.92,285.73z"/>
			<path fill="#FFFFFF" d="M269.49,280.3c3,0,5.43,2.43,5.43,5.43c0,3.01-2.43,5.44-5.43,5.44c-3.01,0-5.44-2.43-5.44-5.44
				C264.05,282.73,266.48,280.3,269.49,280.3z"/>
		</g>
		<g>
		</g>
	</g>
	<g id="XMLID_7_">
		<g>
			<path fill="#FFFFFF" d="M381.61,248.81c3,0,5.43,2.43,5.43,5.43s-2.43,5.44-5.43,5.44c-3.01,0-5.44-2.44-5.44-5.44
				S378.6,248.81,381.61,248.81z"/>
			<path fill="#3D3D65" d="M381.74,244.24c5.53,0,10,4.47,10,10c0,5.53-4.47,10.01-10,10.01c-5.53,0-10.01-4.48-10.01-10.01
				C371.73,248.71,376.21,244.24,381.74,244.24z M387.04,254.24c0-3-2.43-5.43-5.43-5.43c-3.01,0-5.44,2.43-5.44,5.43
				s2.43,5.44,5.44,5.44C384.61,259.68,387.04,257.24,387.04,254.24z"/>
		</g>
		<g>
		</g>
	</g>
	<g id="XMLID_2_">
		<g>
			<path fill="#3D3D65" d="M261.76,127.52c5.53,0,10.01,4.48,10.01,10c0,5.53-4.48,10.01-10.01,10.01c-5.52,0-10-4.48-10-10.01
				C251.76,132,256.24,127.52,261.76,127.52z M267.06,137.53c0-3.01-2.43-5.44-5.43-5.44s-5.43,2.43-5.43,5.44
				c0,3,2.43,5.43,5.43,5.43S267.06,140.53,267.06,137.53z"/>
			<path fill="#FFFFFF" d="M261.63,132.09c3,0,5.43,2.43,5.43,5.44c0,3-2.43,5.43-5.43,5.43s-5.43-2.43-5.43-5.43
				C256.2,134.52,258.63,132.09,261.63,132.09z"/>
		</g>
		<g>
		</g>
	</g>
	<g id="XMLID_10_">
		<g>
			<path fill="#FFFFFF" d="M167.87,405.19c3,0,5.43,2.44,5.43,5.44s-2.43,5.44-5.43,5.44c-3.01,0-5.44-2.44-5.44-5.44
				S164.86,405.19,167.87,405.19z"/>
			<path fill="#3D3D65" d="M168,400.62c5.53,0,10,4.48,10,10.01c0,5.53-4.47,10.01-10,10.01s-10.01-4.48-10.01-10.01
				C157.99,405.1,162.47,400.62,168,400.62z M173.3,410.63c0-3-2.43-5.44-5.43-5.44c-3.01,0-5.44,2.44-5.44,5.44
				s2.43,5.44,5.44,5.44C170.87,416.07,173.3,413.63,173.3,410.63z"/>
		</g>
		<g>
		</g>
	</g>
	<g id="XMLID_9_">
		<g>
			<path fill="#FFFFFF" d="M59.49,346.44c3,0,5.44,2.43,5.44,5.44c0,3-2.44,5.43-5.44,5.43s-5.43-2.43-5.43-5.43
				C54.06,348.87,56.49,346.44,59.49,346.44z"/>
			<path fill="#3D3D65" d="M59.62,341.87c5.53,0,10.01,4.48,10.01,10c0,5.53-4.48,10.01-10.01,10.01c-5.52,0-10-4.48-10-10.01
				C49.62,346.35,54.1,341.87,59.62,341.87z M64.93,351.88c0-3.01-2.44-5.44-5.44-5.44s-5.43,2.43-5.43,5.44
				c0,3,2.43,5.43,5.43,5.43S64.93,354.88,64.93,351.88z"/>
		</g>
		<g>
		</g>
	</g>
	<g id="XMLID_11_">
		<g>
			<path fill="#3D3D65" d="M129.43,478c5.53,0,10,4.48,10,10.01c0,5.53-4.47,10.01-10,10.01c-5.53,0-10.01-4.48-10.01-10.01
				C119.42,482.48,123.9,478,129.43,478z M134.73,488.01c0-3-2.43-5.44-5.43-5.44c-3.01,0-5.44,2.44-5.44,5.44s2.43,5.44,5.44,5.44
				C132.3,493.45,134.73,491.01,134.73,488.01z"/>
			<path fill="#FFFFFF" d="M129.3,482.57c3,0,5.43,2.44,5.43,5.44s-2.43,5.44-5.43,5.44c-3.01,0-5.44-2.44-5.44-5.44
				S126.29,482.57,129.3,482.57z"/>
		</g>
		<g>
		</g>
	</g>
	<g id="XMLID_12_">
		<g>
			<path fill="#3D3D65" d="M285.13,540.55c5.53,0,10,4.48,10,10.011c0,5.529-4.47,10.01-10,10.01c-5.53,0-10.01-4.48-10.01-10.01
				C275.12,545.03,279.6,540.55,285.13,540.55z M290.43,550.561c0-3-2.43-5.44-5.43-5.44c-3.01,0-5.44,2.44-5.44,5.44
				S281.99,556,285,556C288,556,290.43,553.561,290.43,550.561z"/>
			<path fill="#FFFFFF" d="M285,545.12c3,0,5.43,2.44,5.43,5.44S288,556,285,556c-3.01,0-5.44-2.439-5.44-5.439
				S281.99,545.12,285,545.12z"/>
		</g>
		<g>
		</g>
	</g>
	<g id="XMLID_13_">
		<g>
			<path fill="#FFFFFF" d="M383.76,419.95c3,0,5.43,2.43,5.43,5.44c0,3-2.43,5.43-5.43,5.43c-3.01,0-5.44-2.43-5.44-5.43
				C378.32,422.38,380.75,419.95,383.76,419.95z"/>
			<path fill="#3D3D65" d="M383.89,415.38c5.53,0,10.01,4.48,10.01,10.01c0,5.52-4.48,10-10.01,10c-5.53,0-10-4.48-10-10
				C373.89,419.86,378.36,415.38,383.89,415.38z M389.19,425.39c0-3.01-2.43-5.44-5.43-5.44c-3.01,0-5.44,2.43-5.44,5.44
				c0,3,2.43,5.43,5.44,5.43C386.76,430.82,389.19,428.39,389.19,425.39z"/>
		</g>
		<g>
		</g>
	</g>
	<g id="XMLID_14_">
		<g>
			<path fill="#3D3D65" d="M363.88,558.94c5.53,0,10.01,4.479,10.01,10c0,5.529-4.48,10.01-10.01,10.01
				c-5.53,0-10.01-4.48-10.01-10.01C353.87,563.42,358.35,558.94,363.88,558.94z M369.18,568.94c0-3-2.43-5.431-5.43-5.431
				c-3.01,0-5.44,2.431-5.44,5.431c0,3.01,2.43,5.439,5.44,5.439C366.75,574.38,369.18,571.95,369.18,568.94z"/>
			<path fill="#FFFFFF" d="M363.75,563.51c3,0,5.43,2.431,5.43,5.431c0,3.01-2.43,5.439-5.43,5.439c-3.01,0-5.44-2.43-5.44-5.439
				C358.31,565.94,360.74,563.51,363.75,563.51z"/>
		</g>
		<g>
		</g>
	</g>
	<g id="XMLID_16_">
		<g>
			<path fill="#FFFFFF" d="M537.46,656.02c3,0,5.43,2.44,5.43,5.44s-2.43,5.43-5.43,5.43c-3.01,0-5.44-2.43-5.44-5.43
				S534.45,656.02,537.46,656.02z"/>
			<path fill="#3D3D65" d="M537.59,651.45c5.521,0,10,4.479,10,10.01s-4.479,10-10,10c-5.53,0-10.01-4.47-10.01-10
				S532.06,651.45,537.59,651.45z M542.89,661.46c0-3-2.43-5.44-5.43-5.44c-3.01,0-5.44,2.44-5.44,5.44s2.431,5.43,5.44,5.43
				C540.46,666.89,542.89,664.46,542.89,661.46z"/>
		</g>
		<g>
		</g>
	</g>
	<path fill="#3D3D65" d="M547.591,538.791c-5.527,0-10.006,4.479-10.006,10.006c0,5.527,4.479,10.005,10.006,10.005
		s10.005-4.478,10.005-10.005C557.596,543.271,553.118,538.791,547.591,538.791z M547.46,554.232c-3.005,0-5.437-2.433-5.437-5.435
		c0-3.004,2.432-5.438,5.437-5.438c3.001,0,5.433,2.434,5.433,5.438C552.893,551.8,550.461,554.232,547.46,554.232z"/>
	<g id="XMLID_15_">
		<g>
			<path fill="#FFFFFF" d="M632.63,434.17c3,0,5.43,2.43,5.43,5.44c0,3-2.43,5.43-5.43,5.43c-3.01,0-5.439-2.43-5.439-5.43
				C627.19,436.6,629.62,434.17,632.63,434.17z"/>
			<path fill="#3D3D65" d="M632.76,429.6c5.53,0,10.01,4.48,10.01,10c0,5.53-4.479,10.01-10.01,10.01
				c-5.529,0-10.01-4.48-10.01-10.01C622.75,434.08,627.23,429.6,632.76,429.6z M638.06,439.61c0-3.01-2.43-5.44-5.43-5.44
				c-3.01,0-5.439,2.43-5.439,5.44c0,3,2.43,5.43,5.439,5.43C635.63,445.04,638.06,442.61,638.06,439.61z"/>
		</g>
		<g>
		</g>
	</g>
	<g id="XMLID_17_">
		<g>
			<path fill="#FFFFFF" d="M720.11,547.8c3,0,5.43,2.431,5.43,5.44c0,3-2.43,5.43-5.43,5.43c-3.011,0-5.44-2.43-5.44-5.43
				C714.67,550.23,717.1,547.8,720.11,547.8z"/>
			<path fill="#3D3D65" d="M720.24,543.23c5.52,0,10,4.479,10,10.01c0,5.52-4.48,10-10,10c-5.53,0-10.01-4.48-10.01-10
				C710.23,547.71,714.71,543.23,720.24,543.23z M725.54,553.24c0-3.01-2.43-5.44-5.43-5.44c-3.011,0-5.44,2.431-5.44,5.44
				c0,3,2.43,5.43,5.44,5.43C723.11,558.67,725.54,556.24,725.54,553.24z"/>
		</g>
		<g>
		</g>
	</g>
	<g id="XMLID_18_">
		<g>
			<path fill="#FFFFFF" d="M860.7,510.69c3,0,5.43,2.439,5.43,5.439s-2.43,5.44-5.43,5.44c-3.01,0-5.44-2.44-5.44-5.44
				S857.69,510.69,860.7,510.69z"/>
			<path fill="#3D3D65" d="M860.83,506.12c5.52,0,10,4.479,10,10.01s-4.48,10-10,10c-5.53,0-10.01-4.47-10.01-10
				S855.3,506.12,860.83,506.12z M866.13,516.13c0-3-2.43-5.439-5.43-5.439c-3.01,0-5.44,2.439-5.44,5.439s2.431,5.44,5.44,5.44
				C863.7,521.57,866.13,519.13,866.13,516.13z"/>
		</g>
		<g>
		</g>
	</g>
	<g id="XMLID_20_">
		<g>
			<path fill="#FFFFFF" d="M608.31,728.3c3,0,5.431,2.44,5.431,5.44s-2.431,5.43-5.431,5.43c-3.01,0-5.439-2.43-5.439-5.43
				S605.3,728.3,608.31,728.3z"/>
			<path fill="#3D3D65" d="M608.44,723.73c5.529,0,10,4.479,10,10.01c0,5.529-4.471,10-10,10c-5.53,0-10.011-4.471-10.011-10
				C598.43,728.21,602.91,723.73,608.44,723.73z M613.74,733.74c0-3-2.431-5.44-5.431-5.44c-3.01,0-5.439,2.44-5.439,5.44
				s2.43,5.43,5.439,5.43C611.31,739.17,613.74,736.74,613.74,733.74z"/>
		</g>
		<g>
		</g>
	</g>
	<g id="XMLID_34_">
		<g>
			<path fill="#3D3D65" d="M603.716,824.006c5.529,0,10,4.479,10,10.01c0,5.529-4.471,10-10,10c-5.53,0-10.011-4.471-10.011-10
				C593.705,828.485,598.186,824.006,603.716,824.006z M609.016,834.016c0-3-2.431-5.44-5.431-5.44c-3.01,0-5.439,2.44-5.439,5.44
				s2.43,5.43,5.439,5.43C606.585,839.445,609.016,837.016,609.016,834.016z"/>
			<path fill="#FFFFFF" d="M603.585,828.575c3,0,5.431,2.44,5.431,5.44s-2.431,5.43-5.431,5.43c-3.01,0-5.439-2.43-5.439-5.43
				S600.575,828.575,603.585,828.575z"/>
		</g>
		<g>
		</g>
	</g>
	<g id="XMLID_23_">
		<g>
			<path fill="#FFFFFF" d="M690.53,806.71c3,0,5.43,2.44,5.43,5.44s-2.43,5.43-5.43,5.43s-5.431-2.43-5.431-5.43
				S687.53,806.71,690.53,806.71z"/>
			<path fill="#3D3D65" d="M690.66,802.14c5.53,0,10.01,4.48,10.01,10.011c0,5.529-4.479,10-10.01,10c-5.521,0-10-4.471-10-10
				C680.66,806.62,685.14,802.14,690.66,802.14z M695.96,812.15c0-3-2.43-5.44-5.43-5.44s-5.431,2.44-5.431,5.44
				s2.431,5.43,5.431,5.43S695.96,815.15,695.96,812.15z"/>
		</g>
		<g>
		</g>
	</g>
	<g id="XMLID_25_">
		<g>
			<path fill="#FFFFFF" d="M800.52,874.25c3,0,5.431,2.43,5.431,5.44c0,3-2.431,5.43-5.431,5.43c-3.01,0-5.439-2.43-5.439-5.43
				C795.08,876.68,797.51,874.25,800.52,874.25z"/>
			<path fill="#3D3D65" d="M800.65,869.68c5.52,0,10,4.48,10,10.011c0,5.52-4.48,10-10,10c-5.53,0-10.011-4.48-10.011-10
				C790.64,874.16,795.12,869.68,800.65,869.68z M805.95,879.69c0-3.011-2.431-5.44-5.431-5.44c-3.01,0-5.439,2.43-5.439,5.44
				c0,3,2.43,5.43,5.439,5.43C803.52,885.12,805.95,882.69,805.95,879.69z"/>
		</g>
		<g>
		</g>
	</g>
	<g id="XMLID_24_">
		<g>
			<path fill="#3D3D65" d="M657.153,919.069c5.53,0,10,4.48,10,10c0,5.53-4.47,10.01-10,10.01s-10.01-4.479-10.01-10.01
				C647.144,923.55,651.623,919.069,657.153,919.069z M662.453,929.069c0-3-2.43-5.43-5.43-5.43c-3.01,0-5.44,2.43-5.44,5.43
				c0,3.01,2.431,5.44,5.44,5.44C660.023,934.51,662.453,932.079,662.453,929.069z"/>
			<path fill="#FFFFFF" d="M657.023,923.64c3,0,5.43,2.43,5.43,5.43c0,3.01-2.43,5.44-5.43,5.44c-3.01,0-5.44-2.431-5.44-5.44
				C651.583,926.069,654.014,923.64,657.023,923.64z"/>
		</g>
		<g>
		</g>
	</g>
	<g id="XMLID_27_">
		<g>
			<path fill="#FFFFFF" d="M407.11,876.4c3,0,5.43,2.43,5.43,5.439c0,3-2.43,5.43-5.43,5.43c-3.01,0-5.44-2.43-5.44-5.43
				C401.67,878.83,404.1,876.4,407.11,876.4z"/>
			<path fill="#3D3D65" d="M407.24,871.83c5.53,0,10,4.479,10,10.01c0,5.521-4.47,10-10,10c-5.53,0-10.01-4.479-10.01-10
				C397.23,876.31,401.71,871.83,407.24,871.83z M412.54,881.84c0-3.01-2.43-5.439-5.43-5.439c-3.01,0-5.44,2.43-5.44,5.439
				c0,3,2.43,5.43,5.44,5.43C410.11,887.27,412.54,884.84,412.54,881.84z"/>
		</g>
		<g>
		</g>
	</g>
	<g id="XMLID_32_">
		<g>
			<path fill="#3D3D65" d="M317.9,701.37c5.53,0,10,4.479,10,10.01c0,5.521-4.47,10-10,10c-5.53,0-10.01-4.479-10.01-10
				C307.89,705.85,312.37,701.37,317.9,701.37z M323.2,711.38c0-3.01-2.43-5.439-5.43-5.439c-3.01,0-5.44,2.43-5.44,5.439
				c0,3,2.43,5.43,5.44,5.43C320.77,716.81,323.2,714.38,323.2,711.38z"/>
			<path fill="#FFFFFF" d="M317.77,705.94c3,0,5.43,2.43,5.43,5.439c0,3-2.43,5.43-5.43,5.43c-3.01,0-5.44-2.43-5.44-5.43
				C312.33,708.37,314.76,705.94,317.77,705.94z"/>
		</g>
		<g>
		</g>
	</g>
	<g id="XMLID_31_">
		<g>
			<path fill="#3D3D65" d="M133.67,746.567c5.53,0,10.01,4.479,10.01,10.01s-4.48,10-10.01,10c-5.52,0-10-4.47-10-10
				S128.15,746.567,133.67,746.567z M138.98,756.577c0-3-2.44-5.439-5.44-5.439s-5.43,2.439-5.43,5.439s2.43,5.44,5.43,5.44
				S138.98,759.577,138.98,756.577z"/>
			<path fill="#FFFFFF" d="M133.54,751.138c3,0,5.44,2.439,5.44,5.439s-2.44,5.44-5.44,5.44s-5.43-2.44-5.43-5.44
				S130.54,751.138,133.54,751.138z"/>
		</g>
		<g>
		</g>
	</g>
	<g id="XMLID_30_">
		<g>
			<path fill="#FFFFFF" d="M178.95,869.62c3,0,5.43,2.439,5.43,5.439s-2.43,5.44-5.43,5.44c-3.01,0-5.44-2.44-5.44-5.44
				S175.94,869.62,178.95,869.62z"/>
			<path fill="#3D3D65" d="M179.08,865.05c5.53,0,10,4.48,10,10.01c0,5.53-4.47,10-10,10c-5.53,0-10.01-4.47-10.01-10
				C169.07,869.53,173.55,865.05,179.08,865.05z M184.38,875.06c0-3-2.43-5.439-5.43-5.439c-3.01,0-5.44,2.439-5.44,5.439
				s2.43,5.44,5.44,5.44C181.95,880.5,184.38,878.06,184.38,875.06z"/>
		</g>
		<g>
		</g>
	</g>
	<g id="XMLID_28_">
		<g>
			<path fill="#FFFFFF" d="M263.57,947.37c3,0,5.43,2.43,5.43,5.43s-2.43,5.44-5.43,5.44s-5.43-2.44-5.43-5.44
				S260.57,947.37,263.57,947.37z"/>
			<path fill="#3D3D65" d="M263.7,942.79c5.53,0,10.01,4.479,10.01,10.01s-4.48,10.01-10.01,10.01c-5.52,0-10-4.479-10-10.01
				S258.18,942.79,263.7,942.79z M269,952.8c0-3-2.43-5.43-5.43-5.43s-5.43,2.43-5.43,5.43s2.43,5.44,5.43,5.44S269,955.8,269,952.8
				z"/>
		</g>
		<g>
		</g>
	</g>
	<g id="XMLID_29_">
		<g>
			<path fill="#FFFFFF" d="M156.8,946.29c3,0,5.43,2.43,5.43,5.44c0,3-2.43,5.43-5.43,5.43s-5.44-2.43-5.44-5.43
				C151.36,948.72,153.8,946.29,156.8,946.29z"/>
			<path fill="#3D3D65" d="M156.93,941.72c5.53,0,10.01,4.48,10.01,10.011c0,5.52-4.48,10-10.01,10c-5.53,0-10-4.48-10-10
				C146.93,946.2,151.4,941.72,156.93,941.72z M162.23,951.73c0-3.011-2.43-5.44-5.43-5.44s-5.44,2.43-5.44,5.44
				c0,3,2.44,5.43,5.44,5.43S162.23,954.73,162.23,951.73z"/>
		</g>
		<g>
		</g>
	</g>
	<g id="XMLID_19_">
		<g>
			<path fill="#FFFFFF" d="M946.3,579.21c3,0,5.44,2.44,5.44,5.44s-2.44,5.43-5.44,5.43s-5.43-2.43-5.43-5.43
				S943.3,579.21,946.3,579.21z"/>
			<path fill="#3D3D65" d="M946.44,574.64c5.52,0,10,4.48,10,10.011c0,5.529-4.48,10-10,10c-5.53,0-10.011-4.471-10.011-10
				C936.43,579.12,940.91,574.64,946.44,574.64z M951.74,584.65c0-3-2.44-5.44-5.44-5.44s-5.43,2.44-5.43,5.44s2.43,5.43,5.43,5.43
				S951.74,587.65,951.74,584.65z"/>
		</g>
		<g>
		</g>
	</g>
	<g id="XMLID_1_">
		<g>
			<path fill="#3D3D65" d="M122.12,98.89c5.52,0,10,4.48,10,10.01c0,5.52-4.48,10-10,10c-5.53,0-10.01-4.48-10.01-10
				C112.11,103.37,116.59,98.89,122.12,98.89z M127.42,108.9c0-3-2.43-5.44-5.43-5.44c-3.01,0-5.44,2.44-5.44,5.44
				s2.43,5.43,5.44,5.43C124.99,114.33,127.42,111.9,127.42,108.9z"/>
			<path fill="#FFFFFF" d="M121.99,103.46c3,0,5.43,2.44,5.43,5.44s-2.43,5.43-5.43,5.43c-3.01,0-5.44-2.43-5.44-5.43
				S118.98,103.46,121.99,103.46z"/>
		</g>
		<g>
		</g>
	</g>
	<g id="XMLID_35_">
		<g>
			<path fill="#3D3D65" d="M899.2,235.663c5.52,0,10,4.48,10,10.01c0,5.52-4.48,10-10,10c-5.53,0-10.01-4.48-10.01-10
				C889.19,240.143,893.67,235.663,899.2,235.663z M904.5,245.673c0-3-2.43-5.44-5.43-5.44c-3.01,0-5.44,2.44-5.44,5.44
				s2.431,5.43,5.44,5.43C902.07,251.103,904.5,248.673,904.5,245.673z"/>
			<path fill="#FFFFFF" d="M899.07,240.233c3,0,5.43,2.44,5.43,5.44s-2.43,5.43-5.43,5.43c-3.01,0-5.44-2.43-5.44-5.43
				S896.061,240.233,899.07,240.233z"/>
		</g>
		<g>
		</g>
	</g>
	<g id="XMLID_22_">
		<g>
			<path fill="#FFFFFF" d="M766.57,762.83c3,0,5.43,2.43,5.43,5.43c0,3.01-2.43,5.44-5.43,5.44s-5.431-2.431-5.431-5.44
				C761.14,765.26,763.57,762.83,766.57,762.83z"/>
			<path fill="#3D3D65" d="M766.7,758.26c5.53,0,10.01,4.48,10.01,10c0,5.53-4.479,10.01-10.01,10.01c-5.521,0-10-4.479-10-10.01
				C756.7,762.74,761.18,758.26,766.7,758.26z M772,768.26c0-3-2.43-5.43-5.43-5.43s-5.431,2.43-5.431,5.43
				c0,3.01,2.431,5.44,5.431,5.44S772,771.27,772,768.26z"/>
		</g>
		<g>
		</g>
	</g>
	<g id="XMLID_21_">
		<g>
			<path fill="#FFFFFF" d="M683.75,708.09c3.01,0,5.44,2.43,5.44,5.44c0,3-2.431,5.43-5.44,5.43c-3,0-5.43-2.43-5.43-5.43
				C678.32,710.52,680.75,708.09,683.75,708.09z"/>
			<path fill="#3D3D65" d="M683.89,703.52c5.521,0,10,4.48,10,10.011c0,5.52-4.479,10-10,10c-5.529,0-10.01-4.48-10.01-10
				C673.88,708,678.36,703.52,683.89,703.52z M689.19,713.53c0-3.011-2.431-5.44-5.44-5.44c-3,0-5.43,2.43-5.43,5.44
				c0,3,2.43,5.43,5.43,5.43C686.76,718.96,689.19,716.53,689.19,713.53z"/>
		</g>
		<g>
		</g>
	</g>
	<g id="XMLID_36_">
		<g>
			<path fill="#3D3D65" d="M637.938,541.545c5.521,0,10,4.48,10,10.011c0,5.52-4.479,10-10,10c-5.529,0-10.01-4.48-10.01-10
				C627.928,546.025,632.408,541.545,637.938,541.545z M643.238,551.556c0-3.011-2.431-5.44-5.44-5.44c-3,0-5.43,2.43-5.43,5.44
				c0,3,2.43,5.43,5.43,5.43C640.808,556.985,643.238,554.556,643.238,551.556z"/>
			<path fill="#FFFFFF" d="M637.798,546.115c3.01,0,5.44,2.43,5.44,5.44c0,3-2.431,5.43-5.44,5.43c-3,0-5.43-2.43-5.43-5.43
				C632.368,548.545,634.798,546.115,637.798,546.115z"/>
		</g>
		<g>
		</g>
	</g>
	<g id="XMLID_37_">
		<g>
			<path fill="#3D3D65" d="M799.646,649.071c5.521,0,10,4.48,10,10.011c0,5.52-4.479,10-10,10c-5.529,0-10.01-4.48-10.01-10
				C789.636,653.552,794.116,649.071,799.646,649.071z M804.946,659.082c0-3.011-2.431-5.44-5.44-5.44c-3,0-5.43,2.43-5.43,5.44
				c0,3,2.43,5.43,5.43,5.43C802.516,664.512,804.946,662.082,804.946,659.082z"/>
			<path fill="#FFFFFF" d="M799.506,653.642c3.01,0,5.44,2.43,5.44,5.44c0,3-2.431,5.43-5.44,5.43c-3,0-5.43-2.43-5.43-5.43
				C794.076,656.071,796.506,653.642,799.506,653.642z"/>
		</g>
		<g>
		</g>
	</g>
	<path fill="none" stroke="#3D3D65" stroke-width="3" stroke-miterlimit="10" d="M839.765,476.866"/>
	<path fill="none" stroke="#3D3D65" stroke-width="3" stroke-miterlimit="10" d="M856.979,509.503"/>
</g>
<g id="Yellow_Balls">
	<circle fill="#FED139" cx="286.917" cy="826.458" r="47.525"/>
	<circle fill="#FED139" cx="248.001" cy="637.141" r="26.469"/>
	<circle fill="#FED139" cx="905.07" cy="374.097" r="26.469"/>
	<circle fill="#FED139" cx="152.128" cy="299.073" r="45.908"/>
	<circle fill="#FED139" cx="869.228" cy="777.947" r="44.208"/>
	<circle fill="#FED139" cx="665.464" cy="187.788" r="39.438"/>
	<circle fill="#FED139" cx="500" cy="871.833" r="40.467"/>
</g>
<g id="Icons">
	<path fill="#F1F2F2" d="M759.773,357.35c0-10.577-4.31-20.153-11.274-27.084c-6.965-6.932-16.589-11.219-27.218-11.219
		c-10.63,0-20.253,4.287-27.218,11.219c-6.965,6.931-11.274,16.507-11.274,27.084c0,4.772,0.878,9.339,2.479,13.553
		c1.604,4.213,3.931,8.072,6.832,11.425c0,0,0,0.001,0,0.002c0,0,0,0.001,0,0.002v-0.001v-0.002l-1.643,1.634l-1.642,1.633
		c-3.291-3.764-5.933-8.104-7.75-12.849c-1.82-4.745-2.816-9.894-2.816-15.275c0-11.838,4.822-22.556,12.618-30.314
		c7.797-7.758,18.567-12.557,30.464-12.557c11.896,0,22.666,4.798,30.462,12.557c7.797,7.758,12.618,18.476,12.618,30.314"/>
	<path fill="#EE2F27" d="M683.28,329.093l-4.176-3.854c-6.354,8.708-11.419,19.541-11.419,33.281
		c0,13.486,4.971,25.812,13.178,35.246l4.096-4.095v0.004c0-0.002,0-0.004,0-0.005c-7.235-8.405-11.611-19.342-11.611-31.303
		C673.348,346.671,676.893,337.911,683.28,329.093z"/>
	<path fill="#3C9244" d="M759.394,329.093c6.148,8.068,9.961,18.347,9.961,29.274c0,11.893-4.329,22.775-11.492,31.161
		c0,0.002,0,0.003,0,0.005l0.001-0.002l4.162,4.163c8.17-9.425,13.113-21.722,13.113-35.174c0-13.018-3.655-22.824-11.548-33.281
		L759.394,329.093z"/>
	<path fill="#FED139" d="M683.28,329.093c8.805-10.436,23.348-18.729,38.071-18.729c15.49,0,29.265,7.34,38.042,18.729l4.197-3.854
		c-9.856-11.782-25.617-20.446-42.178-20.446c-15.841,0-31.213,6.854-42.309,20.446L683.28,329.093z"/>
	<circle fill="#F1F2F2" cx="722.56" cy="359.975" r="6.565"/>
	
		<line fill="none" stroke="#F1F2F2" stroke-width="3" stroke-miterlimit="10" x1="722.561" y1="359.975" x2="757.409" y2="322.797"/>
	<g>
		<path fill="#3D3D65" d="M504.898,862.311c0.593,0.748,0.784,1.636,0.573,2.665l-5.317,25.785c-0.289,1.4-1.118,2.475-2.485,3.223
			c-1.462,0.748-2.725,0.748-3.785,0c-1.06-0.748-1.445-1.822-1.156-3.223l5.314-25.785c0.116-0.562,0.363-1.079,0.74-1.541
			c0.869-1.495,2.096-2.243,3.684-2.243C503.588,861.191,504.397,861.567,504.898,862.311z"/>
		<path fill="#3D3D65" d="M507.589,848.576c0.666,0.844,0.887,1.822,0.655,2.947l-0.115,0.557c-0.29,1.4-1.119,2.48-2.485,3.223
			c-1.462,0.748-2.725,0.748-3.785,0c-1.062-0.742-1.445-1.822-1.158-3.223l0.115-0.557c0.098-0.473,0.278-0.889,0.543-1.265
			c0.773-1.49,1.975-2.334,3.602-2.525C506.025,847.554,506.903,847.835,507.589,848.576z"/>
		<path fill="#3D3D65" d="M502.466,861.191c-2.514-0.399-7.82,4.179-9.521,5.922c-0.43,0.444-1.392,1.377-1.459,1.989
			c-0.028,0.231,0.099,0.895,0.332,0.878c1.713-0.156,5.478-4.1,7.727-3.295"/>
		<path fill="#3D3D65" d="M497.733,867.529c0-0.405-1.617-0.579-2.388,0.045c-0.876,0.719,2.7-2.464,2.7-2.464"/>
		<g>
			<path fill="#3D3D65" d="M495.209,894.518c2.513,0.398,7.819-4.178,9.521-5.923c0.43-0.443,1.392-1.372,1.463-1.99
				c0.025-0.23-0.1-0.894-0.333-0.877c-1.712,0.157-5.479,4.1-7.728,3.296"/>
			<path fill="#3D3D65" d="M499.941,888.186c0,0.398,1.619,0.578,2.387-0.052c0.878-0.719-2.696,2.464-2.696,2.464"/>
		</g>
	</g>
	<g>
		<path fill="#45A2D8" d="M507.235,862.311c0.59,0.748,0.781,1.636,0.57,2.665l-5.314,25.785c-0.29,1.4-1.119,2.475-2.488,3.223
			c-1.463,0.748-2.723,0.748-3.782,0c-1.063-0.748-1.448-1.822-1.159-3.223l5.318-25.785c0.115-0.562,0.359-1.079,0.736-1.541
			c0.869-1.495,2.098-2.243,3.686-2.243C505.925,861.191,506.734,861.567,507.235,862.311z"/>
		<path fill="#45A2D8" d="M509.927,848.576c0.665,0.844,0.885,1.822,0.654,2.947l-0.118,0.557c-0.287,1.4-1.116,2.48-2.485,3.223
			c-1.462,0.748-2.722,0.748-3.781,0c-1.064-0.742-1.449-1.822-1.16-3.223l0.116-0.557c0.096-0.473,0.275-0.889,0.54-1.265
			c0.775-1.49,1.977-2.334,3.604-2.525C508.359,847.554,509.237,847.835,509.927,848.576z"/>
		<path fill="#45A2D8" d="M504.802,861.191c-2.513-0.399-7.818,4.179-9.523,5.922c-0.427,0.444-1.389,1.377-1.459,1.989
			c-0.025,0.231,0.099,0.895,0.332,0.878c1.713-0.156,5.48-4.1,7.727-3.295"/>
		<path fill="#45A2D8" d="M500.069,867.529c0-0.405-1.619-0.579-2.387,0.045c-0.877,0.719,2.697-2.464,2.697-2.464"/>
		<g>
			<path fill="#45A2D8" d="M497.545,894.518c2.515,0.398,7.82-4.178,9.521-5.923c0.432-0.443,1.393-1.372,1.46-1.99
				c0.028-0.23-0.099-0.894-0.332-0.877c-1.712,0.157-5.479,4.1-7.727,3.296"/>
			<path fill="#45A2D8" d="M502.277,888.186c0,0.398,1.616,0.578,2.388-0.052c0.877-0.719-2.699,2.464-2.699,2.464"/>
		</g>
	</g>
	
		<rect x="451.577" y="294.315" transform="matrix(-0.971 -0.239 0.239 -0.971 815.2941 764.5785)" fill="#FED139" width="4.84" height="77.099"/>
	
		<rect x="461.134" y="293.385" transform="matrix(-0.971 -0.2391 0.2391 -0.971 842.9572 693.6572)" fill="#FED139" width="4.842" height="4.621"/>
	<polygon fill="#45A2D8" points="461.964,300.606 430.185,298.651 434.22,295.007 462.357,297.18 	"/>
	<path fill="#45A2D8" d="M464.944,298.518c0,0,16.737,3.814,24.459,13.873c0,0-20.909-11.719-25.368-10.172"/>
	
		<rect x="457.037" y="295.245" transform="matrix(-0.9712 -0.2384 0.2384 -0.9712 838.8922 702.778)" fill="#45A2D8" width="9.8" height="10.848"/>
	<path fill="#45A2D8" d="M434.594,684.238c0,0-1.765-3.064,1.085-5.154c2.852-2.09,1.337-5.298,1.389-8.187
		c0.027-1.532,2.103-6.745,8.414,0.95C451.793,679.544,438.466,686.38,434.594,684.238z"/>
	<path fill="#45A2D8" d="M380.259,688.412c0,0,10.009,1.223,4.897,9.436c-5.115,8.215,11.864,23.795-3.907,22.369
		S372.008,694.421,380.259,688.412z"/>
	<path fill-rule="evenodd" clip-rule="evenodd" fill="#3D3D65" d="M406.196,713.249l3.48,0.756c0,0,0.324-1.351,0.713-2.675
		c0.384-1.326,0.839-2.619,0.839-2.619l-3.389-1.062c0,0-0.487,1.387-0.893,2.787C406.536,711.837,406.196,713.249,406.196,713.249z
		"/>
	<path fill-rule="evenodd" clip-rule="evenodd" fill="#3D3D65" d="M403.737,725.966l3.547,0.396c0,0,0.169-1.392,0.383-2.772
		c0.208-1.382,0.461-2.75,0.461-2.75l-3.519-0.576c0,0-0.263,1.423-0.477,2.849C403.912,724.537,403.737,725.966,403.737,725.966z"
		/>
	<path fill-rule="evenodd" clip-rule="evenodd" fill="#3D3D65" d="M403.037,734.836l3.568,0.117c0,0,0.051-1.396,0.139-2.794
		c0.086-1.399,0.207-2.794,0.207-2.794l-3.561-0.272c0,0-0.124,1.435-0.211,2.868C403.089,733.397,403.037,734.836,403.037,734.836z
		"/>
	<path fill-rule="evenodd" clip-rule="evenodd" fill="#3D3D65" d="M427.89,695.293l-1.425,3.089c0,0,0.271,0.118,0.678,0.295
		c0.377,0.231,0.906,0.499,1.364,0.877c0.116,0.092,0.244,0.167,0.35,0.268c0.108,0.1,0.212,0.196,0.313,0.292
		c0.206,0.187,0.403,0.357,0.541,0.534c0.148,0.167,0.271,0.306,0.357,0.405c0.087,0.097,0.136,0.155,0.136,0.155l2.86-2.017
		c0,0-0.064-0.078-0.18-0.21c-0.116-0.13-0.283-0.319-0.481-0.545c-0.19-0.234-0.455-0.473-0.736-0.73
		c-0.14-0.13-0.285-0.263-0.432-0.397c-0.148-0.135-0.322-0.248-0.483-0.372c-0.638-0.517-1.374-0.909-1.911-1.221
		C428.27,695.463,427.89,695.293,427.89,695.293z"/>
	<path fill-rule="evenodd" clip-rule="evenodd" fill="#3D3D65" d="M416.323,696.085l1.932,2.832c0,0,0.065-0.036,0.177-0.102
		c0.114-0.063,0.27-0.166,0.471-0.254c0.392-0.207,0.938-0.417,1.494-0.585c0.565-0.142,1.14-0.256,1.587-0.277
		c0.222-0.02,0.406-0.035,0.54-0.03c0.132,0,0.206-0.001,0.206-0.001l-0.013-3.367c0,0-0.106,0.001-0.29,0.003
		c-0.183-0.004-0.446,0.014-0.762,0.043c-0.632,0.034-1.469,0.19-2.286,0.403c-0.811,0.238-1.596,0.549-2.148,0.838
		c-0.285,0.129-0.503,0.267-0.661,0.355S416.323,696.085,416.323,696.085z"/>
	<path fill-rule="evenodd" clip-rule="evenodd" fill="#3D3D65" d="M409.289,704.506l3.241,1.416c0,0,0.152-0.299,0.381-0.748
		c0.121-0.219,0.261-0.476,0.411-0.75c0.158-0.267,0.326-0.555,0.5-0.835c0.354-0.556,0.723-1.096,1.022-1.478
		c0.291-0.39,0.502-0.628,0.502-0.628l-2.798-2.092c0,0-0.259,0.293-0.605,0.755c-0.356,0.457-0.788,1.089-1.195,1.729
		c-0.201,0.323-0.392,0.648-0.571,0.953c-0.17,0.309-0.327,0.597-0.463,0.844C409.458,704.172,409.289,704.506,409.289,704.506z"/>
	<path fill-rule="evenodd" clip-rule="evenodd" fill="#3D3D65" d="M426.016,721.62l-1.198-3.172c0,0-0.077,0.025-0.21,0.071
		c-0.137,0.04-0.318,0.125-0.561,0.177c-0.241,0.057-0.522,0.124-0.822,0.193c-0.15,0.036-0.306,0.074-0.463,0.111
		c-0.159,0.038-0.329,0.052-0.493,0.078c-0.665,0.097-1.325,0.211-1.843,0.22c-0.511,0.033-0.852,0.055-0.852,0.055l0.153,3.364
		c0,0,0.397-0.026,0.993-0.063c0.595-0.014,1.387-0.145,2.178-0.26c0.197-0.033,0.396-0.053,0.589-0.097
		c0.193-0.044,0.382-0.088,0.566-0.134c0.367-0.085,0.708-0.167,1.002-0.237c0.294-0.067,0.529-0.168,0.698-0.22
		C425.92,721.652,426.016,721.62,426.016,721.62z"/>
	<path fill-rule="evenodd" clip-rule="evenodd" fill="#3D3D65" d="M434.667,714.449l-3.229-1.438c0,0-0.147,0.26-0.366,0.649
		c-0.097,0.201-0.258,0.409-0.421,0.637c-0.164,0.228-0.32,0.483-0.534,0.697c-0.205,0.221-0.388,0.456-0.59,0.653
		c-0.211,0.191-0.406,0.37-0.575,0.521c-0.16,0.162-0.318,0.271-0.428,0.347c-0.108,0.08-0.17,0.125-0.17,0.125l2.212,2.643
		c0,0,0.082-0.06,0.224-0.164c0.144-0.104,0.351-0.25,0.567-0.461c0.224-0.204,0.484-0.441,0.764-0.695
		c0.27-0.265,0.521-0.576,0.791-0.874c0.279-0.289,0.496-0.625,0.714-0.929c0.216-0.305,0.425-0.585,0.558-0.851
		C434.473,714.793,434.667,714.449,434.667,714.449z"/>
	<path fill-rule="evenodd" clip-rule="evenodd" fill="#3D3D65" d="M435.423,703.653l-3.419,0.974c0,0,0.028,0.07,0.068,0.196
		c0.032,0.13,0.078,0.313,0.133,0.533c0.056,0.221,0.132,0.475,0.165,0.759c0.037,0.281,0.109,0.577,0.127,0.879
		c0.021,0.303,0.043,0.604,0.062,0.887c-0.007,0.284-0.013,0.548-0.018,0.773c-0.004,0.113-0.001,0.218-0.008,0.309
		c-0.011,0.093-0.021,0.171-0.029,0.236c-0.016,0.132-0.025,0.206-0.025,0.206l3.552,0.352c0,0,0.012-0.098,0.031-0.265
		c0.009-0.086,0.021-0.187,0.034-0.304c0.009-0.118,0.009-0.251,0.013-0.396c0.006-0.289,0.014-0.626,0.021-0.987
		c-0.024-0.36-0.051-0.746-0.078-1.13c-0.027-0.386-0.111-0.765-0.161-1.122c-0.046-0.359-0.138-0.687-0.209-0.968
		c-0.072-0.281-0.133-0.516-0.175-0.681C435.458,703.745,435.423,703.653,435.423,703.653z"/>
	<path fill-rule="evenodd" clip-rule="evenodd" fill="#3D3D65" d="M399.128,708.627l3.524-0.727c0,0-0.012-0.078-0.032-0.212
		c-0.021-0.134-0.054-0.325-0.063-0.558c-0.032-0.466-0.093-1.083-0.073-1.704c-0.016-0.62,0.045-1.239,0.075-1.704
		c0.011-0.229,0.038-0.428,0.059-0.57c0.019-0.141,0.03-0.221,0.03-0.221l-3.55-0.374c0,0-0.012,0.093-0.034,0.256
		c-0.024,0.161-0.054,0.394-0.069,0.682c-0.037,0.571-0.109,1.331-0.088,2.095c-0.02,0.764,0.056,1.523,0.099,2.093
		c0.015,0.285,0.054,0.522,0.081,0.686C399.113,708.532,399.128,708.627,399.128,708.627z"/>
	<path fill-rule="evenodd" clip-rule="evenodd" fill="#3D3D65" d="M404.167,718.205l2.565-2.489c0,0-0.239-0.213-0.597-0.532
		c-0.165-0.173-0.345-0.385-0.547-0.605c-0.1-0.11-0.203-0.225-0.308-0.342c-0.091-0.127-0.184-0.253-0.277-0.381
		c-0.178-0.261-0.383-0.507-0.528-0.763c-0.146-0.256-0.282-0.494-0.4-0.699c-0.124-0.202-0.2-0.384-0.254-0.509
		c-0.056-0.126-0.087-0.197-0.087-0.197l-3.251,1.583c0,0,0.04,0.087,0.109,0.24c0.068,0.152,0.162,0.374,0.315,0.62
		c0.144,0.252,0.312,0.542,0.494,0.855c0.178,0.314,0.429,0.616,0.648,0.933c0.115,0.157,0.228,0.315,0.341,0.47
		c0.127,0.142,0.253,0.283,0.375,0.419c0.245,0.271,0.469,0.528,0.672,0.74C403.875,717.943,404.167,718.205,404.167,718.205z"/>
	<path fill-rule="evenodd" clip-rule="evenodd" fill="#3D3D65" d="M414.581,722.491l0.651-3.317c0,0-0.325-0.051-0.811-0.127
		c-0.243-0.042-0.529-0.076-0.83-0.139c-0.298-0.071-0.618-0.15-0.936-0.226c-0.159-0.039-0.318-0.079-0.475-0.117
		c-0.157-0.036-0.303-0.097-0.45-0.143c-0.29-0.098-0.561-0.19-0.793-0.267c-0.235-0.072-0.422-0.154-0.551-0.217
		c-0.13-0.059-0.204-0.09-0.204-0.09l-1.795,2.986c0,0,0.091,0.041,0.251,0.114c0.079,0.035,0.176,0.077,0.287,0.129
		c0.112,0.046,0.245,0.085,0.386,0.138c0.285,0.097,0.617,0.21,0.972,0.333c0.179,0.057,0.36,0.13,0.552,0.18
		c0.192,0.048,0.388,0.097,0.583,0.146c0.391,0.096,0.782,0.191,1.149,0.283c0.369,0.079,0.72,0.123,1.018,0.175
		C414.182,722.428,414.581,722.491,414.581,722.491z"/>
	<path fill-rule="evenodd" clip-rule="evenodd" fill="#3D3D65" d="M411.823,680.407l2.691,2.212c0,0,0.068-0.072,0.186-0.199
		c0.115-0.13,0.294-0.303,0.484-0.536c0.188-0.233,0.409-0.503,0.645-0.793c0.117-0.147,0.242-0.295,0.362-0.451
		c0.113-0.161,0.229-0.325,0.344-0.488c0.227-0.33,0.468-0.649,0.666-0.97c0.193-0.323,0.374-0.625,0.529-0.885
		c0.077-0.129,0.147-0.248,0.209-0.353c0.056-0.11,0.104-0.206,0.144-0.285c0.079-0.157,0.125-0.249,0.125-0.249l-3.221-1.455
		c0,0-0.038,0.076-0.104,0.208c-0.032,0.065-0.071,0.146-0.117,0.237c-0.053,0.088-0.113,0.188-0.178,0.297
		c-0.13,0.219-0.283,0.474-0.446,0.748c-0.166,0.27-0.377,0.544-0.569,0.826c-0.098,0.14-0.197,0.279-0.293,0.417
		c-0.103,0.135-0.212,0.263-0.313,0.39c-0.204,0.251-0.395,0.486-0.557,0.687c-0.162,0.202-0.323,0.354-0.423,0.466
		C411.883,680.343,411.823,680.407,411.823,680.407z"/>
	<path fill-rule="evenodd" clip-rule="evenodd" fill="#3D3D65" d="M404.692,688.301l3.003,1.822c0,0,0.193-0.278,0.483-0.698
		c0.297-0.415,0.719-0.948,1.138-1.484c0.221-0.259,0.443-0.517,0.65-0.759c0.204-0.246,0.401-0.469,0.582-0.648
		c0.352-0.369,0.586-0.615,0.586-0.615l-2.62-2.287c0,0-0.263,0.274-0.656,0.688c-0.201,0.203-0.421,0.452-0.648,0.722
		c-0.231,0.271-0.477,0.559-0.722,0.847c-0.465,0.592-0.932,1.185-1.261,1.643C404.907,687.993,404.692,688.301,404.692,688.301z"/>
	<path fill-rule="evenodd" clip-rule="evenodd" fill="#3D3D65" d="M400.096,697.867l3.438,0.912c0,0,0.099-0.317,0.25-0.795
		c0.139-0.48,0.402-1.102,0.627-1.731c0.267-0.619,0.522-1.241,0.742-1.697c0.225-0.454,0.374-0.757,0.374-0.757l-3.225-1.444
		c0,0-0.165,0.333-0.412,0.835c-0.242,0.503-0.526,1.189-0.82,1.873c-0.252,0.698-0.538,1.385-0.696,1.921
		C400.208,697.514,400.096,697.867,400.096,697.867z"/>
	<path fill-rule="evenodd" clip-rule="evenodd" fill="#3D3D65" d="M404.958,660.359l-0.425-3.341c0,0-0.417,0.063-1.044,0.161
		c-0.156,0.024-0.326,0.052-0.505,0.079c-0.174,0.04-0.359,0.079-0.55,0.122c-0.381,0.088-0.788,0.183-1.194,0.277
		c-0.395,0.117-0.789,0.234-1.16,0.347c-0.371,0.11-0.716,0.214-0.999,0.327c-0.572,0.215-0.954,0.355-0.954,0.355l1.332,3.113
		c0,0,0.336-0.126,0.84-0.313c0.25-0.101,0.55-0.191,0.871-0.285c0.322-0.097,0.664-0.2,1.006-0.304
		c0.347-0.079,0.692-0.158,1.018-0.232c0.162-0.037,0.319-0.073,0.468-0.107c0.149-0.021,0.292-0.044,0.422-0.062
		C404.608,660.414,404.958,660.359,404.958,660.359z"/>
	<path fill-rule="evenodd" clip-rule="evenodd" fill="#3D3D65" d="M413.848,663.509l2.556-2.353c0,0-0.083-0.075-0.225-0.211
		c-0.145-0.131-0.34-0.335-0.615-0.532c-0.271-0.201-0.577-0.454-0.928-0.687c-0.36-0.219-0.741-0.461-1.135-0.679
		c-0.405-0.192-0.811-0.384-1.19-0.565c-0.393-0.143-0.76-0.277-1.075-0.39c-0.313-0.124-0.584-0.174-0.771-0.229
		c-0.187-0.048-0.294-0.075-0.294-0.075l-0.93,3.25c0,0,0.082,0.021,0.227,0.059c0.141,0.042,0.355,0.077,0.588,0.173
		c0.237,0.086,0.514,0.186,0.811,0.293c0.281,0.133,0.582,0.276,0.881,0.419c0.288,0.159,0.562,0.341,0.829,0.495
		c0.256,0.169,0.472,0.354,0.67,0.497c0.202,0.139,0.335,0.29,0.44,0.383C413.79,663.453,413.848,663.509,413.848,663.509z"/>
	<path fill-rule="evenodd" clip-rule="evenodd" fill="#3D3D65" d="M416.369,671.924l3.526,0.531c0,0,0.015-0.104,0.038-0.281
		c0.021-0.18,0.053-0.438,0.09-0.745c0.048-0.309,0.052-0.673,0.062-1.063c0.004-0.196,0.009-0.398,0.013-0.605
		c-0.007-0.205-0.025-0.416-0.04-0.626c-0.015-0.21-0.031-0.421-0.046-0.626c-0.018-0.207-0.064-0.411-0.095-0.607
		c-0.073-0.394-0.119-0.762-0.22-1.071c-0.088-0.311-0.162-0.569-0.213-0.751c-0.049-0.182-0.092-0.281-0.091-0.281l-3.39,1.057
		c0,0,0.033,0.073,0.066,0.208c0.038,0.135,0.092,0.326,0.157,0.554c0.08,0.226,0.107,0.507,0.164,0.8
		c0.022,0.149,0.062,0.298,0.072,0.456c0.012,0.157,0.023,0.317,0.034,0.477c0.01,0.161,0.026,0.318,0.033,0.478
		c-0.004,0.159-0.009,0.315-0.013,0.467c-0.008,0.302-0.007,0.585-0.048,0.826c-0.029,0.242-0.053,0.443-0.071,0.585
		C416.38,671.844,416.369,671.924,416.369,671.924z"/>
	<path fill-rule="evenodd" clip-rule="evenodd" fill="#FED139" d="M407.896,712.93l3.48,0.752c0,0,0.325-1.349,0.714-2.672
		c0.384-1.326,0.839-2.62,0.839-2.62l-3.389-1.061c0,0-0.487,1.385-0.893,2.788C408.235,711.517,407.896,712.93,407.896,712.93z"/>
	<path fill-rule="evenodd" clip-rule="evenodd" fill="#FED139" d="M405.438,725.646l3.547,0.392c0,0,0.169-1.388,0.383-2.77
		c0.208-1.382,0.461-2.752,0.461-2.752l-3.519-0.573c0,0-0.262,1.421-0.477,2.849C405.612,724.216,405.438,725.646,405.438,725.646z
		"/>
	<path fill-rule="evenodd" clip-rule="evenodd" fill="#FED139" d="M404.737,734.516l3.57,0.116c0,0,0.05-1.395,0.138-2.793
		c0.085-1.399,0.206-2.795,0.206-2.795l-3.559-0.271c0,0-0.124,1.434-0.212,2.869C404.789,733.078,404.737,734.516,404.737,734.516z
		"/>
	<path fill-rule="evenodd" clip-rule="evenodd" fill="#FED139" d="M429.591,694.973l-1.425,3.088c0,0,0.271,0.118,0.677,0.297
		c0.378,0.231,0.907,0.498,1.364,0.876c0.117,0.091,0.245,0.167,0.352,0.267c0.106,0.101,0.212,0.198,0.313,0.293
		c0.205,0.188,0.402,0.356,0.54,0.534c0.149,0.167,0.271,0.307,0.358,0.405c0.087,0.098,0.135,0.154,0.135,0.154l2.86-2.016
		c0,0-0.064-0.077-0.18-0.209c-0.116-0.133-0.282-0.32-0.481-0.548c-0.189-0.234-0.455-0.473-0.735-0.729
		c-0.14-0.129-0.285-0.263-0.433-0.397c-0.148-0.135-0.322-0.247-0.483-0.374c-0.637-0.516-1.374-0.907-1.91-1.219
		C429.971,695.143,429.591,694.973,429.591,694.973z"/>
	<path fill-rule="evenodd" clip-rule="evenodd" fill="#FED139" d="M418.024,695.763l1.931,2.833c0,0,0.065-0.037,0.178-0.102
		c0.113-0.062,0.269-0.164,0.472-0.252c0.391-0.209,0.936-0.417,1.493-0.585c0.566-0.143,1.14-0.257,1.586-0.277
		c0.222-0.021,0.407-0.038,0.539-0.031c0.132-0.001,0.207-0.001,0.207-0.001l-0.014-3.367c0,0-0.105,0.002-0.288,0.003
		c-0.184-0.006-0.447,0.014-0.762,0.043c-0.632,0.033-1.469,0.19-2.286,0.404c-0.81,0.236-1.596,0.546-2.149,0.835
		c-0.285,0.131-0.502,0.269-0.661,0.356C418.114,695.713,418.024,695.763,418.024,695.763z"/>
	<path fill-rule="evenodd" clip-rule="evenodd" fill="#FED139" d="M410.989,704.187l3.242,1.414c0,0,0.152-0.299,0.381-0.747
		c0.12-0.221,0.26-0.476,0.411-0.75c0.158-0.268,0.326-0.554,0.5-0.835c0.354-0.555,0.723-1.097,1.021-1.477
		c0.291-0.391,0.503-0.628,0.502-0.628l-2.796-2.095c0,0-0.259,0.295-0.605,0.757c-0.357,0.457-0.789,1.089-1.196,1.729
		c-0.201,0.322-0.391,0.649-0.57,0.954c-0.17,0.309-0.329,0.598-0.463,0.844C411.16,703.853,410.989,704.187,410.989,704.187z"/>
	<path fill-rule="evenodd" clip-rule="evenodd" fill="#FED139" d="M427.716,721.299l-1.199-3.17c0,0-0.076,0.025-0.21,0.069
		c-0.137,0.041-0.318,0.127-0.56,0.179c-0.241,0.057-0.522,0.123-0.823,0.193c-0.15,0.035-0.305,0.073-0.462,0.111
		c-0.159,0.037-0.33,0.05-0.495,0.078c-0.665,0.094-1.324,0.211-1.842,0.219c-0.512,0.033-0.852,0.055-0.852,0.055l0.153,3.364
		c0,0,0.397-0.026,0.992-0.063c0.596-0.015,1.387-0.144,2.178-0.262c0.198-0.033,0.397-0.052,0.59-0.094
		c0.192-0.045,0.382-0.092,0.566-0.135c0.367-0.087,0.709-0.169,1.003-0.237c0.293-0.067,0.528-0.169,0.697-0.22
		C427.62,721.331,427.716,721.299,427.716,721.299z"/>
	<path fill-rule="evenodd" clip-rule="evenodd" fill="#FED139" d="M436.367,714.128l-3.229-1.438c0,0-0.147,0.258-0.366,0.648
		c-0.097,0.203-0.258,0.41-0.42,0.639c-0.165,0.227-0.32,0.482-0.534,0.695c-0.205,0.221-0.388,0.458-0.59,0.654
		c-0.21,0.192-0.407,0.37-0.575,0.522c-0.159,0.161-0.318,0.27-0.428,0.346c-0.108,0.079-0.17,0.125-0.17,0.125l2.212,2.644
		c0,0,0.082-0.061,0.225-0.167c0.143-0.102,0.35-0.25,0.566-0.46c0.225-0.204,0.484-0.441,0.764-0.696
		c0.27-0.262,0.521-0.574,0.791-0.871c0.279-0.292,0.496-0.626,0.714-0.929c0.215-0.305,0.425-0.586,0.558-0.851
		C436.174,714.474,436.367,714.128,436.367,714.128z"/>
	<path fill-rule="evenodd" clip-rule="evenodd" fill="#FED139" d="M437.124,703.332l-3.419,0.975c0,0,0.029,0.069,0.069,0.196
		c0.032,0.129,0.078,0.313,0.133,0.532c0.056,0.221,0.132,0.477,0.165,0.758c0.037,0.282,0.108,0.58,0.127,0.881
		c0.021,0.302,0.042,0.605,0.062,0.887c-0.007,0.282-0.014,0.548-0.019,0.774c-0.003,0.112-0.001,0.217-0.008,0.308
		c-0.011,0.092-0.021,0.172-0.029,0.236c-0.016,0.131-0.024,0.205-0.024,0.205l3.552,0.351c0,0,0.012-0.095,0.03-0.264
		c0.01-0.084,0.021-0.187,0.034-0.304c0.01-0.116,0.009-0.249,0.013-0.394c0.006-0.29,0.013-0.627,0.02-0.989
		c-0.023-0.361-0.05-0.745-0.077-1.13c-0.027-0.386-0.111-0.763-0.161-1.122c-0.046-0.359-0.138-0.687-0.21-0.968
		c-0.071-0.28-0.132-0.517-0.173-0.679C437.159,703.423,437.124,703.332,437.124,703.332z"/>
	<path fill-rule="evenodd" clip-rule="evenodd" fill="#FED139" d="M400.829,708.307l3.524-0.728c0,0-0.011-0.077-0.031-0.211
		c-0.021-0.135-0.053-0.327-0.064-0.56c-0.031-0.464-0.092-1.082-0.072-1.703c-0.017-0.62,0.046-1.239,0.075-1.703
		c0.011-0.229,0.038-0.431,0.059-0.57c0.02-0.141,0.031-0.221,0.031-0.221l-3.55-0.375c0,0-0.012,0.094-0.034,0.257
		c-0.024,0.161-0.054,0.393-0.069,0.682c-0.037,0.57-0.109,1.331-0.087,2.094c-0.021,0.763,0.055,1.522,0.098,2.094
		c0.016,0.285,0.055,0.52,0.081,0.685C400.814,708.213,400.829,708.307,400.829,708.307z"/>
	<path fill-rule="evenodd" clip-rule="evenodd" fill="#FED139" d="M405.867,717.885l2.565-2.489c0,0-0.239-0.212-0.597-0.531
		c-0.165-0.175-0.345-0.387-0.546-0.607c-0.1-0.111-0.204-0.225-0.309-0.341c-0.091-0.126-0.184-0.254-0.276-0.381
		c-0.178-0.262-0.383-0.507-0.528-0.763c-0.146-0.258-0.283-0.496-0.4-0.701c-0.125-0.201-0.2-0.382-0.254-0.507
		c-0.056-0.125-0.087-0.196-0.087-0.196l-3.251,1.58c0,0,0.039,0.089,0.108,0.241c0.068,0.154,0.164,0.375,0.316,0.622
		c0.144,0.249,0.312,0.542,0.493,0.854c0.179,0.315,0.429,0.615,0.649,0.934c0.114,0.157,0.228,0.313,0.341,0.468
		c0.128,0.144,0.253,0.283,0.375,0.42c0.246,0.271,0.468,0.529,0.672,0.74C405.576,717.621,405.867,717.885,405.867,717.885z"/>
	<path fill-rule="evenodd" clip-rule="evenodd" fill="#FED139" d="M416.281,722.172l0.652-3.318c0,0-0.325-0.052-0.812-0.128
		c-0.242-0.041-0.529-0.076-0.83-0.139c-0.298-0.071-0.617-0.149-0.935-0.226c-0.16-0.038-0.319-0.077-0.476-0.115
		c-0.157-0.037-0.304-0.098-0.45-0.144c-0.29-0.098-0.561-0.19-0.793-0.269c-0.235-0.071-0.422-0.153-0.551-0.214
		c-0.13-0.059-0.204-0.092-0.204-0.092l-1.794,2.988c0,0,0.091,0.04,0.25,0.111c0.08,0.037,0.177,0.08,0.288,0.13
		c0.113,0.046,0.245,0.087,0.387,0.139c0.284,0.098,0.616,0.211,0.972,0.333c0.179,0.057,0.359,0.13,0.552,0.179
		c0.192,0.048,0.388,0.098,0.583,0.145c0.391,0.097,0.782,0.192,1.148,0.283c0.368,0.08,0.72,0.124,1.019,0.176
		C415.883,722.107,416.281,722.172,416.281,722.172z"/>
	<path fill-rule="evenodd" clip-rule="evenodd" fill="#FED139" d="M413.524,680.085l2.691,2.215c0,0,0.067-0.073,0.186-0.2
		c0.115-0.131,0.294-0.304,0.483-0.537c0.189-0.231,0.41-0.502,0.646-0.793c0.117-0.146,0.242-0.295,0.361-0.45
		c0.113-0.161,0.229-0.325,0.345-0.487c0.227-0.332,0.469-0.65,0.667-0.971c0.193-0.324,0.374-0.625,0.529-0.884
		c0.077-0.13,0.147-0.248,0.21-0.355c0.055-0.109,0.103-0.204,0.143-0.284c0.079-0.158,0.125-0.249,0.125-0.249l-3.221-1.455
		c0,0-0.037,0.076-0.103,0.208c-0.032,0.065-0.072,0.146-0.118,0.237c-0.053,0.089-0.113,0.188-0.179,0.297
		c-0.13,0.22-0.284,0.476-0.446,0.746c-0.167,0.273-0.378,0.547-0.569,0.829c-0.099,0.14-0.197,0.279-0.293,0.418
		c-0.104,0.134-0.212,0.262-0.314,0.388c-0.203,0.251-0.394,0.485-0.558,0.688c-0.162,0.202-0.321,0.352-0.422,0.466
		C413.583,680.021,413.524,680.085,413.524,680.085z"/>
	<path fill-rule="evenodd" clip-rule="evenodd" fill="#FED139" d="M406.393,687.98l3.003,1.823c0,0,0.194-0.281,0.484-0.699
		c0.297-0.414,0.72-0.947,1.138-1.484c0.222-0.258,0.443-0.516,0.649-0.759c0.205-0.246,0.401-0.469,0.583-0.648
		c0.351-0.37,0.585-0.616,0.585-0.616l-2.62-2.288c0,0-0.262,0.276-0.655,0.688c-0.202,0.203-0.421,0.452-0.649,0.723
		c-0.23,0.27-0.477,0.559-0.723,0.845c-0.465,0.594-0.932,1.188-1.261,1.645C406.607,687.672,406.393,687.98,406.393,687.98z"/>
	<path fill-rule="evenodd" clip-rule="evenodd" fill="#FED139" d="M401.796,697.546l3.438,0.914c0,0,0.1-0.319,0.25-0.796
		c0.139-0.481,0.402-1.102,0.626-1.732c0.268-0.618,0.523-1.241,0.744-1.696c0.224-0.453,0.374-0.758,0.374-0.758l-3.226-1.443
		c0,0-0.165,0.334-0.412,0.834c-0.242,0.502-0.526,1.19-0.82,1.874c-0.252,0.698-0.538,1.385-0.696,1.918
		C401.908,697.193,401.796,697.546,401.796,697.546z"/>
	<path fill-rule="evenodd" clip-rule="evenodd" fill="#FED139" d="M406.577,660.301l-0.165-3.363c0,0-0.421,0.032-1.052,0.079
		c-0.158,0.013-0.33,0.026-0.511,0.04c-0.177,0.025-0.364,0.053-0.558,0.08c-0.387,0.059-0.799,0.119-1.211,0.182
		c-0.403,0.087-0.805,0.175-1.184,0.258c-0.377,0.082-0.731,0.157-1.021,0.25c-0.587,0.167-0.979,0.278-0.979,0.278l1.086,3.209
		c0,0,0.344-0.102,0.863-0.249c0.257-0.083,0.563-0.147,0.891-0.216c0.327-0.071,0.676-0.148,1.025-0.225
		c0.352-0.053,0.703-0.105,1.033-0.153c0.165-0.025,0.324-0.049,0.475-0.07c0.151-0.011,0.293-0.021,0.426-0.031
		C406.225,660.327,406.577,660.301,406.577,660.301z"/>
	<path fill-rule="evenodd" clip-rule="evenodd" fill="#FED139" d="M415.549,663.188l2.556-2.353c0,0-0.082-0.077-0.225-0.211
		c-0.146-0.133-0.34-0.337-0.615-0.533c-0.271-0.202-0.577-0.453-0.928-0.687c-0.36-0.218-0.741-0.462-1.135-0.678
		c-0.405-0.191-0.811-0.385-1.191-0.565c-0.394-0.143-0.76-0.277-1.074-0.391c-0.313-0.122-0.583-0.175-0.771-0.229
		c-0.187-0.048-0.293-0.076-0.293-0.076l-0.93,3.251c0,0,0.082,0.021,0.226,0.06c0.142,0.041,0.356,0.074,0.589,0.172
		c0.237,0.087,0.514,0.186,0.81,0.291c0.282,0.136,0.582,0.276,0.882,0.421c0.288,0.159,0.562,0.339,0.829,0.495
		c0.256,0.17,0.471,0.354,0.669,0.496c0.203,0.139,0.337,0.289,0.442,0.383C415.49,663.133,415.549,663.188,415.549,663.188z"/>
	<path fill-rule="evenodd" clip-rule="evenodd" fill="#FED139" d="M418.069,671.604l3.526,0.532c0,0,0.015-0.104,0.037-0.284
		c0.022-0.179,0.054-0.436,0.091-0.743c0.047-0.308,0.051-0.674,0.062-1.064c0.003-0.196,0.009-0.397,0.013-0.604
		c-0.007-0.208-0.025-0.417-0.04-0.626c-0.016-0.211-0.03-0.423-0.047-0.629c-0.017-0.207-0.063-0.409-0.093-0.605
		c-0.074-0.395-0.119-0.764-0.221-1.072c-0.089-0.31-0.163-0.568-0.214-0.75c-0.048-0.181-0.091-0.281-0.091-0.281l-3.39,1.057
		c0,0,0.033,0.071,0.066,0.208c0.038,0.132,0.092,0.324,0.157,0.554c0.081,0.226,0.106,0.507,0.164,0.8
		c0.022,0.147,0.062,0.297,0.073,0.455c0.011,0.157,0.022,0.317,0.034,0.479c0.01,0.158,0.026,0.318,0.033,0.478
		c-0.004,0.157-0.009,0.313-0.013,0.465c-0.008,0.302-0.006,0.586-0.048,0.827c-0.029,0.241-0.053,0.442-0.07,0.583
		C418.08,671.524,418.069,671.604,418.069,671.604z"/>
	<g>
		<g>
			<path fill="#3D3D65" d="M381.396,651.346l4.247,6.035l4.272-6.035h3.428l-5.837,8.346l6.333,9.042h-3.501l-4.695-6.558
				l-4.669,6.558h-3.427l6.333-8.918l-5.887-8.47H381.396z"/>
		</g>
		<g>
			<path fill="#FED139" d="M383.77,651.346l4.248,6.035l4.272-6.035h3.428l-5.837,8.346l6.334,9.042h-3.502l-4.695-6.558
				l-4.669,6.558h-3.427l6.333-8.918l-5.886-8.47H383.77z"/>
		</g>
	</g>
	<rect x="176.091" y="296.768" fill="#45A2D8" width="1.016" height="13.104"/>
	<path fill="#222944" stroke="#FED13A" stroke-width="0.5" stroke-miterlimit="10" d="M150.111,305.886v11.45
		c0,0,5.358-7.053,22.18-6.836v-11.431"/>
	<path fill="#222944" stroke="#FED13A" stroke-width="0.5" stroke-miterlimit="10" d="M150.11,305.886v11.45
		c0,0-6.961-8.136-21.555-6.19v-11.952"/>
	<polygon fill="#3E3E65" stroke="#FED13A" stroke-width="0.5" stroke-miterlimit="10" points="151.422,282.621 112.635,294.17 
		150.375,305.886 189.161,294.337 	"/>
	<path fill="#45A2D8" d="M178.537,310.827c0,1.021-0.828,1.849-1.85,1.849c-1.021,0-1.849-0.828-1.849-1.849
		c0-1.022,0.828-1.849,1.849-1.849C177.708,308.978,178.537,309.805,178.537,310.827z"/>
	<path fill="#45A2D8" d="M178.537,325.173h-3.699c0,0-1.313-10.667,0.935-12.917c0.211-0.21,0.932,0.196,0.932,0.196
		s0.781-0.264,0.991-0.053C179.944,314.647,178.537,325.173,178.537,325.173z"/>
	<g>
		<g>
			<polygon fill="#0D8E47" points="653.714,76.818 607.666,129.27 584.513,109.245 630.559,56.794 			"/>
			<polygon fill="#0D8E47" points="653.714,76.818 607.666,129.27 584.513,109.245 630.559,56.794 			"/>
			<g>
				<defs>
					<polygon id="SVGID_1_" points="653.714,76.818 607.666,129.27 584.513,109.245 630.559,56.794 					"/>
				</defs>
				<use xlink:href="#SVGID_1_"  overflow="visible" fill="#0D8E47"/>
				<clipPath id="SVGID_2_">
					<use xlink:href="#SVGID_1_"  overflow="visible"/>
				</clipPath>
				<polygon clip-path="url(#SVGID_2_)" fill="#0D8E47" points="613.824,130.533 609.871,135.037 580.632,109.752 584.586,105.246 
									"/>
				<polygon clip-path="url(#SVGID_2_)" fill="#0D8E47" points="590.792,105.862 585.999,101.717 624.944,57.355 629.736,61.5 				
					"/>
				<polygon clip-path="url(#SVGID_2_)" fill="#0D8E47" points="614.998,126.795 610.206,122.649 649.148,78.289 653.943,82.434 
									"/>
				<path clip-path="url(#SVGID_2_)" fill="#0D8E47" d="M593.009,103.817c3.177,2.748,3.629,7.394,1.008,10.379
					c-2.62,2.984-7.319,3.178-10.497,0.43c-3.176-2.747-3.627-7.394-1.007-10.379C585.134,101.262,589.832,101.069,593.009,103.817z
					"/>
				<path clip-path="url(#SVGID_2_)" fill="#0D8E47" d="M612.422,120.604c3.177,2.75,3.628,7.395,1.006,10.379
					c-2.62,2.986-7.318,3.179-10.494,0.431c-3.178-2.747-3.628-7.394-1.009-10.38C604.547,118.05,609.244,117.857,612.422,120.604z"
					/>
				<polygon clip-path="url(#SVGID_2_)" fill="#0D8E47" points="656.065,82.417 660.019,77.914 630.779,52.627 626.826,57.131 				
					"/>
				<path clip-path="url(#SVGID_2_)" fill="#0D8E47" d="M626.551,65.609c3.176,2.747,7.876,2.554,10.496-0.43
					c2.621-2.985,2.171-7.631-1.007-10.379c-3.177-2.747-7.877-2.554-10.497,0.43C622.925,58.215,623.374,62.861,626.551,65.609z"/>
				<path clip-path="url(#SVGID_2_)" fill="#0D8E47" d="M645.965,82.397c3.175,2.748,7.874,2.555,10.495-0.429
					c2.621-2.986,2.169-7.633-1.007-10.38c-3.177-2.746-7.878-2.554-10.497,0.431C642.337,75.003,642.786,79.651,645.965,82.397z"/>
			</g>
			<path fill="#0D8E47" d="M623.826,87.663c4.016,3.473,5.131,8.724,2.492,11.729c-2.639,3.006-8.031,2.627-12.048-0.845
				c-4.014-3.473-5.13-8.724-2.491-11.729C614.418,83.812,619.812,84.19,623.826,87.663z"/>
			<polygon fill="none" points="635.572,63.797 632.904,66.836 628.35,62.899 631.02,59.858 			"/>
			
				<text transform="matrix(0.6239 -0.7107 0.7564 0.6541 631.9082 65.9785)" fill="#0D8E47" font-family="'Montserrat-Regular'" font-size="6.654">$</text>
			<polygon fill="none" points="651.469,77.147 648.802,80.187 644.246,76.25 646.914,73.209 			"/>
			
				<text transform="matrix(0.6239 -0.7107 0.7564 0.6541 647.8047 79.3286)" fill="#0D8E47" font-family="'Montserrat-Regular'" font-size="6.654">$</text>
			<polygon fill="none" points="594.898,110.129 592.23,113.168 587.677,109.23 590.346,106.19 			"/>
			
				<text transform="matrix(0.6239 -0.7107 0.7564 0.6541 591.2354 112.3096)" fill="#0D8E47" font-family="'Montserrat-Regular'" font-size="6.654">$</text>
			<polygon fill="none" points="610.795,123.479 608.127,126.519 603.573,122.582 606.24,119.54 			"/>
			
				<text transform="matrix(0.6239 -0.7107 0.7564 0.6541 607.1299 125.6597)" fill="#0D8E47" font-family="'Montserrat-Regular'" font-size="6.654">$</text>
		</g>
		<g>
			
				<rect x="581.193" y="75.122" transform="matrix(0.6569 -0.7539 0.7539 0.6569 143.1956 496.1241)" fill="#00A651" width="71.158" height="31.175"/>
			
				<rect x="581.193" y="75.122" transform="matrix(0.6569 -0.7539 0.7539 0.6569 143.1956 496.1241)" fill="#00A651" width="71.158" height="31.175"/>
			<g>
				<defs>
					
						<rect id="SVGID_3_" x="581.193" y="75.122" transform="matrix(0.6569 -0.7539 0.7539 0.6569 143.1956 496.1241)" width="71.158" height="31.175"/>
				</defs>
				<clipPath id="SVGID_4_">
					<use xlink:href="#SVGID_3_"  overflow="visible"/>
				</clipPath>
				
					<rect x="591.5" y="98.754" transform="matrix(0.657 -0.7539 0.7539 0.657 114.652 488.8661)" clip-path="url(#SVGID_4_)" fill="#60BF83" width="6.111" height="39.37"/>
				
					<rect x="602.13" y="48.934" transform="matrix(0.754 0.6569 -0.6569 0.754 200.814 -378.1912)" clip-path="url(#SVGID_4_)" fill="#60BF83" width="6.452" height="60.182"/>
				
					<rect x="626.701" y="70.347" transform="matrix(0.7539 0.657 -0.657 0.7539 221.0343 -389.158)" clip-path="url(#SVGID_4_)" fill="#60BF83" width="6.454" height="60.18"/>
				
					<ellipse transform="matrix(0.6569 -0.7539 0.7539 0.6569 119.9753 478.2021)" clip-path="url(#SVGID_4_)" fill="#60BF83" cx="585.456" cy="107.267" rx="7.331" ry="7.744"/>
				
					<ellipse transform="matrix(0.6568 -0.7541 0.7541 0.6568 113.8762 499.065)" clip-path="url(#SVGID_4_)" fill="#60BF83" cx="605.163" cy="124.439" rx="7.331" ry="7.744"/>
				
					<rect x="638.397" y="44.933" transform="matrix(-0.6568 0.7541 -0.7541 -0.6568 1111.4742 -376.6446)" clip-path="url(#SVGID_4_)" fill="#60BF83" width="6.108" height="39.368"/>
				
					<ellipse transform="matrix(-0.6569 0.754 -0.754 -0.6569 1085.5117 -379.6804)" clip-path="url(#SVGID_4_)" fill="#60BF83" cx="629.14" cy="57.132" rx="7.332" ry="7.745"/>
				
					<ellipse transform="matrix(-0.6569 0.754 -0.754 -0.6569 1131.1116 -366.0862)" clip-path="url(#SVGID_4_)" fill="#60BF83" cx="648.847" cy="74.304" rx="7.332" ry="7.745"/>
			</g>
			
				<ellipse transform="matrix(0.657 -0.7539 0.7539 0.657 143.1012 496.0809)" fill="#60BF83" cx="616.707" cy="90.783" rx="7.382" ry="9.789"/>
			
				<rect x="627.754" y="57.283" transform="matrix(0.6568 -0.754 0.754 0.6568 170.6266 495.612)" fill="none" width="4.124" height="6.13"/>
			
				<text transform="matrix(0.6219 -0.7137 0.7539 0.6569 629.7686 63.0405)" fill="#EEEEEE" font-family="'Montserrat-Regular'" font-size="6.7768">$</text>
			
				<rect x="643.891" y="70.937" transform="matrix(0.657 -0.7539 0.7539 0.657 165.7653 512.3531)" fill="none" width="4.123" height="6.131"/>
			
				<text transform="matrix(0.6219 -0.7137 0.7539 0.6569 645.9043 76.6948)" fill="#EEEEEE" font-family="'Montserrat-Regular'" font-size="6.7768">$</text>
			
				<rect x="586.463" y="104.67" transform="matrix(0.6569 -0.754 0.754 0.6569 120.7038 480.7132)" fill="none" width="4.123" height="6.131"/>
			
				<text transform="matrix(0.6219 -0.7137 0.7539 0.6569 588.4766 110.4277)" fill="#EEEEEE" font-family="'Montserrat-Regular'" font-size="6.7768">$</text>
			
				<rect x="602.6" y="118.327" transform="matrix(0.6567 -0.7541 0.7541 0.6567 116.011 497.653)" fill="none" width="4.122" height="6.132"/>
			
				<text transform="matrix(0.6219 -0.7137 0.7539 0.6569 604.6133 124.0854)" fill="#EEEEEE" font-family="'Montserrat-Regular'" font-size="6.7768">$</text>
		</g>
		<polyline fill="#0D8E47" points="592.19,116.48 596.046,119.841 628.392,53.645 623.397,59.375 		"/>
		<g>
			
				<rect x="561.213" y="63.599" transform="matrix(0.4274 -0.9041 0.9041 0.4274 270.1439 584.8862)" fill="#00A651" width="71.157" height="31.176"/>
			
				<rect x="561.213" y="63.599" transform="matrix(0.4274 -0.9041 0.9041 0.4274 270.1439 584.8862)" fill="#00A651" width="71.157" height="31.176"/>
			<g>
				<defs>
					
						<rect id="SVGID_5_" x="561.213" y="63.599" transform="matrix(0.4274 -0.9041 0.9041 0.4274 270.1439 584.8862)" width="71.157" height="31.176"/>
				</defs>
				<clipPath id="SVGID_6_">
					<use xlink:href="#SVGID_5_"  overflow="visible"/>
				</clipPath>
				
					<rect x="579.889" y="92.223" transform="matrix(0.4272 -0.9042 0.9042 0.4272 232.7494 591.1906)" clip-path="url(#SVGID_6_)" fill="#60BF83" width="6.111" height="39.371"/>
				
					<rect x="579.404" y="40.953" transform="matrix(0.9041 0.4273 -0.4273 0.9041 86.2285 -242.1502)" clip-path="url(#SVGID_6_)" fill="#60BF83" width="6.453" height="60.182"/>
				
					<rect x="608.869" y="54.883" transform="matrix(0.9041 0.4274 -0.4274 0.9041 95.0307 -253.4429)" clip-path="url(#SVGID_6_)" fill="#60BF83" width="6.454" height="60.181"/>
				
					<ellipse transform="matrix(0.4274 -0.9041 0.9041 0.4274 233.3426 575.6896)" clip-path="url(#SVGID_6_)" fill="#60BF83" cx="571.152" cy="103.631" rx="7.332" ry="7.745"/>
				
					<ellipse transform="matrix(0.4274 -0.9041 0.9041 0.4274 236.7742 603.4506)" clip-path="url(#SVGID_6_)" fill="#60BF83" cx="594.784" cy="114.803" rx="7.332" ry="7.745"/>
				
					<rect x="610.396" y="27.686" transform="matrix(-0.4274 0.9041 -0.9041 -0.4274 918.4744 -486.9761)" clip-path="url(#SVGID_6_)" fill="#60BF83" width="6.11" height="39.37"/>
				
					<ellipse transform="matrix(-0.4274 0.904 -0.904 -0.4274 895.1846 -479.9298)" clip-path="url(#SVGID_6_)" fill="#60BF83" cx="599.571" cy="43.512" rx="7.332" ry="7.744"/>
				
					<ellipse transform="matrix(-0.4273 0.9041 -0.9041 -0.4273 938.944 -485.3906)" clip-path="url(#SVGID_6_)" fill="#60BF83" cx="623.203" cy="54.684" rx="7.331" ry="7.745"/>
			</g>
			
				<ellipse transform="matrix(0.4274 -0.9041 0.9041 0.4274 270.0381 584.8981)" fill="#60BF83" cx="596.749" cy="79.276" rx="7.383" ry="9.789"/>
			
				<rect x="599.033" y="43.358" transform="matrix(0.4273 -0.9041 0.9041 0.4273 302.2996 570.0565)" fill="none" width="4.123" height="6.132"/>
			
				<text transform="matrix(0.4046 -0.8558 0.9041 0.4274 601.8145 49.0547)" fill="#EEEEEE" font-family="'Montserrat-Regular'" font-size="6.7768">$</text>
			
				<rect x="618.274" y="52.115" transform="matrix(0.4276 -0.904 0.904 0.4276 305.2 592.35)" fill="none" width="4.125" height="6.131"/>
			
				<text transform="matrix(0.4046 -0.8558 0.9041 0.4274 621.0547 57.8115)" fill="#EEEEEE" font-family="'Montserrat-Regular'" font-size="6.7768">$</text>
			
				<rect x="572.171" y="100.183" transform="matrix(0.4274 -0.9041 0.9041 0.4274 235.4844 578.2781)" fill="none" width="4.125" height="6.131"/>
			
				<text transform="matrix(0.4046 -0.8558 0.9041 0.4274 574.9531 105.8799)" fill="#EEEEEE" font-family="'Montserrat-Regular'" font-size="6.7768">$</text>
			
				<rect x="591.411" y="108.94" transform="matrix(0.4275 -0.904 0.904 0.4275 238.5349 600.6515)" fill="none" width="4.124" height="6.131"/>
			
				<text transform="matrix(0.4046 -0.8558 0.9041 0.4274 594.1914 114.6377)" fill="#EEEEEE" font-family="'Montserrat-Regular'" font-size="6.7768">$</text>
		</g>
		<polyline fill="#0D8E47" points="605.907,44.142 607.908,45.089 594.784,114.802 581.329,111.23 580.104,110.652 		"/>
		<g>
			
				<rect x="549.061" y="59.738" transform="matrix(0.1719 -0.9851 0.9851 0.1719 409.9058 638.3056)" fill="#00A651" width="71.157" height="31.177"/>
			
				<rect x="549.061" y="59.738" transform="matrix(0.1719 -0.9851 0.9851 0.1719 409.9058 638.3056)" fill="#00A651" width="71.157" height="31.177"/>
			<g>
				<defs>
					
						<rect id="SVGID_7_" x="549.061" y="59.738" transform="matrix(0.1719 -0.9851 0.9851 0.1719 409.9058 638.3056)" width="71.157" height="31.177"/>
				</defs>
				<clipPath id="SVGID_8_">
					<use xlink:href="#SVGID_7_"  overflow="visible"/>
				</clipPath>
				
					<rect x="576.922" y="90.866" transform="matrix(0.1719 -0.9851 0.9851 0.1719 371.3477 662.8816)" clip-path="url(#SVGID_8_)" fill="#60BF83" width="6.111" height="39.369"/>
				
					<rect x="565.597" y="41.146" transform="matrix(0.9851 0.1719 -0.1719 0.9851 20.709 -96.708)" clip-path="url(#SVGID_8_)" fill="#60BF83" width="6.454" height="60.182"/>
				
					<rect x="597.704" y="46.75" transform="matrix(0.9851 0.1719 -0.1719 0.9851 22.15 -102.1431)" clip-path="url(#SVGID_8_)" fill="#60BF83" width="6.454" height="60.181"/>
				
					<ellipse transform="matrix(0.172 -0.9851 0.9851 0.172 364.8869 645.5007)" clip-path="url(#SVGID_8_)" fill="#60BF83" cx="566.411" cy="105.702" rx="7.332" ry="7.745"/>
				
					<ellipse transform="matrix(0.172 -0.9851 0.9851 0.172 381.7439 674.5746)" clip-path="url(#SVGID_8_)" fill="#60BF83" cx="592.161" cy="110.197" rx="7.332" ry="7.746"/>
				
					<rect x="589.2" y="20.545" transform="matrix(-0.1717 0.9852 -0.9852 -0.1717 733.564 -536.3251)" clip-path="url(#SVGID_8_)" fill="#60BF83" width="6.109" height="39.369"/>
				
					<ellipse transform="matrix(-0.1719 0.9851 -0.9851 -0.1719 716.801 -522.1312)" clip-path="url(#SVGID_8_)" fill="#60BF83" cx="577.845" cy="40.196" rx="7.332" ry="7.745"/>
				
					<ellipse transform="matrix(-0.172 0.9851 -0.9851 -0.172 751.4459 -542.2204)" clip-path="url(#SVGID_8_)" fill="#60BF83" cx="603.595" cy="44.691" rx="7.332" ry="7.746"/>
			</g>
			
				<ellipse transform="matrix(0.1719 -0.9851 0.9851 0.1719 409.8257 638.3784)" fill="#60BF83" cx="584.622" cy="75.424" rx="7.383" ry="9.79"/>
			
				<rect x="578.026" y="39.532" transform="matrix(0.1724 -0.985 0.985 0.1724 438.1439 606.6616)" fill="none" width="4.125" height="6.13"/>
			
				<text transform="matrix(0.1628 -0.9326 0.9851 0.1719 581.4883 44.9619)" fill="#EEEEEE" font-family="'Montserrat-Regular'" font-size="6.7769">$</text>
			
				<rect x="598.901" y="42.865" transform="matrix(0.1719 -0.9851 0.9851 0.1719 452.3853 630.0461)" fill="none" width="4.123" height="6.131"/>
			
				<text transform="matrix(0.1628 -0.9326 0.9851 0.1719 602.3633 48.2949)" fill="#EEEEEE" font-family="'Montserrat-Regular'" font-size="6.7769">$</text>
			
				<rect x="567.218" y="101.45" transform="matrix(0.1722 -0.9851 0.9851 0.1722 368.301 647.2954)" fill="none" width="4.123" height="6.13"/>
			
				<text transform="matrix(0.1628 -0.9326 0.9851 0.1719 570.6807 106.8789)" fill="#EEEEEE" font-family="'Montserrat-Regular'" font-size="6.7769">$</text>
			
				<rect x="588.093" y="104.783" transform="matrix(0.172 -0.9851 0.9851 0.172 382.4283 670.6665)" fill="none" width="4.123" height="6.132"/>
			
				<text transform="matrix(0.1628 -0.9326 0.9851 0.1719 591.5537 110.2139)" fill="#EEEEEE" font-family="'Montserrat-Regular'" font-size="6.7769">$</text>
		</g>
		<polyline fill="#0D8E47" points="601.815,42.208 597.395,41.437 597.902,40.359 		"/>
	</g>
	<g>
		<g>
			<path fill="#3D3D65" d="M867.898,786.943h-20.161l-3.827,9.024h-7.025l17.648-39.98h6.911l17.478,39.98h-7.196L867.898,786.943z
				 M865.328,780.947l-7.54-17.764l-7.538,17.764H865.328z"/>
		</g>
		<g>
			<g>
				<path fill="#3D3D65" d="M904.516,778.325h-10.052v9.995h-4.284v-9.995h-10.108v-4.512h10.108v-9.995h4.284v9.995h10.052V778.325
					z"/>
			</g>
		</g>
		<g>
			<path fill="#45A2D9" d="M870.675,786.943h-20.163l-3.827,9.024h-7.024l17.648-39.98h6.911l17.478,39.98H874.5L870.675,786.943z
				 M868.104,780.947l-7.54-17.764l-7.538,17.764H868.104z"/>
		</g>
		<g>
			<path fill="#45A2D9" d="M906.93,778.325h-10.054v9.995h-4.282v-9.995h-10.11v-4.512h10.11v-9.995h4.282v9.995h10.054V778.325z"/>
		</g>
	</g>
	<g>
		<polygon fill="#45A2D8" points="78.264,629.896 77.341,629.334 85.539,615.854 98.483,624.055 109.367,619.866 116.793,615.074 
			128.479,588.23 142.326,601.688 149.001,588.912 149.959,589.414 142.612,603.476 128.847,590.096 117.654,615.807 
			109.859,620.835 109.806,620.855 98.365,625.259 85.89,617.356 		"/>
	</g>
	<g>
		<g>
			<circle fill="#45A2D8" cx="85.797" cy="616.439" r="1.246"/>
		</g>
	</g>
	<g>
		<g>
			<circle fill="#45A2D8" cx="108.992" cy="620.586" r="1.245"/>
		</g>
	</g>
	<g>
		<g>
			<circle fill="#45A2D8" cx="117.1" cy="615.514" r="1.245"/>
		</g>
	</g>
	<g>
		<g>
			<ellipse fill="#45A2D8" cx="128.629" cy="589.214" rx="1.099" ry="1.245"/>
		</g>
	</g>
	<g>
		<g>
			<circle fill="#45A2D8" cx="142.428" cy="602.653" r="1.246"/>
		</g>
	</g>
	<g>
		<g>
			<circle fill="#45A2D8" cx="149.523" cy="589.235" r="1.245"/>
		</g>
	</g>
	<g>
		<polygon fill="#FED138" points="77.873,628.479 77.233,628.09 85.343,614.755 98.215,622.909 109.192,618.686 116.676,613.856 
			128.287,587.188 142.12,600.633 148.899,587.659 149.563,588.006 142.318,601.87 128.541,588.479 117.272,614.361 
			109.534,619.355 98.133,623.742 85.587,615.795 		"/>
	</g>
	<g>
		<circle fill="#FED138" cx="85.718" cy="615.083" r="1.246"/>
	</g>
	<g>
		<circle fill="#FED138" cx="108.783" cy="619.184" r="1.246"/>
	</g>
	<g>
		<circle fill="#FED138" cx="116.975" cy="614.109" r="1.245"/>
	</g>
	<g>
		<circle fill="#FED138" cx="128.483" cy="587.894" r="1.245"/>
	</g>
	<g>
		<circle fill="#FED138" cx="142.219" cy="601.251" r="1.246"/>
	</g>
	<g>
		<circle fill="#FED138" cx="149.231" cy="587.832" r="1.245"/>
	</g>
	<g>
		<g>
			<polygon fill="#45A2D8" points="154.406,630.714 75.303,630.714 75.303,586.667 77.553,586.667 77.553,628.249 154.406,628.249 
							"/>
		</g>
	</g>
</g>
<g id="Logo">
	<g>
		<path fill="#FED139" d="M487.886,475.186c-25.849,0-46.803,20.954-46.803,46.803c0,25.849,20.955,46.803,46.803,46.803
			s46.803-20.954,46.803-46.803C534.688,496.14,513.734,475.186,487.886,475.186z M487.886,548.137
			c-15.075,0-26.147-11.072-26.147-26.147s11.072-26.147,26.147-26.147c15.075,0,26.147,11.072,26.147,26.147
			S502.961,548.137,487.886,548.137z"/>
		<path fill="#FED139" d="M526.629,459.514c0.001-0.018-0.003-0.036-0.003-0.054l0.035,0.028c-0.142-4.973-4.523-7.029-4.523-7.029
			h-63.178c-4.359,0-7.892,3.146-7.892,7.029c0,3.882,3.533,7.029,7.892,7.029h63.178c0,0,4.382-2.057,4.523-7.029L526.629,459.514z
			"/>
	</g>
	<polygon fill="#27AAE1" points="533.875,857.297 534.541,857.141 534.53,856.765 	"/>
</g>
</svg>
