<svg xmlns="http://www.w3.org/2000/svg" xmlns:xlink="http://www.w3.org/1999/xlink" width="1000" height="1000" viewBox="0 0 1000 1000">
    <g fill="none" stroke="#3D3D65" stroke-width="3" stroke-miterlimit="10">
        <path d="M676.224 179.909l131.263-22.236M582.911 194.833l108.901 4.703M666.54 187.723l-40.515-75.239M807.487 141.893L636.031 86.662M643.586 279.253l131.981-99.344M804.618 199.536L752.973 304M769.83 395.813l43.037 43.791M640.358 439.604l157.446 32.601M856.979 509.503l-17.214-29.768M727.15 551.105l126.602-31.56M860.826 523.131l-56.181 156.422M722.847 560.431l136.284 178.965M939.826 588.405l-142.022 95.759M797.804 872.453l-30.026-96.476M735.399 885.006l110.464-82.863M793.858 876.457l-96.834-59.953M697.024 808.255l62.046-38.374M762.656 761.991l-74.239-43.397M676.939 716.442l-61.686 14.813M678.375 718.594l-125.164 97.91M603.776 740.293l-79.299 119.518M566.836 804.923l154.577 76.915M603.776 728.815l-62.762-60.574M541.325 652.572l6.265-96.444M555.181 548.796l159.488 4.44M550.877 543.229l76.93-96.848M529.896 663.61l-69.398 20.554M534.358 656.992l-72.246-118.201M462.112 502.32l23.173-50.949M491.162 439.604l76.93-151.866M626.025 283.582l-43.936-1.077M563.968 279.253l-102.932-77.467M454.824 204.837l3.106 104.902M387.873 262.136l52.183 50.293M377.113 249.486L266.023 142.7M440.056 519.545l-52.183-89.947M389.755 420.636l42.59-56.965M377.113 420.636l-63.838-63.991M302.502 341.869l74.611-84.57M302.502 350.798l-29.657-57.211M572.082 201.786l-69.045 121.011M178.004 322.193l44.713 78.431M265.56 291.448l-96.371 111.359M157.993 335.561l9.044 67.246M160.85 409.263l-95.22-53.259M61.326 358.963l64.018 122.925M205.771 440.734l-54.873 128.305M127.765 495.606v69.667M137.18 489.42l96.834 12.9M241.54 493.992l18.565-46.264M358.553 562.164L254.188 442.348M376.037 425.387l-115.932 20.994M369.582 563.929l44.382-34.161M356.401 571.46l-91.185 65.681M363.88 576.84l5.702 83.116M363.88 704.607l-38.412 4.841M313.902 704.607l-48.686-62.404M235.359 642.203l-14.795 17.753M211.15 673.405l-8.526 13.449M310.943 713.483l-81.771 19.098M316.592 810.317l80.157-100.869M413.695 826.459l-1.345-88.498M420.151 840.713l45.411 31.119M412.35 842.058l.672 34.161M399.17 881.838l-82.578-33.594M269.251 947.769l29.05-82.728M255.802 952.802h-91.455M156.931 944.003l19.789-62.165M258.223 947.769l-72.088-70.474M186.135 872.722l69.667-26.899M170.534 776.694l8.546 90.648M177.985 771.092l105.791 26.314M171.609 761.805l12.105-16.851M188.287 701.369l-50.031-54.862M287.673 363.671l-36.851 39.136M241.409 507.756l-7.395 117.231M241.409 622.298L134.49 493.992M681.961 706.041L637.13 551.105M627.192 436.376l-99.612-68.665M604.136 80.564l-159.318 6.098-55.063 7.352-121.311 39.002-16.344 1.954-124.335-24.28M453.525 707.027l37.637 139.453"/>
    </g>
    <path fill="none" stroke="#3D3D65" stroke-width="3" stroke-miterlimit="10" d="M716.971 546.445L637.13 446.381v-13.269l33.714-44.472-7.891-70.294-20.948-26.747-11.994-14.415-49.905-75.398-2.497-13.999 14.692-59.881-28.333-17.216-102.932 84.141-13.363 4.297-59.8 50.358-1.883-2.421 23.939-132.608 4.035-.942-141.119 165.738-3.359 1.044-7.854-137.337h-5.562L152.128 274.678"/>
    <circle fill="#3D3D65" cx="604.136" cy="80.564" r="61.328"/>
    <circle fill="#3D3D65" cx="420.151" cy="73.033" r="50.569"/>
    <circle fill="#3D3D65" cx="807.488" cy="164.052" r="40.785"/>
    <circle fill="#3D3D65" cx="720.236" cy="356.644" r="73.063"/>
    <circle fill="#3D3D65" cx="202.624" cy="722.889" r="38.915"/>
    <circle fill="#3D3D65" cx="115.042" cy="608.518" r="59.721"/>
    <circle fill="#3D3D65" cx="767.778" cy="703.521" r="50.948"/>
    <path fill="#3D3D65" d="M576.657 509.327c0 48.477-39.298 87.769-87.771 87.769-48.476 0-87.771-39.292-87.771-87.769 0-48.475 39.296-87.771 87.771-87.771 48.473 0 87.771 39.297 87.771 87.771z"/>
    <circle fill="#3D3D65" cx="409.391" cy="690.324" r="60.715"/>
    <circle fill="#3D3D65" cx="453.525" cy="327.571" r="59.833"/>
    <circle fill="#3D3D65" cx="302.501" cy="350.799" r="25.403"/>
    <circle fill="#3D3D65" cx="229.758" cy="425.388" r="43.086"/>
    <circle fill="#3D3D65" cx="830.473" cy="465.218" r="39.831"/>
    <path fill="#3D3D65" d="M487.572 436.376c-5.528 0-10.006 4.479-10.006 10.005a10.004 10.004 0 0 0 10.006 10.006c5.526 0 10.005-4.479 10.005-10.006a10.003 10.003 0 0 0-10.005-10.005zm-.132 15.441a5.434 5.434 0 0 1-5.437-5.435 5.436 5.436 0 1 1 10.87 0 5.434 5.434 0 0 1-5.433 5.435z"/>
    <path fill="#FFF" d="M571.95 277.07c3 0 5.43 2.43 5.43 5.44 0 3-2.43 5.43-5.43 5.43s-5.431-2.43-5.431-5.43a5.432 5.432 0 0 1 5.431-5.44z"/>
    <path fill="#3D3D65" d="M572.08 272.5c5.53 0 10.01 4.48 10.01 10.01 0 5.52-4.479 10-10.01 10-5.521 0-10-4.48-10-10 0-5.53 4.48-10.01 10-10.01zm5.3 10.01a5.43 5.43 0 1 0-10.861 0c0 3 2.431 5.43 5.431 5.43s5.43-2.43 5.43-5.43z"/>
    <path fill="#FFF" d="M635.9 278.15c3 0 5.43 2.43 5.43 5.43s-2.43 5.44-5.43 5.44c-3.011 0-5.44-2.44-5.44-5.44s2.43-5.43 5.44-5.43z"/>
    <path fill="#3D3D65" d="M636.03 273.58c5.529 0 10.01 4.47 10.01 10s-4.48 10.01-10.01 10.01c-5.53 0-10-4.48-10-10.01 0-5.53 4.47-10 10-10zm5.3 10c0-3-2.43-5.43-5.43-5.43-3.011 0-5.44 2.43-5.44 5.43s2.43 5.44 5.44 5.44c3 0 5.43-2.44 5.43-5.44z"/>
    <path fill="#FFF" d="M577.48 189.4c3 0 5.43 2.43 5.43 5.43s-2.43 5.44-5.43 5.44c-3.011 0-5.44-2.44-5.44-5.44s2.43-5.43 5.44-5.43z"/>
    <path fill="#3D3D65" d="M577.61 184.83c5.529 0 10.01 4.47 10.01 10s-4.48 10.01-10.01 10.01c-5.53 0-10.011-4.48-10.011-10.01.001-5.53 4.481-10 10.011-10zm5.3 10c0-3-2.43-5.43-5.43-5.43-3.011 0-5.44 2.43-5.44 5.43s2.43 5.44 5.44 5.44c3 0 5.43-2.44 5.43-5.44z"/>
    <path fill="#FFF" d="M454.69 192.36c3 0 5.44 2.43 5.44 5.43 0 3.01-2.44 5.44-5.44 5.44s-5.43-2.43-5.43-5.44c0-3 2.43-5.43 5.43-5.43z"/>
    <path fill="#3D3D65" d="M454.82 187.79c5.53 0 10.01 4.48 10.01 10 0 5.53-4.48 10.01-10.01 10.01-5.52 0-10-4.48-10-10.01 0-5.52 4.48-10 10-10zm5.31 10c0-3-2.44-5.43-5.44-5.43s-5.43 2.43-5.43 5.43c0 3.01 2.43 5.44 5.43 5.44s5.44-2.43 5.44-5.44zM269.62 275.73c5.52 0 10 4.48 10 10 0 5.53-4.48 10.01-10 10.01-5.53 0-10.01-4.48-10.01-10.01 0-5.52 4.48-10 10.01-10zm5.3 10c0-3-2.43-5.43-5.43-5.43a5.43 5.43 0 0 0-5.44 5.43c0 3.01 2.43 5.44 5.44 5.44 3 0 5.43-2.43 5.43-5.44z"/>
    <path fill="#FFF" d="M269.49 280.3c3 0 5.43 2.43 5.43 5.43a5.43 5.43 0 0 1-5.43 5.44c-3.01 0-5.44-2.43-5.44-5.44 0-3 2.43-5.43 5.44-5.43zM381.61 248.81c3 0 5.43 2.43 5.43 5.43s-2.43 5.44-5.43 5.44c-3.01 0-5.44-2.44-5.44-5.44s2.43-5.43 5.44-5.43z"/>
    <path fill="#3D3D65" d="M381.74 244.24c5.53 0 10 4.47 10 10s-4.47 10.01-10 10.01-10.01-4.48-10.01-10.01c0-5.53 4.48-10 10.01-10zm5.3 10c0-3-2.43-5.43-5.43-5.43-3.01 0-5.44 2.43-5.44 5.43s2.43 5.44 5.44 5.44c3 0 5.43-2.44 5.43-5.44zM261.76 127.52c5.53 0 10.01 4.48 10.01 10 0 5.53-4.48 10.01-10.01 10.01-5.52 0-10-4.48-10-10.01 0-5.52 4.48-10 10-10zm5.3 10.01a5.43 5.43 0 1 0-10.86 0c0 3 2.43 5.43 5.43 5.43s5.43-2.43 5.43-5.43z"/>
    <path fill="#FFF" d="M261.63 132.09c3 0 5.43 2.43 5.43 5.44 0 3-2.43 5.43-5.43 5.43s-5.43-2.43-5.43-5.43a5.43 5.43 0 0 1 5.43-5.44zM167.87 405.19c3 0 5.43 2.44 5.43 5.44s-2.43 5.44-5.43 5.44c-3.01 0-5.44-2.44-5.44-5.44s2.43-5.44 5.44-5.44z"/>
    <path fill="#3D3D65" d="M168 400.62c5.53 0 10 4.48 10 10.01 0 5.53-4.47 10.01-10 10.01s-10.01-4.48-10.01-10.01c0-5.53 4.48-10.01 10.01-10.01zm5.3 10.01c0-3-2.43-5.44-5.43-5.44-3.01 0-5.44 2.44-5.44 5.44s2.43 5.44 5.44 5.44c3 0 5.43-2.44 5.43-5.44z"/>
    <path fill="#FFF" d="M59.49 346.44c3 0 5.44 2.43 5.44 5.44 0 3-2.44 5.43-5.44 5.43s-5.43-2.43-5.43-5.43a5.43 5.43 0 0 1 5.43-5.44z"/>
    <path fill="#3D3D65" d="M59.62 341.87c5.53 0 10.01 4.48 10.01 10 0 5.53-4.48 10.01-10.01 10.01-5.52 0-10-4.48-10-10.01 0-5.52 4.48-10 10-10zm5.31 10.01c0-3.01-2.44-5.44-5.44-5.44s-5.43 2.43-5.43 5.44c0 3 2.43 5.43 5.43 5.43s5.44-2.43 5.44-5.43zM129.43 478c5.53 0 10 4.48 10 10.01 0 5.53-4.47 10.01-10 10.01s-10.01-4.48-10.01-10.01c0-5.53 4.48-10.01 10.01-10.01zm5.3 10.01c0-3-2.43-5.44-5.43-5.44-3.01 0-5.44 2.44-5.44 5.44s2.43 5.44 5.44 5.44c3 0 5.43-2.44 5.43-5.44z"/>
    <path fill="#FFF" d="M129.3 482.57c3 0 5.43 2.44 5.43 5.44s-2.43 5.44-5.43 5.44c-3.01 0-5.44-2.44-5.44-5.44s2.43-5.44 5.44-5.44zM241.41 496.88c3 0 5.43 2.44 5.43 5.44 0 3-2.43 5.439-5.43 5.439a5.44 5.44 0 1 1 0-10.879z"/>
    <path fill="#3D3D65" d="M241.54 492.31c5.53 0 10 4.48 10 10.01 0 5.529-4.47 10.01-10 10.01s-10.01-4.48-10.01-10.01c0-5.53 4.48-10.01 10.01-10.01zm5.3 10.01c0-3-2.43-5.44-5.43-5.44a5.44 5.44 0 1 0 0 10.879c3 .001 5.43-2.439 5.43-5.439z"/>
    <path fill="#FFF" d="M383.76 419.95c3 0 5.43 2.43 5.43 5.44 0 3-2.43 5.43-5.43 5.43a5.43 5.43 0 0 1-5.44-5.43c0-3.01 2.43-5.44 5.44-5.44z"/>
    <path fill="#3D3D65" d="M383.89 415.38c5.53 0 10.01 4.48 10.01 10.01 0 5.52-4.48 10-10.01 10-5.53 0-10-4.48-10-10 0-5.53 4.47-10.01 10-10.01zm5.3 10.01a5.43 5.43 0 0 0-5.43-5.44c-3.01 0-5.44 2.43-5.44 5.44 0 3 2.43 5.43 5.44 5.43 3 0 5.43-2.43 5.43-5.43z"/>
    <g>
        <path fill="#3D3D65" d="M363.88 558.94c5.53 0 10.01 4.479 10.01 10 0 5.529-4.48 10.01-10.01 10.01-5.53 0-10.01-4.48-10.01-10.01 0-5.52 4.48-10 10.01-10zm5.3 10c0-3-2.43-5.431-5.43-5.431a5.432 5.432 0 0 0-5.44 5.431c0 3.01 2.43 5.439 5.44 5.439a5.43 5.43 0 0 0 5.43-5.439z"/>
        <path fill="#FFF" d="M363.75 563.51c3 0 5.43 2.431 5.43 5.431a5.43 5.43 0 0 1-5.43 5.439c-3.01 0-5.44-2.43-5.44-5.439a5.431 5.431 0 0 1 5.44-5.431z"/>
    </g>
    <g>
        <path fill="#FFF" d="M537.46 656.02c3 0 5.43 2.44 5.43 5.44s-2.43 5.43-5.43 5.43c-3.01 0-5.44-2.43-5.44-5.43s2.43-5.44 5.44-5.44z"/>
        <path fill="#3D3D65" d="M537.59 651.45c5.521 0 10 4.479 10 10.01s-4.479 10-10 10c-5.53 0-10.01-4.47-10.01-10s4.48-10.01 10.01-10.01zm5.3 10.01c0-3-2.43-5.44-5.43-5.44-3.01 0-5.44 2.44-5.44 5.44s2.431 5.43 5.44 5.43c3 0 5.43-2.43 5.43-5.43z"/>
    </g>
    <path fill="#3D3D65" d="M547.591 538.791c-5.527 0-10.006 4.479-10.006 10.006s4.479 10.005 10.006 10.005 10.005-4.478 10.005-10.005c0-5.526-4.478-10.006-10.005-10.006zm-.131 15.441a5.434 5.434 0 0 1-5.437-5.435 5.436 5.436 0 1 1 10.87 0 5.433 5.433 0 0 1-5.433 5.435z"/>
    <g>
        <path fill="#FFF" d="M632.63 434.17c3 0 5.43 2.43 5.43 5.44 0 3-2.43 5.43-5.43 5.43a5.43 5.43 0 0 1-5.439-5.43 5.431 5.431 0 0 1 5.439-5.44z"/>
        <path fill="#3D3D65" d="M632.76 429.6c5.53 0 10.01 4.48 10.01 10 0 5.53-4.479 10.01-10.01 10.01-5.529 0-10.01-4.48-10.01-10.01 0-5.52 4.48-10 10.01-10zm5.3 10.01a5.43 5.43 0 0 0-5.43-5.44 5.432 5.432 0 0 0-5.439 5.44c0 3 2.43 5.43 5.439 5.43 3 0 5.43-2.43 5.43-5.43z"/>
    </g>
    <g>
        <path fill="#FFF" d="M720.11 547.8c3 0 5.43 2.431 5.43 5.44 0 3-2.43 5.43-5.43 5.43a5.43 5.43 0 0 1-5.44-5.43c0-3.01 2.43-5.44 5.44-5.44z"/>
        <path fill="#3D3D65" d="M720.24 543.23c5.52 0 10 4.479 10 10.01 0 5.52-4.48 10-10 10-5.53 0-10.01-4.48-10.01-10 0-5.53 4.48-10.01 10.01-10.01zm5.3 10.01a5.43 5.43 0 0 0-5.43-5.44 5.433 5.433 0 0 0-5.44 5.44c0 3 2.43 5.43 5.44 5.43 3 0 5.43-2.43 5.43-5.43z"/>
    </g>
    <g>
        <path fill="#FFF" d="M860.7 510.69c3 0 5.43 2.439 5.43 5.439s-2.43 5.44-5.43 5.44a5.44 5.44 0 1 1 0-10.879z"/>
        <path fill="#3D3D65" d="M860.83 506.12c5.52 0 10 4.479 10 10.01s-4.48 10-10 10c-5.53 0-10.01-4.47-10.01-10s4.48-10.01 10.01-10.01zm5.3 10.01c0-3-2.43-5.439-5.43-5.439a5.44 5.44 0 0 0 0 10.879c3 0 5.43-2.44 5.43-5.44z"/>
    </g>
    <g>
        <path fill="#FFF" d="M608.31 728.3c3 0 5.431 2.44 5.431 5.44s-2.431 5.43-5.431 5.43c-3.01 0-5.439-2.43-5.439-5.43s2.429-5.44 5.439-5.44z"/>
        <path fill="#3D3D65" d="M608.44 723.73c5.529 0 10 4.479 10 10.01 0 5.529-4.471 10-10 10-5.53 0-10.011-4.471-10.011-10 .001-5.53 4.481-10.01 10.011-10.01zm5.3 10.01c0-3-2.431-5.44-5.431-5.44-3.01 0-5.439 2.44-5.439 5.44s2.43 5.43 5.439 5.43a5.429 5.429 0 0 0 5.431-5.43z"/>
    </g>
    <g>
        <path fill="#FFF" d="M690.53 806.71c3 0 5.43 2.44 5.43 5.44s-2.43 5.43-5.43 5.43-5.431-2.43-5.431-5.43 2.431-5.44 5.431-5.44z"/>
        <path fill="#3D3D65" d="M690.66 802.14c5.53 0 10.01 4.48 10.01 10.011 0 5.529-4.479 10-10.01 10-5.521 0-10-4.471-10-10 0-5.531 4.48-10.011 10-10.011zm5.3 10.01c0-3-2.43-5.44-5.43-5.44s-5.431 2.44-5.431 5.44 2.431 5.43 5.431 5.43 5.43-2.43 5.43-5.43z"/>
    </g>
    <g>
        <path fill="#FFF" d="M800.52 874.25c3 0 5.431 2.43 5.431 5.44 0 3-2.431 5.43-5.431 5.43a5.43 5.43 0 0 1-5.439-5.43 5.431 5.431 0 0 1 5.439-5.44z"/>
        <path fill="#3D3D65" d="M800.65 869.68c5.52 0 10 4.48 10 10.011 0 5.52-4.48 10-10 10-5.53 0-10.011-4.48-10.011-10 .001-5.531 4.481-10.011 10.011-10.011zm5.3 10.01a5.431 5.431 0 0 0-5.431-5.44 5.432 5.432 0 0 0-5.439 5.44c0 3 2.43 5.43 5.439 5.43a5.429 5.429 0 0 0 5.431-5.43z"/>
    </g>
    <g>
        <path fill="#FFF" d="M727.96 881.03c3 0 5.43 2.43 5.43 5.43a5.43 5.43 0 0 1-5.43 5.44 5.434 5.434 0 0 1-5.44-5.44c0-3 2.43-5.43 5.44-5.43z"/>
        <path fill="#3D3D65" d="M728.09 876.46c5.53 0 10 4.48 10 10 0 5.53-4.47 10.01-10 10.01s-10.01-4.479-10.01-10.01c0-5.52 4.48-10 10.01-10zm5.3 10c0-3-2.43-5.43-5.43-5.43a5.43 5.43 0 0 0-5.44 5.43c0 3.01 2.431 5.44 5.44 5.44 3 0 5.43-2.43 5.43-5.44z"/>
    </g>
    <g>
        <path fill="#FFF" d="M414.56 828.72c3 0 5.43 2.431 5.43 5.44 0 3-2.43 5.43-5.43 5.43s-5.44-2.43-5.44-5.43a5.44 5.44 0 0 1 5.44-5.44z"/>
        <path fill="#3D3D65" d="M414.69 824.15c5.53 0 10.01 4.479 10.01 10.01 0 5.52-4.48 10-10.01 10-5.53 0-10-4.48-10-10 0-5.53 4.47-10.01 10-10.01zm5.3 10.01c0-3.01-2.43-5.44-5.43-5.44s-5.44 2.431-5.44 5.44c0 3 2.44 5.43 5.44 5.43s5.43-2.43 5.43-5.43z"/>
    </g>
    <g>
        <path fill="#FFF" d="M407.11 876.4c3 0 5.43 2.43 5.43 5.439 0 3-2.43 5.43-5.43 5.43a5.43 5.43 0 0 1-5.44-5.43 5.433 5.433 0 0 1 5.44-5.439z"/>
        <path fill="#3D3D65" d="M407.24 871.83c5.53 0 10 4.479 10 10.01 0 5.521-4.47 10-10 10s-10.01-4.479-10.01-10c0-5.53 4.48-10.01 10.01-10.01zm5.3 10.01a5.43 5.43 0 0 0-5.43-5.439c-3.01 0-5.44 2.43-5.44 5.439 0 3 2.43 5.43 5.44 5.43 3 0 5.43-2.43 5.43-5.43z"/>
    </g>
    <g>
        <path fill="#3D3D65" d="M317.9 701.37c5.53 0 10 4.479 10 10.01 0 5.521-4.47 10-10 10s-10.01-4.479-10.01-10c0-5.53 4.48-10.01 10.01-10.01zm5.3 10.01a5.43 5.43 0 0 0-5.43-5.439c-3.01 0-5.44 2.43-5.44 5.439 0 3 2.43 5.43 5.44 5.43 3 0 5.43-2.43 5.43-5.43z"/>
        <path fill="#FFF" d="M317.77 705.94c3 0 5.43 2.43 5.43 5.439 0 3-2.43 5.43-5.43 5.43a5.43 5.43 0 0 1-5.44-5.43 5.433 5.433 0 0 1 5.44-5.439z"/>
    </g>
    <g>
        <path fill="#FFF" d="M216.8 662.81c3 0 5.43 2.431 5.43 5.431a5.43 5.43 0 1 1-10.86 0 5.429 5.429 0 0 1 5.43-5.431z"/>
        <path fill="#3D3D65" d="M216.93 658.24c5.53 0 10.01 4.479 10.01 10 0 5.529-4.48 10.01-10.01 10.01-5.52 0-10-4.48-10-10.01 0-5.52 4.48-10 10-10zm5.3 10a5.43 5.43 0 1 0-10.86 0 5.43 5.43 0 1 0 10.86 0z"/>
    </g>
    <g>
        <path fill="#FFF" d="M168.94 763.9c3 0 5.44 2.439 5.44 5.439s-2.44 5.44-5.44 5.44-5.43-2.44-5.43-5.44 2.43-5.439 5.43-5.439z"/>
        <path fill="#3D3D65" d="M169.07 759.33c5.53 0 10.01 4.479 10.01 10.01s-4.48 10-10.01 10c-5.52 0-10-4.47-10-10s4.48-10.01 10-10.01zm5.31 10.01c0-3-2.44-5.439-5.44-5.439s-5.43 2.439-5.43 5.439 2.43 5.44 5.43 5.44 5.44-2.44 5.44-5.44z"/>
    </g>
    <g>
        <path fill="#FFF" d="M178.95 869.62c3 0 5.43 2.439 5.43 5.439s-2.43 5.44-5.43 5.44a5.44 5.44 0 1 1 0-10.879z"/>
        <path fill="#3D3D65" d="M179.08 865.05c5.53 0 10 4.48 10 10.01 0 5.53-4.47 10-10 10s-10.01-4.47-10.01-10 4.48-10.01 10.01-10.01zm5.3 10.01c0-3-2.43-5.439-5.43-5.439a5.44 5.44 0 1 0 0 10.879c3 0 5.43-2.44 5.43-5.44z"/>
    </g>
    <g>
        <path fill="#FFF" d="M263.57 947.37c3 0 5.43 2.43 5.43 5.43s-2.43 5.44-5.43 5.44-5.43-2.44-5.43-5.44 2.43-5.43 5.43-5.43z"/>
        <path fill="#3D3D65" d="M263.7 942.79c5.53 0 10.01 4.479 10.01 10.01s-4.48 10.01-10.01 10.01c-5.52 0-10-4.479-10-10.01s4.48-10.01 10-10.01zm5.3 10.01c0-3-2.43-5.43-5.43-5.43s-5.43 2.43-5.43 5.43 2.43 5.44 5.43 5.44 5.43-2.44 5.43-5.44z"/>
    </g>
    <g>
        <path fill="#FFF" d="M156.8 946.29c3 0 5.43 2.43 5.43 5.44 0 3-2.43 5.43-5.43 5.43s-5.44-2.43-5.44-5.43a5.44 5.44 0 0 1 5.44-5.44z"/>
        <path fill="#3D3D65" d="M156.93 941.72c5.53 0 10.01 4.48 10.01 10.011 0 5.52-4.48 10-10.01 10-5.53 0-10-4.48-10-10 0-5.531 4.47-10.011 10-10.011zm5.3 10.01c0-3.011-2.43-5.44-5.43-5.44s-5.44 2.43-5.44 5.44c0 3 2.44 5.43 5.44 5.43s5.43-2.43 5.43-5.43z"/>
    </g>
    <g>
        <path fill="#FFF" d="M946.3 579.21c3 0 5.44 2.44 5.44 5.44s-2.44 5.43-5.44 5.43-5.43-2.43-5.43-5.43 2.43-5.44 5.43-5.44z"/>
        <path fill="#3D3D65" d="M946.44 574.64c5.52 0 10 4.48 10 10.011 0 5.529-4.48 10-10 10-5.53 0-10.011-4.471-10.011-10 .001-5.531 4.481-10.011 10.011-10.011zm5.3 10.01c0-3-2.44-5.44-5.44-5.44s-5.43 2.44-5.43 5.44 2.43 5.43 5.43 5.43 5.44-2.43 5.44-5.43z"/>
    </g>
    <g>
        <path fill="#3D3D65" d="M122.12 98.89c5.52 0 10 4.48 10 10.01 0 5.52-4.48 10-10 10-5.53 0-10.01-4.48-10.01-10 0-5.53 4.48-10.01 10.01-10.01zm5.3 10.01c0-3-2.43-5.44-5.43-5.44-3.01 0-5.44 2.44-5.44 5.44s2.43 5.43 5.44 5.43c3 0 5.43-2.43 5.43-5.43z"/>
        <path fill="#FFF" d="M121.99 103.46c3 0 5.43 2.44 5.43 5.44s-2.43 5.43-5.43 5.43c-3.01 0-5.44-2.43-5.44-5.43s2.43-5.44 5.44-5.44z"/>
    </g>
    <g>
        <path fill="#FFF" d="M766.57 762.83c3 0 5.43 2.43 5.43 5.43a5.43 5.43 0 1 1-10.861 0 5.43 5.43 0 0 1 5.431-5.43z"/>
        <path fill="#3D3D65" d="M766.7 758.26c5.53 0 10.01 4.48 10.01 10 0 5.53-4.479 10.01-10.01 10.01-5.521 0-10-4.479-10-10.01 0-5.52 4.48-10 10-10zm5.3 10c0-3-2.43-5.43-5.43-5.43s-5.431 2.43-5.431 5.43a5.432 5.432 0 1 0 10.861 0z"/>
    </g>
    <g>
        <path fill="#FFF" d="M683.75 708.09c3.01 0 5.44 2.43 5.44 5.44 0 3-2.431 5.43-5.44 5.43-3 0-5.43-2.43-5.43-5.43a5.43 5.43 0 0 1 5.43-5.44z"/>
        <path fill="#3D3D65" d="M683.89 703.52c5.521 0 10 4.48 10 10.011 0 5.52-4.479 10-10 10-5.529 0-10.01-4.48-10.01-10 0-5.531 4.48-10.011 10.01-10.011zm5.3 10.01a5.433 5.433 0 0 0-5.44-5.44c-3 0-5.43 2.43-5.43 5.44 0 3 2.43 5.43 5.43 5.43a5.43 5.43 0 0 0 5.44-5.43z"/>
    </g>
    <g fill="#FED139">
        <circle cx="286.917" cy="826.458" r="47.525"/>
        <circle cx="248.001" cy="637.141" r="26.469"/>
        <circle cx="152.128" cy="299.073" r="45.908"/>
        <circle cx="869.228" cy="777.947" r="44.208"/>
        <circle cx="665.464" cy="187.788" r="39.438"/>
        <circle cx="500" cy="871.833" r="40.467"/>
    </g>
    <g>
        <path fill="#F1F2F2" d="M759.773 357.35c0-10.577-4.31-20.153-11.274-27.084a38.464 38.464 0 0 0-27.218-11.219 38.462 38.462 0 0 0-27.218 11.219c-6.965 6.931-11.274 16.507-11.274 27.084 0 4.772.878 9.339 2.479 13.553a38.289 38.289 0 0 0 6.832 11.425v.004-.003l-1.643 1.634-1.642 1.633a42.761 42.761 0 0 1-7.75-12.849 42.56 42.56 0 0 1-2.816-15.275c0-11.838 4.822-22.556 12.618-30.314a43.056 43.056 0 0 1 30.464-12.557 43.047 43.047 0 0 1 30.462 12.557c7.797 7.758 12.618 18.476 12.618 30.314"/>
        <path fill="#EE2F27" d="M683.28 329.093l-4.176-3.854c-6.354 8.708-11.419 19.541-11.419 33.281 0 13.486 4.971 25.812 13.178 35.246l4.096-4.095v-.001c-7.235-8.405-11.611-19.342-11.611-31.303 0-11.696 3.545-20.456 9.932-29.274z"/>
        <path fill="#3C9244" d="M759.394 329.093c6.148 8.068 9.961 18.347 9.961 29.274 0 11.893-4.329 22.775-11.492 31.161v.005l.001-.002 4.162 4.163c8.17-9.425 13.113-21.722 13.113-35.174 0-13.018-3.655-22.824-11.548-33.281l-4.197 3.854z"/>
        <path fill="#FED139" d="M683.28 329.093c8.805-10.436 23.348-18.729 38.071-18.729 15.49 0 29.265 7.34 38.042 18.729l4.197-3.854c-9.856-11.782-25.617-20.446-42.178-20.446-15.841 0-31.213 6.854-42.309 20.446l4.177 3.854z"/>
        <circle fill="#F1F2F2" cx="722.56" cy="359.975" r="6.565"/>
        <path fill="none" stroke="#F1F2F2" stroke-width="3" stroke-miterlimit="10" d="M722.561 359.975l34.848-37.178"/>
        <g fill="#3D3D65">
            <path d="M504.898 862.311c.593.748.784 1.636.573 2.665l-5.317 25.785c-.289 1.4-1.118 2.475-2.485 3.223-1.462.748-2.725.748-3.785 0s-1.445-1.822-1.156-3.223l5.314-25.785a3.549 3.549 0 0 1 .74-1.541c.869-1.495 2.096-2.243 3.684-2.243 1.122-.001 1.931.375 2.432 1.119zM507.589 848.576c.666.844.887 1.822.655 2.947l-.115.557c-.29 1.4-1.119 2.48-2.485 3.223-1.462.748-2.725.748-3.785 0-1.062-.742-1.445-1.822-1.158-3.223l.115-.557a3.33 3.33 0 0 1 .543-1.265c.773-1.49 1.975-2.334 3.602-2.525 1.064-.179 1.942.102 2.628.843z"/>
            <path d="M502.466 861.191c-2.514-.399-7.82 4.179-9.521 5.922-.43.444-1.392 1.377-1.459 1.989-.028.231.099.895.332.878 1.713-.156 5.478-4.1 7.727-3.295"/>
            <path d="M497.733 867.529c0-.405-1.617-.579-2.388.045-.876.719 2.7-2.464 2.7-2.464M495.209 894.518c2.513.398 7.819-4.178 9.521-5.923.43-.443 1.392-1.372 1.463-1.99.025-.23-.1-.894-.333-.877-1.712.157-5.479 4.1-7.728 3.296"/>
            <path d="M499.941 888.186c0 .398 1.619.578 2.387-.052.878-.719-2.696 2.464-2.696 2.464"/>
        </g>
        <g fill="#45A2D8">
            <path d="M507.235 862.311c.59.748.781 1.636.57 2.665l-5.314 25.785c-.29 1.4-1.119 2.475-2.488 3.223-1.463.748-2.723.748-3.782 0-1.063-.748-1.448-1.822-1.159-3.223l5.318-25.785a3.53 3.53 0 0 1 .736-1.541c.869-1.495 2.098-2.243 3.686-2.243 1.123-.001 1.932.375 2.433 1.119zM509.927 848.576c.665.844.885 1.822.654 2.947l-.118.557c-.287 1.4-1.116 2.48-2.485 3.223-1.462.748-2.722.748-3.781 0-1.064-.742-1.449-1.822-1.16-3.223l.116-.557c.096-.473.275-.889.54-1.265.775-1.49 1.977-2.334 3.604-2.525 1.062-.179 1.94.102 2.63.843z"/>
            <path d="M504.802 861.191c-2.513-.399-7.818 4.179-9.523 5.922-.427.444-1.389 1.377-1.459 1.989-.025.231.099.895.332.878 1.713-.156 5.48-4.1 7.727-3.295"/>
            <path d="M500.069 867.529c0-.405-1.619-.579-2.387.045-.877.719 2.697-2.464 2.697-2.464M497.545 894.518c2.515.398 7.82-4.178 9.521-5.923.432-.443 1.393-1.372 1.46-1.99.028-.23-.099-.894-.332-.877-1.712.157-5.479 4.1-7.727 3.296"/>
            <path d="M502.277 888.186c0 .398 1.616.578 2.388-.052.877-.719-2.699 2.464-2.699 2.464"/>
        </g>
        <path fill="#FED139" d="M447.154 370.872l-4.7-1.157 18.427-74.863 4.7 1.157z"/>
        <path fill="#FED139" d="M465.344 298.523l-4.701-1.157 1.105-4.487 4.701 1.157z"/>
        <path fill="#45A2D8" d="M461.964 300.606l-31.779-1.955 4.035-3.644 28.137 2.173zM464.944 298.518s16.737 3.814 24.459 13.873c0 0-20.909-11.719-25.368-10.172"/>
        <path fill="#45A2D8" d="M465.404 307.078l-9.517-2.336 2.586-10.535 9.517 2.336zM434.594 684.238s-1.765-3.064 1.085-5.154c2.852-2.09 1.337-5.298 1.389-8.187.027-1.532 2.103-6.745 8.414.95 6.311 7.697-7.016 14.533-10.888 12.391zM380.259 688.412s10.009 1.223 4.897 9.436c-5.115 8.215 11.864 23.795-3.907 22.369s-9.241-25.796-.99-31.805z"/>
        <path fill-rule="evenodd" clip-rule="evenodd" fill="#3D3D65" d="M406.196 713.249l3.48.756s.324-1.351.713-2.675c.384-1.326.839-2.619.839-2.619l-3.389-1.062s-.487 1.387-.893 2.787c-.41 1.401-.75 2.813-.75 2.813zM403.737 725.966l3.547.396s.169-1.392.383-2.772c.208-1.382.461-2.75.461-2.75l-3.519-.576s-.263 1.423-.477 2.849c-.22 1.424-.395 2.853-.395 2.853zM403.037 734.836l3.568.117s.051-1.396.139-2.794c.086-1.399.207-2.794.207-2.794l-3.561-.272s-.124 1.435-.211 2.868c-.09 1.436-.142 2.875-.142 2.875zM427.89 695.293l-1.425 3.089.678.295c.377.231.906.499 1.364.877.116.092.244.167.35.268.108.1.212.196.313.292.206.187.403.357.541.534l.357.405c.087.097.136.155.136.155l2.86-2.017s-.064-.078-.18-.21c-.116-.13-.283-.319-.481-.545-.19-.234-.455-.473-.736-.73a64.05 64.05 0 0 0-.432-.397c-.148-.135-.322-.248-.483-.372-.638-.517-1.374-.909-1.911-1.221l-.951-.423zM416.323 696.085l1.932 2.832s.065-.036.177-.102c.114-.063.27-.166.471-.254.392-.207.938-.417 1.494-.585.565-.142 1.14-.256 1.587-.277.222-.02.406-.035.54-.03l.206-.001-.013-3.367-.29.003a7.5 7.5 0 0 0-.762.043c-.632.034-1.469.19-2.286.403-.811.238-1.596.549-2.148.838-.285.129-.503.267-.661.355s-.247.142-.247.142zM409.289 704.506l3.241 1.416.381-.748.411-.75c.158-.267.326-.555.5-.835.354-.556.723-1.096 1.022-1.478.291-.39.502-.628.502-.628l-2.798-2.092s-.259.293-.605.755a23.629 23.629 0 0 0-1.195 1.729c-.201.323-.392.648-.571.953l-.463.844c-.256.5-.425.834-.425.834zM426.016 721.62l-1.198-3.172-.21.071c-.137.04-.318.125-.561.177-.241.057-.522.124-.822.193l-.463.111c-.159.038-.329.052-.493.078-.665.097-1.325.211-1.843.22l-.852.055.153 3.364.993-.063c.595-.014 1.387-.145 2.178-.26.197-.033.396-.053.589-.097.193-.044.382-.088.566-.134.367-.085.708-.167 1.002-.237.294-.067.529-.168.698-.22l.263-.086zM434.667 714.449l-3.229-1.438-.366.649c-.097.201-.258.409-.421.637-.164.228-.32.483-.534.697-.205.221-.388.456-.59.653-.211.191-.406.37-.575.521-.16.162-.318.271-.428.347l-.17.125 2.212 2.643.224-.164c.144-.104.351-.25.567-.461l.764-.695c.27-.265.521-.576.791-.874.279-.289.496-.625.714-.929.216-.305.425-.585.558-.851l.483-.86zM435.423 703.653l-3.419.974s.028.07.068.196l.133.533c.056.221.132.475.165.759.037.281.109.577.127.879l.062.887-.018.773c-.004.113-.001.218-.008.309l-.029.236-.025.206 3.552.352.031-.265.034-.304c.009-.118.009-.251.013-.396l.021-.987-.078-1.13c-.027-.386-.111-.765-.161-1.122-.046-.359-.138-.687-.209-.968l-.175-.681c-.049-.159-.084-.251-.084-.251zM399.128 708.627l3.524-.727-.032-.212c-.021-.134-.054-.325-.063-.558-.032-.466-.093-1.083-.073-1.704-.016-.62.045-1.239.075-1.704.011-.229.038-.428.059-.57l.03-.221-3.55-.374-.034.256a7.074 7.074 0 0 0-.069.682c-.037.571-.109 1.331-.088 2.095-.02.764.056 1.523.099 2.093.015.285.054.522.081.686l.041.258zM404.167 718.205l2.565-2.489-.597-.532c-.165-.173-.345-.385-.547-.605l-.308-.342c-.091-.127-.184-.253-.277-.381-.178-.261-.383-.507-.528-.763l-.4-.699c-.124-.202-.2-.384-.254-.509a36.594 36.594 0 0 1-.087-.197l-3.251 1.583.109.24c.068.152.162.374.315.62.144.252.312.542.494.855.178.314.429.616.648.933l.341.47.375.419c.245.271.469.528.672.74l.73.657zM414.581 722.491l.651-3.317-.811-.127c-.243-.042-.529-.076-.83-.139l-.936-.226-.475-.117c-.157-.036-.303-.097-.45-.143-.29-.098-.561-.19-.793-.267a3.779 3.779 0 0 1-.551-.217 8.462 8.462 0 0 0-.204-.09l-1.795 2.986.251.114c.079.035.176.077.287.129.112.046.245.085.386.138.285.097.617.21.972.333.179.057.36.13.552.18l.583.146c.391.096.782.191 1.149.283.369.079.72.123 1.018.175l.996.159zM411.823 680.407l2.691 2.212.186-.199c.115-.13.294-.303.484-.536.188-.233.409-.503.645-.793.117-.147.242-.295.362-.451l.344-.488c.227-.33.468-.649.666-.97l.529-.885.209-.353.144-.285.125-.249-3.221-1.455-.104.208-.117.237a79.31 79.31 0 0 0-.178.297l-.446.748c-.166.27-.377.544-.569.826l-.293.417c-.103.135-.212.263-.313.39l-.557.687c-.162.202-.323.354-.423.466l-.164.176zM404.692 688.301l3.003 1.822.483-.698c.297-.415.719-.948 1.138-1.484l.65-.759a9.12 9.12 0 0 1 .582-.648l.586-.615-2.62-2.287s-.263.274-.656.688c-.201.203-.421.452-.648.722l-.722.847c-.465.592-.932 1.185-1.261 1.643l-.535.769zM400.096 697.867l3.438.912.25-.795c.139-.48.402-1.102.627-1.731.267-.619.522-1.241.742-1.697l.374-.757-3.225-1.444-.412.835c-.242.503-.526 1.189-.82 1.873-.252.698-.538 1.385-.696 1.921l-.278.883zM404.958 660.359l-.425-3.341s-.417.063-1.044.161l-.505.079c-.174.04-.359.079-.55.122l-1.194.277c-.395.117-.789.234-1.16.347-.371.11-.716.214-.999.327-.572.215-.954.355-.954.355l1.332 3.113.84-.313c.25-.101.55-.191.871-.285l1.006-.304 1.018-.232.468-.107c.149-.021.292-.044.422-.062l.874-.137zM413.848 663.509l2.556-2.353s-.083-.075-.225-.211c-.145-.131-.34-.335-.615-.532-.271-.201-.577-.454-.928-.687-.36-.219-.741-.461-1.135-.679l-1.19-.565c-.393-.143-.76-.277-1.075-.39-.313-.124-.584-.174-.771-.229l-.294-.075-.93 3.25.227.059c.141.042.355.077.588.173l.811.293.881.419c.288.159.562.341.829.495.256.169.472.354.67.497.202.139.335.29.44.383l.161.152zM416.369 671.924l3.526.531.038-.281.09-.745c.048-.309.052-.673.062-1.063l.013-.605c-.007-.205-.025-.416-.04-.626l-.046-.626c-.018-.207-.064-.411-.095-.607-.073-.394-.119-.762-.22-1.071l-.213-.751c-.049-.182-.092-.281-.091-.281l-3.39 1.057s.033.073.066.208l.157.554c.08.226.107.507.164.8.022.149.062.298.072.456l.034.477c.01.161.026.318.033.478l-.013.467c-.008.302-.007.585-.048.826l-.071.585-.028.217z"/>
        <path fill-rule="evenodd" clip-rule="evenodd" fill="#FED139" d="M407.896 712.93l3.48.752s.325-1.349.714-2.672c.384-1.326.839-2.62.839-2.62l-3.389-1.061s-.487 1.385-.893 2.788c-.412 1.4-.751 2.813-.751 2.813zM405.438 725.646l3.547.392s.169-1.388.383-2.77c.208-1.382.461-2.752.461-2.752l-3.519-.573s-.262 1.421-.477 2.849c-.221 1.424-.395 2.854-.395 2.854zM404.737 734.516l3.57.116s.05-1.395.138-2.793c.085-1.399.206-2.795.206-2.795l-3.559-.271s-.124 1.434-.212 2.869a121.486 121.486 0 0 0-.143 2.874zM429.591 694.973l-1.425 3.088.677.297c.378.231.907.498 1.364.876.117.091.245.167.352.267.106.101.212.198.313.293.205.188.402.356.54.534.149.167.271.307.358.405l.135.154 2.86-2.016s-.064-.077-.18-.209l-.481-.548c-.189-.234-.455-.473-.735-.729-.14-.129-.285-.263-.433-.397-.148-.135-.322-.247-.483-.374-.637-.516-1.374-.907-1.91-1.219-.572-.252-.952-.422-.952-.422zM418.024 695.763l1.931 2.833.178-.102c.113-.062.269-.164.472-.252.391-.209.936-.417 1.493-.585.566-.143 1.14-.257 1.586-.277a4.2 4.2 0 0 1 .539-.031l.207-.001-.014-3.367-.288.003a6.93 6.93 0 0 0-.762.043c-.632.033-1.469.19-2.286.404-.81.236-1.596.546-2.149.835-.285.131-.502.269-.661.356-.156.091-.246.141-.246.141zM410.989 704.187l3.242 1.414.381-.747.411-.75c.158-.268.326-.554.5-.835a20.01 20.01 0 0 1 1.021-1.477c.291-.391.503-.628.502-.628l-2.796-2.095s-.259.295-.605.757a23.307 23.307 0 0 0-1.196 1.729c-.201.322-.391.649-.57.954l-.463.844-.427.834zM427.716 721.299l-1.199-3.17-.21.069c-.137.041-.318.127-.56.179l-.823.193c-.15.035-.305.073-.462.111-.159.037-.33.05-.495.078-.665.094-1.324.211-1.842.219l-.852.055.153 3.364.992-.063c.596-.015 1.387-.144 2.178-.262.198-.033.397-.052.59-.094l.566-.135c.367-.087.709-.169 1.003-.237.293-.067.528-.169.697-.22l.264-.087zM436.367 714.128l-3.229-1.438s-.147.258-.366.648c-.097.203-.258.41-.42.639-.165.227-.32.482-.534.695-.205.221-.388.458-.59.654-.21.192-.407.37-.575.522-.159.161-.318.27-.428.346l-.17.125 2.212 2.644.225-.167c.143-.102.35-.25.566-.46l.764-.696c.27-.262.521-.574.791-.871.279-.292.496-.626.714-.929.215-.305.425-.586.558-.851l.482-.861zM437.124 703.332l-3.419.975s.029.069.069.196l.133.532c.056.221.132.477.165.758.037.282.108.58.127.881l.062.887-.019.774c-.003.112-.001.217-.008.308l-.029.236-.024.205 3.552.351s.012-.095.03-.264l.034-.304c.01-.116.009-.249.013-.394l.02-.989c-.023-.361-.05-.745-.077-1.13-.027-.386-.111-.763-.161-1.122-.046-.359-.138-.687-.21-.968l-.173-.679c-.05-.162-.085-.253-.085-.253zM400.829 708.307l3.524-.728-.031-.211c-.021-.135-.053-.327-.064-.56-.031-.464-.092-1.082-.072-1.703-.017-.62.046-1.239.075-1.703.011-.229.038-.431.059-.57l.031-.221-3.55-.375-.034.257a7.04 7.04 0 0 0-.069.682c-.037.57-.109 1.331-.087 2.094-.021.763.055 1.522.098 2.094.016.285.055.52.081.685l.039.259zM405.867 717.885l2.565-2.489-.597-.531c-.165-.175-.345-.387-.546-.607l-.309-.341-.276-.381c-.178-.262-.383-.507-.528-.763-.146-.258-.283-.496-.4-.701-.125-.201-.2-.382-.254-.507l-.087-.196-3.251 1.58.108.241c.068.154.164.375.316.622l.493.854c.179.315.429.615.649.934l.341.468.375.42c.246.271.468.529.672.74.438.393.729.657.729.657zM416.281 722.172l.652-3.318-.812-.128c-.242-.041-.529-.076-.83-.139-.298-.071-.617-.149-.935-.226l-.476-.115c-.157-.037-.304-.098-.45-.144l-.793-.269a3.946 3.946 0 0 1-.551-.214l-.204-.092-1.794 2.988.25.111.288.13c.113.046.245.087.387.139l.972.333c.179.057.359.13.552.179.192.048.388.098.583.145l1.148.283c.368.08.72.124 1.019.176l.994.161zM413.524 680.085l2.691 2.215.186-.2c.115-.131.294-.304.483-.537l.646-.793c.117-.146.242-.295.361-.45.113-.161.229-.325.345-.487.227-.332.469-.65.667-.971l.529-.884.21-.355.143-.284.125-.249-3.221-1.455-.103.208a24.57 24.57 0 0 1-.118.237l-.179.297c-.13.22-.284.476-.446.746-.167.273-.378.547-.569.829-.099.14-.197.279-.293.418-.104.134-.212.262-.314.388l-.558.688c-.162.202-.321.352-.422.466l-.163.173zM406.393 687.98l3.003 1.823.484-.699c.297-.414.72-.947 1.138-1.484.222-.258.443-.516.649-.759.205-.246.401-.469.583-.648l.585-.616-2.62-2.288-.655.688c-.202.203-.421.452-.649.723l-.723.845c-.465.594-.932 1.188-1.261 1.645l-.534.77zM401.796 697.546l3.438.914.25-.796c.139-.481.402-1.102.626-1.732.268-.618.523-1.241.744-1.696l.374-.758-3.226-1.443-.412.834c-.242.502-.526 1.19-.82 1.874-.252.698-.538 1.385-.696 1.918-.166.532-.278.885-.278.885zM406.577 660.301l-.165-3.363-1.052.079-.511.04-.558.08c-.387.059-.799.119-1.211.182l-1.184.258c-.377.082-.731.157-1.021.25l-.979.278 1.086 3.209s.344-.102.863-.249c.257-.083.563-.147.891-.216l1.025-.225a210.946 210.946 0 0 1 1.508-.223l.426-.031c.53-.043.882-.069.882-.069zM415.549 663.188l2.556-2.353-.225-.211c-.146-.133-.34-.337-.615-.533-.271-.202-.577-.453-.928-.687-.36-.218-.741-.462-1.135-.678-.405-.191-.811-.385-1.191-.565l-1.074-.391c-.313-.122-.583-.175-.771-.229a48.172 48.172 0 0 1-.293-.076l-.93 3.251.226.06c.142.041.356.074.589.172.237.087.514.186.81.291.282.136.582.276.882.421.288.159.562.339.829.495.256.17.471.354.669.496.203.139.337.289.442.383.1.099.159.154.159.154zM418.069 671.604l3.526.532s.015-.104.037-.284l.091-.743c.047-.308.051-.674.062-1.064.003-.196.009-.397.013-.604-.007-.208-.025-.417-.04-.626-.016-.211-.03-.423-.047-.629-.017-.207-.063-.409-.093-.605-.074-.395-.119-.764-.221-1.072l-.214-.75c-.048-.181-.091-.281-.091-.281l-3.39 1.057s.033.071.066.208l.157.554c.081.226.106.507.164.8.022.147.062.297.073.455l.034.479c.01.158.026.318.033.478l-.013.465c-.008.302-.006.586-.048.827l-.07.583-.029.22z"/>
        <path fill="#3D3D65" d="M381.396 651.346l4.247 6.035 4.272-6.035h3.428l-5.837 8.346 6.333 9.042h-3.501l-4.695-6.558-4.669 6.558h-3.427l6.333-8.918-5.887-8.47h3.403z"/>
        <path fill="#FED139" d="M383.77 651.346l4.248 6.035 4.272-6.035h3.428l-5.837 8.346 6.334 9.042h-3.502l-4.695-6.558-4.669 6.558h-3.427l6.333-8.918-5.886-8.47h3.401z"/>
        <path fill="#45A2D8" d="M176.091 296.768h1.016v13.104h-1.016z"/>
        <path fill="#222944" stroke="#FED13A" stroke-width=".5" stroke-miterlimit="10" d="M150.111 305.886v11.45s5.358-7.053 22.18-6.836v-11.431M150.11 305.886v11.45s-6.961-8.136-21.555-6.19v-11.952"/>
        <path fill="#3E3E65" stroke="#FED13A" stroke-width=".5" stroke-miterlimit="10" d="M151.422 282.621l-38.787 11.549 37.74 11.716 38.786-11.549z"/>
        <path fill="#45A2D8" d="M178.537 310.827a1.85 1.85 0 1 1-3.699 0 1.85 1.85 0 0 1 3.699 0z"/>
        <path fill="#45A2D8" d="M178.537 325.173h-3.699s-1.313-10.667.935-12.917c.211-.21.932.196.932.196s.781-.264.991-.053c2.248 2.248.841 12.774.841 12.774z"/>
        <path fill="#0D8E47" d="M653.714 76.818l-46.048 52.452-23.153-20.025 46.046-52.451z"/>
        <path fill="#0D8E47" d="M653.714 76.818l-46.048 52.452-23.153-20.025 46.046-52.451z"/>
        <defs>
            <path id="a" d="M653.714 76.818l-46.048 52.452-23.153-20.025 46.046-52.451z"/>
        </defs>
        <use xlink:href="#a" overflow="visible" fill="#0D8E47"/>
        <clipPath id="b">
            <use xlink:href="#a" overflow="visible"/>
        </clipPath>
        <path clip-path="url(#b)" fill="#0D8E47" d="M613.824 130.533l-3.953 4.504-29.239-25.285 3.954-4.506zM590.792 105.862l-4.793-4.145 38.945-44.362 4.792 4.145zM614.998 126.795l-4.792-4.146 38.942-44.36 4.795 4.145z"/>
        <path clip-path="url(#b)" fill="#0D8E47" d="M593.009 103.817c3.177 2.748 3.629 7.394 1.008 10.379-2.62 2.984-7.319 3.178-10.497.43-3.176-2.747-3.627-7.394-1.007-10.379 2.621-2.985 7.319-3.178 10.496-.43zM612.422 120.604c3.177 2.75 3.628 7.395 1.006 10.379-2.62 2.986-7.318 3.179-10.494.431-3.178-2.747-3.628-7.394-1.009-10.38 2.622-2.984 7.319-3.177 10.497-.43zM656.065 82.417l3.954-4.503-29.24-25.287-3.953 4.504z"/>
        <path clip-path="url(#b)" fill="#0D8E47" d="M626.551 65.609c3.176 2.747 7.876 2.554 10.496-.43 2.621-2.985 2.171-7.631-1.007-10.379-3.177-2.747-7.877-2.554-10.497.43-2.618 2.985-2.169 7.631 1.008 10.379zM645.965 82.397c3.175 2.748 7.874 2.555 10.495-.429 2.621-2.986 2.169-7.633-1.007-10.38-3.177-2.746-7.878-2.554-10.497.431-2.619 2.984-2.17 7.632 1.009 10.378z"/>
        <path fill="#0D8E47" d="M623.826 87.663c4.016 3.473 5.131 8.724 2.492 11.729-2.639 3.006-8.031 2.627-12.048-.845-4.014-3.473-5.13-8.724-2.491-11.729 2.639-3.006 8.033-2.628 12.047.845z"/>
        <path fill="none" d="M635.572 63.797l-2.668 3.039-4.554-3.937 2.67-3.041z"/>
        <text transform="matrix(.6239 -.7107 .7564 .6541 631.908 65.978)" fill="#0D8E47" font-family="'Montserrat-Regular'" font-size="6.654">
            $
        </text>
        <path fill="none" d="M651.469 77.147l-2.667 3.04-4.556-3.937 2.668-3.041z"/>
        <text transform="matrix(.6239 -.7107 .7564 .6541 647.805 79.329)" fill="#0D8E47" font-family="'Montserrat-Regular'" font-size="6.654">
            $
        </text>
        <path fill="none" d="M594.898 110.129l-2.668 3.039-4.553-3.938 2.669-3.04z"/>
        <text transform="matrix(.6239 -.7107 .7564 .6541 591.235 112.31)" fill="#0D8E47" font-family="'Montserrat-Regular'" font-size="6.654">
            $
        </text>
        <path fill="none" d="M610.795 123.479l-2.668 3.04-4.554-3.937 2.667-3.042z"/>
        <text transform="matrix(.6239 -.7107 .7564 .6541 607.13 125.66)" fill="#0D8E47" font-family="'Montserrat-Regular'" font-size="6.654">
            $
        </text>
        <g>
            <path fill="#00A651" d="M581.616 107.31l46.743-53.646 23.503 20.48-46.743 53.645z"/>
            <path fill="#00A651" d="M581.616 107.31l46.743-53.646 23.503 20.48-46.743 53.645z"/>
            <defs>
                <path id="c" transform="rotate(-48.933 616.798 90.717)" d="M581.193 75.122h71.158v31.175h-71.158z"/>
            </defs>
            <clipPath id="d">
                <use xlink:href="#c" overflow="visible"/>
            </clipPath>
            <path transform="rotate(-48.929 594.568 118.43)" clip-path="url(#d)" fill="#60BF83" d="M591.5 98.754h6.111v39.37H591.5z"/>
            <path transform="rotate(41.062 605.312 79.018)" clip-path="url(#d)" fill="#60BF83" d="M602.13 48.934h6.452v60.182h-6.452z"/>
            <path transform="rotate(41.071 629.956 100.46)" clip-path="url(#d)" fill="#60BF83" d="M626.701 70.347h6.454v60.18h-6.454z"/>
            <ellipse transform="rotate(-48.933 585.493 107.273)" clip-path="url(#d)" fill="#60BF83" cx="585.456" cy="107.267" rx="7.331" ry="7.744"/>
            <ellipse transform="rotate(-48.945 605.168 124.431)" clip-path="url(#d)" fill="#60BF83" cx="605.163" cy="124.439" rx="7.331" ry="7.744"/>
            <path transform="scale(-1) rotate(-48.945 -141.972 1409.29)" clip-path="url(#d)" fill="#60BF83" d="M638.397 44.933h6.108v39.368h-6.108z"/>
            <ellipse transform="rotate(131.064 629.14 57.15)" clip-path="url(#d)" fill="#60BF83" cx="629.14" cy="57.132" rx="7.332" ry="7.745"/>
            <ellipse transform="rotate(131.064 648.846 74.322)" clip-path="url(#d)" fill="#60BF83" cx="648.847" cy="74.304" rx="7.332" ry="7.745"/>
            <ellipse transform="rotate(-48.929 616.72 90.773)" fill="#60BF83" cx="616.707" cy="90.783" rx="7.382" ry="9.789"/>
            <path fill="none" d="M626.127 59.909l2.708-3.11 4.622 4.027-2.708 3.11z"/>
            <text transform="matrix(.6219 -.7137 .7539 .6569 629.769 63.04)" fill="#EEE" font-family="'Montserrat-Regular'" font-size="6.777">
                $
            </text>
            <path fill="none" d="M642.281 73.53l2.709-3.109 4.622 4.028-2.709 3.108z"/>
            <text transform="matrix(.6219 -.7137 .7539 .6569 645.904 76.695)" fill="#EEE" font-family="'Montserrat-Regular'" font-size="6.777">
                $
            </text>
            <path fill="none" d="M584.873 107.278l2.708-3.109 4.623 4.028-2.709 3.108z"/>
            <text transform="matrix(.6219 -.7137 .7539 .6569 588.477 110.428)" fill="#EEE" font-family="'Montserrat-Regular'" font-size="6.777">
                $
            </text>
            <path fill="none" d="M600.969 120.938l2.707-3.109 4.624 4.027-2.707 3.109z"/>
            <text transform="matrix(.6219 -.7137 .7539 .6569 604.613 124.085)" fill="#EEE" font-family="'Montserrat-Regular'" font-size="6.777">
                $
            </text>
        </g>
        <path fill="#0D8E47" d="M592.19 116.48l3.856 3.361 32.346-66.196-4.995 5.73"/>
        <g>
            <path fill="#00A651" d="M567.506 104.676l30.413-64.333 28.186 13.324L595.692 118z"/>
            <path fill="#00A651" d="M567.506 104.676l30.413-64.333 28.186 13.324L595.692 118z"/>
            <defs>
                <path id="e" transform="rotate(-64.698 596.774 79.183)" d="M561.213 63.599h71.157v31.176h-71.157z"/>
            </defs>
            <clipPath id="f">
                <use xlink:href="#e" overflow="visible"/>
            </clipPath>
            <path transform="rotate(-64.711 582.936 111.899)" clip-path="url(#f)" fill="#60BF83" d="M579.889 92.223H586v39.371h-6.111z"/>
            <path transform="rotate(25.298 582.64 71.035)" clip-path="url(#f)" fill="#60BF83" d="M579.404 40.953h6.453v60.182h-6.453z"/>
            <path transform="rotate(25.302 612.059 84.964)" clip-path="url(#f)" fill="#60BF83" d="M608.869 54.883h6.454v60.181h-6.454z"/>
            <ellipse transform="rotate(-64.698 571.114 103.635)" clip-path="url(#f)" fill="#60BF83" cx="571.152" cy="103.631" rx="7.332" ry="7.745"/>
            <ellipse transform="rotate(-64.698 594.744 114.807)" clip-path="url(#f)" fill="#60BF83" cx="594.784" cy="114.803" rx="7.332" ry="7.745"/>
            <path transform="scale(-1) rotate(-64.698 -74.805 968.52)" clip-path="url(#f)" fill="#60BF83" d="M610.396 27.686h6.11v39.37h-6.11z"/>
            <ellipse transform="scale(-1) rotate(-64.696 -68.71 946.73)" clip-path="url(#f)" fill="#60BF83" cx="599.571" cy="43.512" rx="7.332" ry="7.744"/>
            <ellipse transform="rotate(115.296 623.207 54.684)" clip-path="url(#f)" fill="#60BF83" cx="623.203" cy="54.684" rx="7.331" ry="7.745"/>
            <ellipse transform="rotate(-64.698 596.73 79.272)" fill="#60BF83" cx="596.749" cy="79.276" rx="7.383" ry="9.789"/>
            <path fill="none" d="M597.466 46.998l1.762-3.728 5.544 2.62-1.762 3.728z"/>
            <text transform="matrix(.4046 -.8558 .9041 .4274 601.814 49.055)" fill="#EEE" font-family="'Montserrat-Regular'" font-size="6.777">
                $
            </text>
            <path fill="none" d="M616.686 55.715l1.764-3.73 5.542 2.622-1.764 3.73z"/>
            <text transform="matrix(.4046 -.8558 .9041 .4274 621.055 57.812)" fill="#EEE" font-family="'Montserrat-Regular'" font-size="6.777">
                $
            </text>
            <path fill="none" d="M570.606 103.797l1.763-3.73 5.543 2.62-1.763 3.73z"/>
            <text transform="matrix(.4046 -.8558 .9041 .4274 574.953 105.88)" fill="#EEE" font-family="'Montserrat-Regular'" font-size="6.777">
                $
            </text>
            <path fill="none" d="M589.845 112.588l1.763-3.728 5.542 2.62-1.763 3.729z"/>
            <text transform="matrix(.4046 -.8558 .9041 .4274 594.191 114.638)" fill="#EEE" font-family="'Montserrat-Regular'" font-size="6.777">
                $
            </text>
        </g>
        <path fill="#0D8E47" d="M605.907 44.142l2.001.947-13.124 69.713-13.455-3.572-1.225-.578"/>
        <g>
            <path fill="#00A651" d="M563.137 107.695l12.232-70.097 30.713 5.36-12.232 70.096z"/>
            <path fill="#00A651" d="M563.137 107.695l12.232-70.097 30.713 5.36-12.232 70.096z"/>
            <defs>
                <path id="g" transform="rotate(-80.102 584.624 75.344)" d="M549.061 59.738h71.157v31.177h-71.157z"/>
            </defs>
            <clipPath id="h">
                <use xlink:href="#g" overflow="visible"/>
            </clipPath>
            <path transform="rotate(-80.102 579.963 110.567)" clip-path="url(#h)" fill="#60BF83" d="M576.922 90.866h6.111v39.369h-6.111z"/>
            <path transform="rotate(9.903 568.752 71.173)" clip-path="url(#h)" fill="#60BF83" d="M565.597 41.146h6.454v60.182h-6.454z"/>
            <path transform="rotate(9.903 600.855 76.773)" clip-path="url(#h)" fill="#60BF83" d="M597.704 46.75h6.454v60.181h-6.454z"/>
            <ellipse transform="rotate(-80.096 566.429 105.69)" clip-path="url(#h)" fill="#60BF83" cx="566.411" cy="105.702" rx="7.332" ry="7.745"/>
            <ellipse transform="rotate(-80.096 592.152 110.2)" clip-path="url(#h)" fill="#60BF83" cx="592.161" cy="110.197" rx="7.332" ry="7.746"/>
            <path transform="scale(-1) rotate(-80.114 -47.84 704.36)" clip-path="url(#h)" fill="#60BF83" d="M589.2 20.545h6.109v39.369H589.2z"/>
            <ellipse transform="rotate(99.898 577.86 40.207)" clip-path="url(#h)" fill="#60BF83" cx="577.845" cy="40.196" rx="7.332" ry="7.745"/>
            <ellipse transform="rotate(99.904 603.597 44.696)" clip-path="url(#h)" fill="#60BF83" cx="603.595" cy="44.691" rx="7.332" ry="7.746"/>
            <ellipse transform="rotate(-80.102 584.627 75.428)" fill="#60BF83" cx="584.622" cy="75.424" rx="7.383" ry="9.79"/>
            <path fill="none" d="M576.735 44.121l.71-4.063 6.039 1.057-.711 4.063z"/>
            <text transform="matrix(.1628 -.9326 .9851 .1719 581.488 44.962)" fill="#EEE" font-family="'Montserrat-Regular'" font-size="6.777">
                $
            </text>
            <path fill="none" d="M597.563 47.437l.708-4.061 6.04 1.054-.709 4.061z"/>
            <text transform="matrix(.1628 -.9326 .9851 .1719 602.363 48.295)" fill="#EEE" font-family="'Montserrat-Regular'" font-size="6.777">
                $
            </text>
            <path fill="none" d="M565.914 105.999l.71-4.062 6.039 1.056-.71 4.061z"/>
            <text transform="matrix(.1628 -.9326 .9851 .1719 570.68 106.879)" fill="#EEE" font-family="'Montserrat-Regular'" font-size="6.777">
                $
            </text>
            <path fill="none" d="M586.802 109.359l.71-4.062 6.04 1.055-.71 4.061z"/>
            <text transform="matrix(.1628 -.9326 .9851 .1719 591.554 110.214)" fill="#EEE" font-family="'Montserrat-Regular'" font-size="6.777">
                $
            </text>
        </g>
        <path fill="#0D8E47" d="M601.815 42.208l-4.42-.771.507-1.078"/>
        <g>
            <path fill="#3D3D65" d="M867.898 786.943h-20.161l-3.827 9.024h-7.025l17.648-39.98h6.911l17.478 39.98h-7.196l-3.828-9.024zm-2.57-5.996l-7.54-17.764-7.538 17.764h15.078zM904.516 778.325h-10.052v9.995h-4.284v-9.995h-10.108v-4.512h10.108v-9.995h4.284v9.995h10.052v4.512z"/>
            <path fill="#45A2D9" d="M870.675 786.943h-20.163l-3.827 9.024h-7.024l17.648-39.98h6.911l17.478 39.98H874.5l-3.825-9.024zm-2.571-5.996l-7.54-17.764-7.538 17.764h15.078zM906.93 778.325h-10.054v9.995h-4.282v-9.995h-10.11v-4.512h10.11v-9.995h4.282v9.995h10.054v4.512z"/>
        </g>
        <g>
            <path fill="#45A2D8" d="M78.264 629.896l-.923-.562 8.198-13.48 12.944 8.201 10.884-4.189 7.426-4.792 11.686-26.844 13.847 13.458 6.675-12.776.958.502-7.347 14.062-13.765-13.38-11.193 25.711-7.795 5.028-.053.02-11.441 4.404-12.475-7.903z"/>
        </g>
        <g>
            <circle fill="#45A2D8" cx="85.797" cy="616.439" r="1.246"/>
        </g>
        <g>
            <circle fill="#45A2D8" cx="108.992" cy="620.586" r="1.245"/>
        </g>
        <g>
            <circle fill="#45A2D8" cx="117.1" cy="615.514" r="1.245"/>
        </g>
        <g>
            <ellipse fill="#45A2D8" cx="128.629" cy="589.214" rx="1.099" ry="1.245"/>
        </g>
        <g>
            <circle fill="#45A2D8" cx="142.428" cy="602.653" r="1.246"/>
        </g>
        <g>
            <circle fill="#45A2D8" cx="149.523" cy="589.235" r="1.245"/>
        </g>
        <g>
            <path fill="#FED138" d="M77.873 628.479l-.64-.389 8.11-13.335 12.872 8.154 10.977-4.223 7.484-4.83 11.611-26.668 13.833 13.445 6.779-12.974.664.347-7.245 13.864-13.777-13.391-11.269 25.882-7.738 4.994-11.401 4.387-12.546-7.947z"/>
        </g>
        <g>
            <circle fill="#FED138" cx="85.718" cy="615.083" r="1.246"/>
        </g>
        <g>
            <circle fill="#FED138" cx="108.783" cy="619.184" r="1.246"/>
        </g>
        <g>
            <circle fill="#FED138" cx="116.975" cy="614.109" r="1.245"/>
        </g>
        <g>
            <circle fill="#FED138" cx="128.483" cy="587.894" r="1.245"/>
        </g>
        <g>
            <circle fill="#FED138" cx="142.219" cy="601.251" r="1.246"/>
        </g>
        <g>
            <circle fill="#FED138" cx="149.231" cy="587.832" r="1.245"/>
        </g>
        <g>
            <path fill="#45A2D8" d="M154.406 630.714H75.303v-44.047h2.25v41.582h76.853z"/>
        </g>
    </g>
    <g>
        <g fill="#FED139">
            <path d="M487.886 475.186c-25.849 0-46.803 20.954-46.803 46.803 0 25.849 20.955 46.803 46.803 46.803s46.803-20.954 46.803-46.803c-.001-25.849-20.955-46.803-46.803-46.803zm0 72.951c-15.075 0-26.147-11.072-26.147-26.147s11.072-26.147 26.147-26.147 26.147 11.072 26.147 26.147-11.072 26.147-26.147 26.147zM526.629 459.514c.001-.018-.003-.036-.003-.054l.035.028c-.142-4.973-4.523-7.029-4.523-7.029H458.96c-4.359 0-7.892 3.146-7.892 7.029 0 3.882 3.533 7.029 7.892 7.029h63.178s4.382-2.057 4.523-7.029l-.032.026z"/>
        </g>
        <path fill="#27AAE1" d="M533.875 857.297l.666-.156-.011-.376z"/>
    </g>
</svg>
