<?xml version="1.0" encoding="utf-8"?>
<!-- Generator: Adobe Illustrator 16.0.0, SVG Export Plug-In . SVG Version: 6.00 Build 0)  -->
<!DOCTYPE svg PUBLIC "-//W3C//DTD SVG 1.1//EN" "http://www.w3.org/Graphics/SVG/1.1/DTD/svg11.dtd">
<svg version="1.1" xmlns="http://www.w3.org/2000/svg" xmlns:xlink="http://www.w3.org/1999/xlink" x="0px" y="0px"
	 width="216.667px" height="387.333px" viewBox="0 0 216.667 387.333" enable-background="new 0 0 216.667 387.333"
	 xml:space="preserve">
<g id="Layer_2">
	<rect x="-121.667" y="-25.001" fill="#45A2D9" width="500" height="500"/>
	<g>
		<g>
			<path fill="#45A2D9" d="M96.744,110.334c-2.28-5.795-4.451-10.398-10.149-13.494c-0.42,1.553-0.841,3.106-1.262,4.659
				c3.869-0.299,6.953-2.572,10.665-3.089c1.767-0.246,2.052-2.376,1.494-3.672c-1.037-2.408-1.664-4.467-3.391-6.506
				c-2.087-2.464-5.606,1.091-3.535,3.535c1.342,1.584,1.802,3.621,2.609,5.494c0.498-1.224,0.996-2.448,1.494-3.672
				c-3.271,0.456-5.956,2.649-9.335,2.911c-2.336,0.181-3.595,3.391-1.262,4.659c4.504,2.447,6.054,5.938,7.851,10.506
				C93.089,114.628,97.926,113.338,96.744,110.334L96.744,110.334z"/>
		</g>
	</g>
</g>
<g id="Layer_1">
	<g>
		<g>
			<path fill="#FED13A" class='svgarrow' d="M82.341,10.477v40.537H68l27.707,36.765l27.706-36.765h-14.339V10.477H82.341z"/>
		</g>
		<g>
			<path fill="#FED13A" class='svgarrow' d="M157.098,32.951l-18.794,22.281l-7.882-6.649l-1.816,33.053l32.275-7.363l-7.884-6.649l18.794-22.279
				L157.098,32.951z"/>
		</g>
		<g>
			<path fill="#FED13A" class='svgarrow' d="M35.94,75.803l16.539,16.689l-5.905,5.851l26.408,3.836L69.39,75.736l-5.905,5.851l-16.538-16.69
				L35.94,75.803z"/>
		</g>
		<g>
			<path fill="#FED13A" class='svgarrow' d="M55.738,11.117l4.737,17.508l-6.194,1.676l16.264,12.643l7.67-19.118l-6.193,1.675L67.285,7.993
				L55.738,11.117z"/>
		</g>
		<g>
			<path fill="#FED13A" class='svgarrow' d="M18.696,62.071l7.056,5.482l-1.94,2.495l10.146,0.15l-2.652-9.795L29.368,62.9l-7.056-5.481
				L18.696,62.071z"/>
		</g>
		<g>
			<path fill="#FED13A" class='svgarrow' d="M179.743,68.696l-8.086,3.802l-1.344-2.86l-4.736,8.975l9.933,2.079l-1.345-2.86l8.085-3.803
				L179.743,68.696z"/>
		</g>
		<g>
			<path fill="#FED13A" class='svgarrow' d="M78.604,85.214l3.763,8.261l-2.922,1.329l9.059,4.921l2.233-10.063l-2.922,1.332l-3.763-8.26
				L78.604,85.214z"/>
		</g>
		<g>
			<path fill="#FED13A" class='svgarrow' d="M131.676,89.285l-4.654,4.338l-1.533-1.646l-1.256,7.115l7.186-0.754l-1.535-1.646l4.653-4.338
				L131.676,89.285z"/>
		</g>
		<g>
			<path fill="#FED13A" class='svgarrow' d="M134.829,17.454l-7.222,13.299l-4.705-2.556l2.539,17l15.64-7.126l-4.703-2.554l7.223-13.3
				L134.829,17.454z"/>
		</g>
		<g>
			<path fill="#FED13A" class='svgarrow' d="M115.236,77.858l-7.732,13.008L102.9,88.13l1.879,17.084l15.904-6.512l-4.601-2.735l7.733-13.009
				L115.236,77.858z"/>
		</g>
		<g>
			<path fill="#FED13A" class='svgarrow' d="M165.805,84.791l-14.504,4.318l-1.527-5.131l-10.203,13.831l16.105,5.996l-1.527-5.129l14.506-4.32
				L165.805,84.791z"/>
		</g>
		<g>
			<path fill="#FED13A" class='svgarrow' d="M8.001,89.256l13.215,7.374l-2.609,4.675l17.027-2.344L28.689,83.24l-2.609,4.675l-13.215-7.375
				L8.001,89.256z"/>
		</g>
		<g>
			<path fill="#FED13A" class='svgarrow' d="M30.557,37.152l9.534,11.753l-4.158,3.372l16.681,4.144L52,39.246l-4.158,3.372l-9.534-11.753
				L30.557,37.152z"/>
		</g>
	</g>
	<g>
		<polygon fill="#F9F9FA" stroke="#F9F9FA" stroke-miterlimit="10" points="152.418,378.456 45.28,378.456 57.716,275.479 
			140.094,275.479 		"/>
		<g>
			<path fill="#301F55" d="M68.231,313.487l-0.05-0.005l-2.949,1.23l-0.256-1.702l3.705-1.53l1.857,0.186l-1.61,16.097l-2.104-0.21
				L68.231,313.487z"/>
			<path fill="#301F55" d="M59.828,349.744l0.134-1.337l1.874-1.488c4.502-3.501,6.568-5.396,6.834-7.82
				c0.164-1.634-0.477-3.224-2.878-3.465c-1.462-0.146-2.75,0.476-3.554,1.021l-0.539-1.605c1.208-0.829,2.862-1.364,4.719-1.178
				c3.467,0.347,4.69,2.869,4.459,5.173c-0.297,2.971-2.692,5.158-6.41,8.087l-1.408,1.06l-0.005,0.05l7.231,0.724l-0.181,1.808
				L59.828,349.744z"/>
			<path fill="#301F55" d="M58.331,369.959c0.58,0.459,1.954,1.222,3.465,1.372c2.798,0.28,3.842-1.416,3.952-2.756
				c0.2-2.256-1.732-3.425-3.837-3.635l-1.214-0.122l0.164-1.635l1.214,0.122c1.584,0.158,3.671-0.458,3.862-2.365
				c0.128-1.288-0.575-2.509-2.58-2.709c-1.289-0.129-2.583,0.317-3.326,0.743l-0.412-1.643c0.905-0.534,2.601-0.99,4.334-0.816
				c3.17,0.317,4.418,2.343,4.223,4.299c-0.166,1.659-1.297,2.972-3.351,3.491l-0.005,0.05c1.941,0.594,3.402,2.241,3.177,4.495
				c-0.257,2.575-2.489,4.628-6.352,4.241c-1.808-0.181-3.335-0.909-4.077-1.508L58.331,369.959z"/>
		</g>
		<g>
			<path fill="#301F55" d="M84.537,287.689h-3.614v11.88c0,0.685-0.152,1.192-0.457,1.522c-0.305,0.331-0.699,0.497-1.183,0.497
				c-0.491,0-0.891-0.168-1.199-0.502c-0.309-0.335-0.463-0.841-0.463-1.518v-11.88h-3.614c-0.565,0-0.985-0.125-1.261-0.374
				c-0.275-0.249-0.413-0.578-0.413-0.987c0-0.424,0.143-0.758,0.43-1.004c0.286-0.245,0.701-0.368,1.244-0.368h10.53
				c0.573,0,0.999,0.127,1.277,0.38s0.418,0.584,0.418,0.992c0,0.409-0.142,0.738-0.424,0.987
				C85.526,287.564,85.102,287.689,84.537,287.689z"/>
			<path fill="#301F55" d="M97.945,295.397c0,0.907-0.141,1.744-0.424,2.51s-0.691,1.424-1.227,1.975
				c-0.535,0.551-1.175,0.973-1.918,1.266c-0.744,0.294-1.581,0.441-2.51,0.441c-0.922,0-1.751-0.149-2.487-0.446
				c-0.736-0.298-1.374-0.724-1.913-1.277s-0.948-1.209-1.227-1.964c-0.279-0.754-0.418-1.589-0.418-2.504
				c0-0.922,0.141-1.767,0.424-2.532s0.688-1.42,1.216-1.963c0.528-0.543,1.167-0.962,1.918-1.255
				c0.751-0.294,1.58-0.441,2.487-0.441c0.922,0,1.759,0.149,2.51,0.446c0.751,0.298,1.394,0.722,1.93,1.271
				c0.536,0.551,0.942,1.205,1.222,1.964C97.806,293.646,97.945,294.482,97.945,295.397z M94.889,295.397
				c0-1.242-0.273-2.209-0.82-2.9c-0.546-0.691-1.281-1.037-2.203-1.037c-0.595,0-1.119,0.154-1.573,0.463s-0.803,0.764-1.048,1.366
				c-0.246,0.603-0.368,1.306-0.368,2.108c0,0.796,0.121,1.491,0.362,2.086s0.587,1.051,1.038,1.366
				c0.45,0.316,0.979,0.475,1.589,0.475c0.922,0,1.657-0.348,2.203-1.043C94.616,297.585,94.889,296.624,94.889,295.397z"/>
			<path fill="#301F55" d="M108.32,284.956h4.317c1.123,0,2.086,0.104,2.889,0.312s1.532,0.599,2.187,1.172
				c1.703,1.457,2.554,3.674,2.554,6.647c0,0.982-0.085,1.878-0.256,2.688c-0.171,0.811-0.435,1.542-0.792,2.192
				s-0.814,1.232-1.372,1.746c-0.439,0.394-0.918,0.71-1.439,0.947c-0.521,0.238-1.081,0.406-1.679,0.503
				c-0.599,0.097-1.274,0.145-2.025,0.145h-4.317c-0.603,0-1.056-0.091-1.361-0.273c-0.305-0.182-0.504-0.438-0.597-0.77
				c-0.093-0.331-0.14-0.761-0.14-1.288v-11.992c0-0.714,0.16-1.23,0.479-1.551C107.089,285.116,107.606,284.956,108.32,284.956z
				 M109.603,287.578v11.099h2.51c0.55,0,0.982-0.015,1.294-0.044c0.312-0.03,0.636-0.104,0.971-0.224s0.625-0.286,0.87-0.502
				c1.108-0.937,1.662-2.551,1.662-4.841c0-1.614-0.244-2.822-0.731-3.626c-0.487-0.803-1.087-1.314-1.801-1.533
				c-0.714-0.22-1.577-0.329-2.588-0.329H109.603z"/>
			<path fill="#301F55" d="M134.367,295.397c0,0.907-0.142,1.744-0.424,2.51c-0.283,0.766-0.692,1.424-1.228,1.975
				s-1.175,0.973-1.919,1.266c-0.743,0.294-1.58,0.441-2.51,0.441c-0.922,0-1.751-0.149-2.487-0.446
				c-0.736-0.298-1.374-0.724-1.913-1.277s-0.948-1.209-1.228-1.964c-0.278-0.754-0.418-1.589-0.418-2.504
				c0-0.922,0.141-1.767,0.424-2.532s0.688-1.42,1.216-1.963s1.168-0.962,1.919-1.255c0.751-0.294,1.58-0.441,2.487-0.441
				c0.922,0,1.759,0.149,2.51,0.446c0.751,0.298,1.395,0.722,1.93,1.271c0.536,0.551,0.943,1.205,1.222,1.964
				C134.227,293.646,134.367,294.482,134.367,295.397z M131.31,295.397c0-1.242-0.273-2.209-0.82-2.9
				c-0.546-0.691-1.281-1.037-2.203-1.037c-0.595,0-1.119,0.154-1.572,0.463c-0.454,0.309-0.804,0.764-1.049,1.366
				s-0.368,1.306-0.368,2.108c0,0.796,0.121,1.491,0.362,2.086c0.242,0.595,0.588,1.051,1.038,1.366
				c0.449,0.316,0.979,0.475,1.589,0.475c0.922,0,1.657-0.348,2.203-1.043C131.037,297.585,131.31,296.624,131.31,295.397z"/>
			<path fill="#301F55" d="M72.133,304.165v-1.138h63.059v1.138H72.133z"/>
		</g>
	</g>
</g>
<g id="Layer_6">
	<path fill="none" id='svgscrib1' stroke="#301F55" stroke-width="2" stroke-miterlimit="10" d="M74.941,345.175
		c-0.003-3.929,7.289-9.083,10.002-5.162c1.351,1.953,0.814,6.296-1.476,6.499c-2.132-8.527,13.75-11.681,11.124-1.889
		c-0.524,0.382-2.226,1.326-2.642,1.47c-1.628-7.733,9.188-8.786,14.292-6.943c1.108,3.248-1.609,6.405-4.453,6.891
		c-0.952-5.862,6.197-11.161,12.144-9.789c7.097,1.637,4.29,10.988-2.276,10.732c-1.636-7.404,10.603-10.991,15.822-8.316
		c2.121,5.154,0.316,6.83-5.015,7.375c-0.047-5.432,7.916-9.183,12.644-7.923c5.777,1.539,5.621,11.043-1.37,9.804
		c-0.663-7.889,4.104-10.691,11.204-10.734"/>
	<path fill="none" id='svgscrib2' stroke="#301F55" stroke-width="2" stroke-miterlimit="10" d="M75.576,323.52c-0.003-3.676,6.82-8.499,9.359-4.83
		c1.264,1.827,0.762,5.891-1.381,6.081c-1.996-7.979,12.866-10.93,10.409-1.768c-0.491,0.357-2.083,1.241-2.472,1.376
		c-1.524-7.236,8.598-8.222,13.374-6.497c1.037,3.039-1.506,5.993-4.167,6.447c-0.89-5.485,5.799-10.443,11.363-9.159
		c6.641,1.531,0.926,7.739-0.977,9.078c-1.531-6.929,8.768-9.32,13.652-6.817c1.985,4.822-2.027,7.692-4.693,6.9
		c-0.043-5.082,7.407-8.592,11.831-7.413c3.709,0.987,3.539,10.028-1.282,9.173c-0.62-7.381,3.841-10.004,10.484-10.044"/>
	<path fill="none" id='svgscrib3' stroke="#301F55" stroke-width="2" stroke-miterlimit="10" d="M74.089,367.042
		c-0.003-3.676,6.82-8.499,9.359-4.83c1.264,1.827,0.762,5.891-1.381,6.081c-1.996-7.979,12.866-10.93,10.409-1.768
		c-0.491,0.357-2.083,1.241-2.472,1.376c-1.524-7.236,8.598-8.222,13.374-6.497c1.037,3.039-1.506,5.993-4.167,6.447
		c-0.89-5.485,5.799-10.443,11.363-9.159c6.641,1.531,0.926,7.739-0.977,9.078c-1.531-6.929,8.768-9.32,13.652-6.817
		c1.985,4.822-2.027,7.692-4.693,6.9c-0.043-5.082,7.407-8.592,11.831-7.413c3.709,0.987,3.539,10.028-1.282,9.173
		c-0.62-7.381,3.84-10.004,10.485-10.044"/>
</g>
<g id="Layer_3">
	<g>
		<path fill="#FED13A" d="M31.767,110.271h132.936c0,0,7.359-1.661,7.834,11.395c0.475,13.056,0,93.055,0,93.055
			s0.475,9.496-8.783,9.971c-9.259,0.475-136.022,0-136.022,0s-5.934-0.475-6.171-11.157c-0.238-10.683,0-96.378,0-96.378
			S21.796,110.271,31.767,110.271z"/>
		<path fill="#FED13A" d="M32.479,115.731h1.246h129.613c0,0,4.094-1.306,4.094,5.637c0,6.944,0,76.913,0,76.913
			s1.068,2.85-4.984,3.205c-6.054,0.355-131.393,0-131.393,0s-4.985,1.474-4.629-5.228s-0.018-73.288-0.018-73.288
			S24.112,115.731,32.479,115.731z"/>
		<path fill="#FED13A" d="M83.397,224.851c0,0-1.603,14.912-3.739,17.583c-2.136,2.671-7.299,6.054-4.985,6.766s44.688,0,44.688,0
			s1.958-1.247-0.89-3.739s-7.478-10.318-7.478-20.559"/>
		<path fill="#FED13A" d="M49.748,253.65h95.785l20.119,9.793c0,0,2.314,4.629,0,5.163s-134.42,0-134.42,0s-3.027-3.026,0-5.52
			C34.258,260.594,49.748,253.65,49.748,253.65z"/>
		<path fill="#FED13A" d="M175.265,268.843h0.475h3.322h29.496c0,0,6.055-3.442,0-10.386c-6.053-6.943-14.045-7.122-15.301-7.122
			s-9.268,0.891-11.227,2.314c-1.959,1.425-6.053,4.51-6.766,6.439c-0.438,1.182-1.141,3.623-1.129,5.514
			c0.008,1.194,0.301,2.17,1.129,2.469"/>
	</g>
</g>
<g id="Layer_4">
</g>
<g id="Layer_5">
	<path fill="#45A2D9" class='testsvgblue' stroke="#F7F29B" stroke-width="2" stroke-miterlimit="10" d="M118.709,162.044
		c0-7.883-0.404-16.042-3.333-22.315c-3.403-7.292-9.892-10.989-19.287-10.989c-9.39,0-15.888,3.673-19.314,10.915
		c-2.973,6.279-3.38,14.405-3.38,22.252c0,2.293,0.759,4.385,2.223,6.215l11.151,15.144c0.373,0.505,1.089,0.818,1.869,0.818h16.935
		c0.84,0,1.6-0.363,1.941-0.927l9.208-15.213C118.03,166.194,118.709,164.211,118.709,162.044z"/>
	<g>
		<path display="none" fill="#45A2D9" stroke="#F7F29B" stroke-miterlimit="10" d="M103.971,182.057c0,0.812-0.84,1.471-1.876,1.471
			H91.944c-1.036,0-1.875-0.659-1.875-1.471l0,0c0-0.813,0.839-1.473,1.875-1.473h10.151
			C103.131,180.584,103.971,181.243,103.971,182.057L103.971,182.057z"/>
		<path fill="#45A2D9" stroke="#F7F29B" stroke-miterlimit="10" d="M103.971,185.797c0,0.813-0.84,1.473-1.876,1.473H91.944
			c-1.036,0-1.875-0.659-1.875-1.473l0,0c0-0.812,0.839-1.473,1.875-1.473h10.151C103.131,184.325,103.971,184.985,103.971,185.797
			L103.971,185.797z"/>
		<path fill="#45A2D9" stroke="#F7F29B" stroke-miterlimit="10" d="M103.971,189.539c0,0.813-0.84,1.473-1.876,1.473H91.944
			c-1.036,0-1.875-0.659-1.875-1.473l0,0c0-0.812,0.839-1.471,1.875-1.471h10.151C103.131,188.067,103.971,188.727,103.971,189.539
			L103.971,189.539z"/>
		<path fill="#45A2D9" stroke="#F7F29B" stroke-miterlimit="10" d="M103.971,193.281c0,0.813-0.84,1.473-1.876,1.473H91.944
			c-1.036,0-1.875-0.659-1.875-1.473l0,0c0-0.813,0.839-1.471,1.875-1.471h10.151C103.131,191.81,103.971,192.468,103.971,193.281
			L103.971,193.281z"/>
		<path fill="#45A2D9" stroke="#F7F29B" stroke-miterlimit="10" d="M97.05,199.41c2.205,0,3.992-1.675,3.992-3.743H93.06
			C93.06,197.735,94.846,199.41,97.05,199.41z"/>
	</g>
	<g>
		<g>
			<path fill="#F7F29D" d="M100.546,138.939c6.082,6.846,9.324,13.405,9.43,22.64c0.015,1.321,2.921,0.736,2.909-0.318
				c-0.109-9.635-3.314-16.358-9.66-23.501C102.491,136.934,99.721,138.01,100.546,138.939L100.546,138.939z"/>
		</g>
	</g>
	<g>
		<g>
			<path fill="#F7F29D" d="M84.032,170.16c1.701,2.477,3.708,4.661,5.841,6.769c0.691,0.683,3.423-0.393,2.697-1.109
				c-2.133-2.108-4.14-4.292-5.841-6.769C86.208,168.292,83.397,169.236,84.032,170.16L84.032,170.16z"/>
		</g>
	</g>
</g>
</svg>
