<?xml version="1.0" encoding="utf-8"?>
<!-- Generator: Adobe Illustrator 16.0.0, SVG Export Plug-In . SVG Version: 6.00 Build 0)  -->
<!DOCTYPE svg PUBLIC "-//W3C//DTD SVG 1.1//EN" "http://www.w3.org/Graphics/SVG/1.1/DTD/svg11.dtd">
<svg version="1.1" id="Layer_1" xmlns="http://www.w3.org/2000/svg" xmlns:xlink="http://www.w3.org/1999/xlink" x="0px" y="0px"
	 width="314px" height="314px" viewBox="0 0 314 314" enable-background="new 0 0 314 314" xml:space="preserve">
<g>
	<circle fill="#FFFFFF" cx="157.062" cy="157" r="157.492"/>
	<g>
		
			<rect x="152.181" y="58.513" transform="matrix(-0.971 -0.239 0.239 -0.971 273.3235 369.4951)" fill="#224099" width="13.772" height="219.321"/>
		
			<rect x="179.371" y="55.869" transform="matrix(-0.971 -0.239 0.239 -0.971 352.19 167.5939)" fill="#224099" width="13.772" height="13.145"/>
		<polygon fill="#224099" points="181.73,76.411 91.33,70.847 102.809,60.481 182.852,66.666 		"/>
		<path fill="#224099" d="M190.211,70.469c0,0,47.612,10.851,69.577,39.465c0,0-59.482-33.336-72.169-28.937"/>
		
			<rect x="167.714" y="61.16" transform="matrix(-0.9712 -0.2383 0.2383 -0.9712 339.8259 194.2553)" fill="#224099" width="27.88" height="30.856"/>
	</g>
	
		<rect x="146.664" y="57.411" transform="matrix(-0.971 -0.239 0.239 -0.971 263.0258 360.572)" fill="#FDD139" width="13.428" height="213.851"/>
	
		<rect x="173.175" y="54.833" transform="matrix(-0.971 -0.239 0.239 -0.971 339.9266 163.7056)" fill="#FDD139" width="13.429" height="12.817"/>
	<polygon fill="#3D3D65" points="175.476,74.862 87.33,69.438 98.523,59.33 176.568,65.36 	"/>
	<path fill="#3D3D65" d="M183.745,69.069c0,0,46.424,10.58,67.841,38.48c0,0-57.998-32.504-70.368-28.215"/>
	
		<rect x="161.809" y="59.992" transform="matrix(-0.9712 -0.2383 0.2383 -0.9712 327.8711 189.703)" fill="#3D3D65" width="27.184" height="30.086"/>
</g>
</svg>
